mtllib CBRA_fire2.mtl
o TorchFlame
v -0.416667 0.166667 -0.166667
v -0.416667 0.166667 -0.083333
v -0.416667 0.250000 -0.083333
v -0.416667 0.250000 -0.166667
v -0.333333 0.250000 -0.083333
v -0.333333 0.250000 -0.166667
v -0.333333 0.166667 -0.166667
v -0.333333 0.166667 -0.083333
v -0.416667 0.166667 0.000000
v -0.416667 0.250000 0.000000
v -0.333333 0.250000 0.000000
v -0.333333 0.166667 0.000000
v -0.416667 0.166667 0.083333
v -0.416667 0.250000 0.083333
v -0.333333 0.250000 0.083333
v -0.333333 0.166667 0.083333
v -0.416667 0.166667 0.166667
v -0.416667 0.250000 0.166667
v -0.333333 0.250000 0.166667
v -0.333333 0.166667 0.166667
v -0.333333 0.333333 -0.083333
v -0.333333 0.416667 -0.083333
v -0.333333 0.416667 0.000000
v -0.333333 0.333333 0.000000
v -0.416667 0.333333 -0.083333
v -0.416667 0.333333 0.000000
v -0.416667 0.416667 0.000000
v -0.416667 0.416667 -0.083333
v -0.333333 0.416667 0.083333
v -0.333333 0.333333 0.083333
v -0.416667 0.333333 0.083333
v -0.416667 0.416667 0.083333
v -0.416667 0.416667 -0.166667
v -0.416667 0.416667 -0.083333
v -0.416667 0.500000 -0.083333
v -0.416667 0.500000 -0.166667
v -0.333333 0.500000 -0.083333
v -0.333333 0.500000 -0.166667
v -0.333333 0.416667 -0.166667
v -0.333333 0.416667 -0.083333
v -0.416667 0.416667 0.000000
v -0.416667 0.500000 0.000000
v -0.333333 0.500000 0.000000
v -0.416667 0.416667 0.083333
v -0.416667 0.500000 0.083333
v -0.333333 0.500000 0.083333
v -0.416667 0.416667 0.166667
v -0.416667 0.500000 0.166667
v -0.333333 0.500000 0.166667
v -0.333333 0.416667 0.083333
v -0.333333 0.416667 0.166667
v -0.333333 0.666667 -0.083333
v -0.333333 0.750000 -0.083333
v -0.333333 0.750000 0.000000
v -0.333333 0.666667 0.000000
v -0.416667 0.666667 -0.083333
v -0.416667 0.666667 0.000000
v -0.416667 0.750000 0.000000
v -0.416667 0.750000 -0.083333
v -0.333333 0.750000 0.083333
v -0.333333 0.666667 0.083333
v -0.416667 0.666667 0.083333
v -0.416667 0.750000 0.083333
v -0.333333 0.000000 -0.166667
v -0.333333 0.000000 -0.083333
v -0.333333 0.083333 -0.083333
v -0.333333 0.083333 -0.166667
v -0.250000 0.083333 -0.083333
v -0.250000 0.083333 -0.166667
v -0.250000 0.000000 -0.166667
v -0.250000 0.000000 -0.083333
v -0.333333 0.000000 0.000000
v -0.333333 0.083333 0.000000
v -0.250000 0.083333 0.000000
v -0.250000 0.000000 0.000000
v -0.333333 0.000000 0.083333
v -0.333333 0.083333 0.083333
v -0.250000 0.083333 0.083333
v -0.250000 0.000000 0.083333
v -0.333333 0.000000 0.166667
v -0.333333 0.083333 0.166667
v -0.250000 0.083333 0.166667
v -0.250000 0.000000 0.166667
v -0.333333 0.166667 -0.333333
v -0.333333 0.166667 -0.250000
v -0.333333 0.250000 -0.250000
v -0.333333 0.250000 -0.333333
v -0.250000 0.250000 -0.250000
v -0.250000 0.250000 -0.333333
v -0.250000 0.166667 -0.333333
v -0.250000 0.166667 -0.250000
v -0.250000 0.250000 -0.166667
v -0.250000 0.166667 -0.166667
v -0.250000 0.250000 -0.083333
v -0.250000 0.166667 -0.083333
v -0.250000 0.250000 0.000000
v -0.250000 0.166667 0.000000
v -0.250000 0.250000 0.083333
v -0.250000 0.166667 0.083333
v -0.250000 0.250000 0.166667
v -0.250000 0.166667 0.166667
v -0.333333 0.166667 0.250000
v -0.333333 0.250000 0.250000
v -0.250000 0.250000 0.250000
v -0.250000 0.166667 0.250000
v -0.333333 0.166667 0.333333
v -0.333333 0.250000 0.333333
v -0.250000 0.250000 0.333333
v -0.250000 0.166667 0.333333
v -0.333333 0.416667 -0.333333
v -0.333333 0.416667 -0.250000
v -0.333333 0.500000 -0.250000
v -0.333333 0.500000 -0.333333
v -0.250000 0.500000 -0.250000
v -0.250000 0.500000 -0.333333
v -0.250000 0.416667 -0.333333
v -0.250000 0.416667 -0.250000
v -0.250000 0.500000 -0.166667
v -0.250000 0.416667 -0.166667
v -0.250000 0.500000 -0.083333
v -0.250000 0.416667 -0.083333
v -0.250000 0.500000 0.000000
v -0.250000 0.416667 0.000000
v -0.333333 0.416667 0.000000
v -0.250000 0.500000 0.083333
v -0.250000 0.416667 0.083333
v -0.250000 0.500000 0.166667
v -0.250000 0.416667 0.166667
v -0.333333 0.416667 0.250000
v -0.333333 0.500000 0.250000
v -0.250000 0.500000 0.250000
v -0.250000 0.416667 0.250000
v -0.333333 0.416667 0.333333
v -0.333333 0.500000 0.333333
v -0.250000 0.500000 0.333333
v -0.250000 0.416667 0.333333
v -0.250000 0.000000 -0.250000
v -0.250000 0.083333 -0.250000
v -0.166667 0.083333 -0.166667
v -0.166667 0.083333 -0.250000
v -0.166667 0.000000 -0.250000
v -0.166667 0.000000 -0.166667
v -0.166667 0.083333 -0.083333
v -0.166667 0.000000 -0.083333
v -0.166667 0.083333 0.000000
v -0.166667 0.000000 0.000000
v -0.166667 0.083333 0.083333
v -0.166667 0.000000 0.083333
v -0.166667 0.083333 0.166667
v -0.166667 0.000000 0.166667
v -0.250000 0.000000 0.250000
v -0.250000 0.083333 0.250000
v -0.166667 0.083333 0.250000
v -0.166667 0.000000 0.250000
v -0.166667 0.250000 -0.250000
v -0.166667 0.250000 -0.333333
v -0.166667 0.166667 -0.333333
v -0.166667 0.166667 -0.250000
v -0.166667 0.250000 -0.166667
v -0.166667 0.166667 -0.166667
v -0.166667 0.250000 -0.083333
v -0.166667 0.166667 -0.083333
v -0.166667 0.250000 0.000000
v -0.166667 0.166667 0.000000
v -0.166667 0.250000 0.083333
v -0.166667 0.166667 0.083333
v -0.166667 0.250000 0.166667
v -0.166667 0.166667 0.166667
v -0.166667 0.250000 0.250000
v -0.166667 0.166667 0.250000
v -0.166667 0.250000 0.333333
v -0.166667 0.166667 0.333333
v -0.166667 0.500000 -0.250000
v -0.166667 0.500000 -0.333333
v -0.166667 0.416667 -0.333333
v -0.166667 0.416667 -0.250000
v -0.166667 0.500000 -0.166667
v -0.166667 0.416667 -0.166667
v -0.166667 0.500000 -0.083333
v -0.166667 0.416667 -0.083333
v -0.166667 0.500000 0.000000
v -0.166667 0.416667 0.000000
v -0.166667 0.500000 0.083333
v -0.166667 0.416667 0.083333
v -0.166667 0.500000 0.166667
v -0.166667 0.416667 0.166667
v -0.166667 0.500000 0.250000
v -0.166667 0.416667 0.250000
v -0.166667 0.500000 0.333333
v -0.166667 0.416667 0.333333
v -0.166667 0.000000 -0.333333
v -0.166667 0.083333 -0.333333
v -0.083333 0.083333 -0.250000
v -0.083333 0.083333 -0.333333
v -0.083333 0.000000 -0.333333
v -0.083333 0.000000 -0.250000
v -0.083333 0.083333 -0.166667
v -0.083333 0.000000 -0.166667
v -0.083333 0.083333 -0.083333
v -0.083333 0.000000 -0.083333
v -0.083333 0.000000 0.000000
v -0.083333 0.000000 0.083333
v -0.083333 0.083333 0.166667
v -0.083333 0.083333 0.083333
v -0.083333 0.000000 0.166667
v -0.083333 0.083333 0.250000
v -0.083333 0.000000 0.250000
v -0.166667 0.000000 0.333333
v -0.166667 0.083333 0.333333
v -0.083333 0.083333 0.333333
v -0.083333 0.000000 0.333333
v -0.166667 0.083333 -0.083333
v -0.166667 0.083333 0.000000
v -0.166667 0.166667 0.000000
v -0.166667 0.166667 -0.083333
v -0.083333 0.166667 -0.083333
v -0.083333 0.083333 -0.083333
v -0.166667 0.083333 0.083333
v -0.166667 0.166667 0.083333
v -0.083333 0.083333 0.083333
v -0.083333 0.166667 0.083333
v -0.166667 0.166667 -0.416667
v -0.166667 0.250000 -0.416667
v -0.083333 0.250000 -0.333333
v -0.083333 0.250000 -0.416667
v -0.083333 0.166667 -0.416667
v -0.083333 0.166667 -0.333333
v -0.083333 0.250000 -0.250000
v -0.083333 0.166667 -0.250000
v -0.083333 0.250000 -0.166667
v -0.083333 0.166667 -0.166667
v -0.083333 0.250000 -0.083333
v -0.083333 0.166667 -0.083333
v -0.083333 0.250000 0.166667
v -0.083333 0.250000 0.083333
v -0.083333 0.166667 0.083333
v -0.083333 0.166667 0.166667
v -0.083333 0.250000 0.250000
v -0.083333 0.166667 0.250000
v -0.083333 0.250000 0.333333
v -0.083333 0.166667 0.333333
v -0.166667 0.166667 0.416667
v -0.166667 0.250000 0.416667
v -0.083333 0.250000 0.416667
v -0.083333 0.166667 0.416667
v -0.166667 0.250000 -0.083333
v -0.166667 0.250000 0.000000
v -0.166667 0.333333 0.000000
v -0.166667 0.333333 -0.083333
v -0.083333 0.333333 0.000000
v -0.083333 0.333333 -0.083333
v -0.083333 0.250000 -0.083333
v -0.166667 0.250000 0.083333
v -0.166667 0.333333 0.083333
v -0.083333 0.333333 0.083333
v -0.083333 0.250000 0.083333
v -0.166667 0.416667 -0.416667
v -0.166667 0.500000 -0.416667
v -0.083333 0.500000 -0.333333
v -0.083333 0.500000 -0.416667
v -0.083333 0.416667 -0.416667
v -0.083333 0.416667 -0.333333
v -0.083333 0.500000 -0.250000
v -0.083333 0.416667 -0.250000
v -0.083333 0.500000 -0.166667
v -0.083333 0.416667 -0.166667
v -0.083333 0.500000 -0.083333
v -0.083333 0.416667 -0.083333
v -0.083333 0.416667 0.000000
v -0.083333 0.416667 0.083333
v -0.083333 0.500000 0.166667
v -0.083333 0.500000 0.083333
v -0.083333 0.416667 0.166667
v -0.083333 0.500000 0.250000
v -0.083333 0.416667 0.250000
v -0.083333 0.500000 0.333333
v -0.083333 0.416667 0.333333
v -0.166667 0.416667 0.416667
v -0.166667 0.500000 0.416667
v -0.083333 0.500000 0.416667
v -0.083333 0.416667 0.416667
v -0.166667 0.500000 -0.083333
v -0.166667 0.500000 0.000000
v -0.166667 0.583333 0.000000
v -0.166667 0.583333 -0.083333
v -0.083333 0.583333 -0.083333
v -0.083333 0.500000 -0.083333
v -0.166667 0.500000 0.083333
v -0.166667 0.583333 0.083333
v -0.083333 0.500000 0.083333
v -0.083333 0.583333 0.083333
v -0.166667 0.666667 0.000000
v -0.166667 0.666667 -0.083333
v -0.083333 0.666667 0.000000
v -0.083333 0.666667 -0.083333
v -0.166667 0.666667 0.083333
v -0.083333 0.666667 0.083333
v -0.166667 0.750000 -0.083333
v -0.166667 0.750000 0.000000
v -0.166667 0.833333 0.000000
v -0.166667 0.833333 -0.083333
v -0.083333 0.750000 -0.083333
v -0.083333 0.750000 0.000000
v -0.083333 0.833333 -0.083333
v -0.166667 0.750000 0.083333
v -0.166667 0.833333 0.083333
v -0.083333 0.750000 0.083333
v -0.083333 0.833333 0.083333
v -0.166667 0.916667 0.000000
v -0.166667 0.916667 -0.083333
v -0.083333 0.916667 0.000000
v -0.083333 0.916667 -0.083333
v -0.166667 0.916667 0.083333
v -0.083333 0.916667 0.083333
v -0.083333 0.000000 -0.416667
v -0.083333 0.083333 -0.416667
v 0.000000 0.083333 -0.333333
v 0.000000 0.083333 -0.416667
v 0.000000 0.000000 -0.416667
v 0.000000 0.000000 -0.333333
v 0.000000 0.083333 -0.250000
v 0.000000 0.000000 -0.250000
v 0.000000 0.083333 -0.166667
v 0.000000 0.000000 -0.166667
v 0.000000 0.000000 -0.083333
v 0.000000 0.000000 0.000000
v 0.000000 0.000000 0.083333
v 0.000000 0.000000 0.166667
v 0.000000 0.083333 0.250000
v 0.000000 0.083333 0.166667
v 0.000000 0.000000 0.250000
v 0.000000 0.083333 0.333333
v 0.000000 0.000000 0.333333
v -0.083333 0.000000 0.416667
v -0.083333 0.083333 0.416667
v 0.000000 0.083333 0.416667
v 0.000000 0.000000 0.416667
v -0.083333 0.083333 -0.166667
v -0.083333 0.166667 -0.166667
v 0.000000 0.166667 -0.166667
v 0.000000 0.083333 -0.166667
v -0.083333 0.083333 0.166667
v -0.083333 0.166667 0.166667
v 0.000000 0.083333 0.166667
v 0.000000 0.166667 0.166667
v 0.000000 0.250000 -0.333333
v 0.000000 0.250000 -0.416667
v 0.000000 0.166667 -0.416667
v 0.000000 0.166667 -0.333333
v 0.000000 0.250000 -0.250000
v 0.000000 0.166667 -0.250000
v 0.000000 0.250000 -0.166667
v 0.000000 0.166667 -0.166667
v 0.000000 0.250000 0.250000
v 0.000000 0.250000 0.166667
v 0.000000 0.166667 0.166667
v 0.000000 0.166667 0.250000
v 0.000000 0.250000 0.333333
v 0.000000 0.166667 0.333333
v 0.000000 0.250000 0.416667
v 0.000000 0.166667 0.416667
v -0.083333 0.250000 -0.166667
v -0.083333 0.333333 -0.166667
v 0.000000 0.333333 -0.083333
v 0.000000 0.333333 -0.166667
v 0.000000 0.250000 -0.166667
v 0.000000 0.333333 0.000000
v 0.000000 0.333333 0.083333
v -0.083333 0.250000 0.166667
v -0.083333 0.333333 0.166667
v 0.000000 0.333333 0.166667
v 0.000000 0.250000 0.166667
v 0.000000 0.500000 -0.333333
v 0.000000 0.500000 -0.416667
v 0.000000 0.416667 -0.416667
v 0.000000 0.416667 -0.333333
v 0.000000 0.500000 -0.250000
v 0.000000 0.416667 -0.250000
v 0.000000 0.500000 -0.166667
v 0.000000 0.416667 -0.166667
v 0.000000 0.416667 -0.083333
v 0.000000 0.416667 0.000000
v 0.000000 0.416667 0.083333
v 0.000000 0.416667 0.166667
v 0.000000 0.500000 0.250000
v 0.000000 0.500000 0.166667
v 0.000000 0.416667 0.250000
v 0.000000 0.500000 0.333333
v 0.000000 0.416667 0.333333
v 0.000000 0.500000 0.416667
v 0.000000 0.416667 0.416667
v -0.083333 0.500000 -0.166667
v -0.083333 0.583333 -0.166667
v 0.000000 0.583333 -0.166667
v 0.000000 0.500000 -0.166667
v -0.083333 0.500000 0.166667
v -0.083333 0.583333 0.166667
v 0.000000 0.500000 0.166667
v 0.000000 0.583333 0.166667
v -0.083333 0.666667 -0.166667
v 0.000000 0.666667 -0.083333
v 0.000000 0.666667 -0.166667
v 0.000000 0.666667 0.000000
v 0.000000 0.666667 0.083333
v -0.083333 0.666667 0.166667
v 0.000000 0.666667 0.166667
v -0.083333 0.750000 -0.166667
v -0.083333 0.833333 -0.166667
v 0.000000 0.750000 -0.166667
v 0.000000 0.750000 -0.083333
v 0.000000 0.833333 -0.166667
v 0.000000 0.750000 0.000000
v 0.000000 0.750000 0.083333
v -0.083333 0.750000 0.166667
v -0.083333 0.833333 0.166667
v 0.000000 0.750000 0.166667
v 0.000000 0.833333 0.166667
v -0.083333 0.916667 -0.166667
v 0.000000 0.916667 -0.083333
v 0.000000 0.916667 -0.166667
v -0.083333 0.916667 0.166667
v 0.000000 0.916667 0.166667
v 0.000000 0.916667 0.083333
v -0.083333 0.916667 -0.083333
v -0.083333 0.916667 0.000000
v -0.083333 1.000000 0.000000
v -0.083333 1.000000 -0.083333
v 0.000000 1.000000 0.000000
v 0.000000 1.000000 -0.083333
v 0.000000 0.916667 -0.083333
v -0.083333 0.916667 0.083333
v -0.083333 1.000000 0.083333
v 0.000000 1.000000 0.083333
v 0.000000 0.916667 0.083333
v 0.083333 0.083333 -0.333333
v 0.083333 0.083333 -0.416667
v 0.083333 0.000000 -0.416667
v 0.083333 0.000000 -0.333333
v 0.083333 0.083333 -0.250000
v 0.083333 0.000000 -0.250000
v 0.083333 0.083333 -0.166667
v 0.083333 0.000000 -0.166667
v 0.083333 0.000000 -0.083333
v 0.083333 0.000000 0.000000
v 0.083333 0.000000 0.083333
v 0.083333 0.000000 0.166667
v 0.083333 0.083333 0.250000
v 0.083333 0.083333 0.166667
v 0.083333 0.000000 0.250000
v 0.083333 0.083333 0.333333
v 0.083333 0.000000 0.333333
v 0.083333 0.083333 0.416667
v 0.083333 0.000000 0.416667
v 0.083333 0.083333 -0.166667
v 0.083333 0.166667 -0.166667
v 0.083333 0.166667 -0.083333
v 0.083333 0.083333 -0.083333
v 0.083333 0.083333 0.083333
v 0.083333 0.166667 0.083333
v 0.083333 0.166667 0.166667
v 0.083333 0.083333 0.166667
v 0.083333 0.250000 -0.333333
v 0.083333 0.250000 -0.416667
v 0.083333 0.166667 -0.416667
v 0.083333 0.166667 -0.333333
v 0.083333 0.250000 -0.250000
v 0.083333 0.166667 -0.250000
v 0.083333 0.250000 -0.166667
v 0.083333 0.166667 -0.166667
v 0.083333 0.250000 0.250000
v 0.083333 0.250000 0.166667
v 0.083333 0.166667 0.166667
v 0.083333 0.166667 0.250000
v 0.083333 0.250000 0.333333
v 0.083333 0.166667 0.333333
v 0.083333 0.250000 0.416667
v 0.083333 0.166667 0.416667
v 0.083333 0.250000 -0.166667
v 0.083333 0.333333 -0.166667
v 0.083333 0.333333 -0.083333
v 0.083333 0.250000 -0.083333
v 0.083333 0.333333 0.000000
v 0.083333 0.333333 0.083333
v 0.083333 0.250000 0.083333
v 0.083333 0.333333 0.166667
v 0.083333 0.250000 0.166667
v 0.083333 0.500000 -0.333333
v 0.083333 0.500000 -0.416667
v 0.083333 0.416667 -0.416667
v 0.083333 0.416667 -0.333333
v 0.083333 0.500000 -0.250000
v 0.083333 0.416667 -0.250000
v 0.083333 0.500000 -0.166667
v 0.083333 0.416667 -0.166667
v 0.083333 0.416667 -0.083333
v 0.083333 0.416667 0.000000
v 0.083333 0.416667 0.083333
v 0.083333 0.416667 0.166667
v 0.083333 0.500000 0.250000
v 0.083333 0.500000 0.166667
v 0.083333 0.416667 0.250000
v 0.083333 0.500000 0.333333
v 0.083333 0.416667 0.333333
v 0.083333 0.500000 0.416667
v 0.083333 0.416667 0.416667
v 0.083333 0.500000 -0.166667
v 0.083333 0.583333 -0.166667
v 0.083333 0.583333 -0.083333
v 0.083333 0.500000 -0.083333
v 0.083333 0.500000 0.083333
v 0.083333 0.583333 0.083333
v 0.083333 0.583333 0.166667
v 0.083333 0.500000 0.166667
v 0.083333 0.666667 -0.166667
v 0.083333 0.666667 -0.083333
v 0.083333 0.666667 0.000000
v 0.083333 0.666667 0.083333
v 0.083333 0.666667 0.166667
v 0.083333 0.750000 -0.166667
v 0.083333 0.833333 -0.166667
v 0.083333 0.833333 -0.083333
v 0.083333 0.750000 -0.083333
v 0.083333 0.750000 0.000000
v 0.083333 0.750000 0.083333
v 0.083333 0.833333 0.083333
v 0.083333 0.833333 0.166667
v 0.083333 0.750000 0.166667
v 0.083333 0.916667 -0.166667
v 0.083333 0.916667 -0.083333
v 0.083333 0.916667 0.083333
v 0.083333 0.916667 0.166667
v 0.083333 0.916667 -0.083333
v 0.083333 1.000000 -0.083333
v 0.083333 1.000000 0.000000
v 0.083333 0.916667 0.000000
v 0.083333 1.000000 0.083333
v 0.083333 0.916667 0.083333
v 0.166667 0.000000 -0.416667
v 0.166667 0.083333 -0.416667
v 0.166667 0.083333 -0.333333
v 0.166667 0.000000 -0.333333
v 0.166667 0.083333 -0.250000
v 0.166667 0.000000 -0.250000
v 0.166667 0.083333 -0.166667
v 0.166667 0.000000 -0.166667
v 0.083333 0.083333 -0.083333
v 0.166667 0.083333 -0.083333
v 0.166667 0.000000 -0.083333
v 0.166667 0.000000 0.000000
v 0.166667 0.000000 0.083333
v 0.083333 0.083333 0.083333
v 0.166667 0.083333 0.166667
v 0.166667 0.083333 0.083333
v 0.166667 0.000000 0.166667
v 0.166667 0.083333 0.250000
v 0.166667 0.000000 0.250000
v 0.166667 0.083333 0.333333
v 0.166667 0.000000 0.333333
v 0.166667 0.083333 0.416667
v 0.166667 0.000000 0.416667
v 0.166667 0.083333 -0.083333
v 0.166667 0.166667 -0.083333
v 0.166667 0.166667 0.000000
v 0.166667 0.083333 0.000000
v 0.166667 0.166667 0.083333
v 0.166667 0.083333 0.083333
v 0.166667 0.166667 -0.416667
v 0.166667 0.250000 -0.416667
v 0.166667 0.250000 -0.333333
v 0.166667 0.166667 -0.333333
v 0.166667 0.250000 -0.250000
v 0.166667 0.166667 -0.250000
v 0.166667 0.250000 -0.166667
v 0.166667 0.166667 -0.166667
v 0.083333 0.250000 -0.083333
v 0.166667 0.250000 -0.083333
v 0.166667 0.166667 -0.083333
v 0.083333 0.166667 -0.083333
v 0.083333 0.250000 0.083333
v 0.166667 0.250000 0.166667
v 0.166667 0.250000 0.083333
v 0.083333 0.166667 0.083333
v 0.166667 0.166667 0.083333
v 0.166667 0.166667 0.166667
v 0.166667 0.250000 0.250000
v 0.166667 0.166667 0.250000
v 0.166667 0.250000 0.333333
v 0.166667 0.166667 0.333333
v 0.166667 0.250000 0.416667
v 0.166667 0.166667 0.416667
v 0.166667 0.250000 -0.083333
v 0.166667 0.333333 -0.083333
v 0.166667 0.333333 0.000000
v 0.166667 0.250000 0.000000
v 0.166667 0.333333 0.083333
v 0.166667 0.250000 0.083333
v 0.166667 0.416667 -0.416667
v 0.166667 0.500000 -0.416667
v 0.166667 0.500000 -0.333333
v 0.166667 0.416667 -0.333333
v 0.166667 0.500000 -0.250000
v 0.166667 0.416667 -0.250000
v 0.166667 0.500000 -0.166667
v 0.166667 0.416667 -0.166667
v 0.083333 0.500000 -0.083333
v 0.166667 0.500000 -0.083333
v 0.166667 0.416667 -0.083333
v 0.166667 0.416667 0.000000
v 0.166667 0.416667 0.083333
v 0.083333 0.500000 0.083333
v 0.166667 0.500000 0.166667
v 0.166667 0.500000 0.083333
v 0.166667 0.416667 0.166667
v 0.166667 0.500000 0.250000
v 0.166667 0.416667 0.250000
v 0.166667 0.500000 0.333333
v 0.166667 0.416667 0.333333
v 0.166667 0.500000 0.416667
v 0.166667 0.416667 0.416667
v 0.166667 0.500000 -0.083333
v 0.166667 0.583333 -0.083333
v 0.166667 0.583333 0.000000
v 0.166667 0.500000 0.000000
v 0.166667 0.583333 0.083333
v 0.166667 0.500000 0.083333
v 0.166667 0.666667 -0.083333
v 0.166667 0.666667 0.000000
v 0.166667 0.666667 0.083333
v 0.166667 0.750000 -0.083333
v 0.166667 0.833333 -0.083333
v 0.166667 0.833333 0.000000
v 0.166667 0.750000 0.000000
v 0.166667 0.833333 0.083333
v 0.166667 0.750000 0.083333
v 0.166667 0.916667 -0.083333
v 0.166667 0.916667 0.000000
v 0.083333 0.916667 0.000000
v 0.166667 0.916667 0.083333
v 0.250000 0.083333 -0.250000
v 0.250000 0.083333 -0.333333
v 0.250000 0.000000 -0.333333
v 0.250000 0.000000 -0.250000
v 0.250000 0.083333 -0.166667
v 0.250000 0.000000 -0.166667
v 0.250000 0.083333 -0.083333
v 0.250000 0.000000 -0.083333
v 0.166667 0.083333 0.000000
v 0.250000 0.083333 0.000000
v 0.250000 0.000000 0.000000
v 0.250000 0.083333 0.083333
v 0.250000 0.000000 0.083333
v 0.250000 0.083333 0.166667
v 0.250000 0.000000 0.166667
v 0.250000 0.083333 0.250000
v 0.250000 0.000000 0.250000
v 0.250000 0.083333 0.333333
v 0.250000 0.000000 0.333333
v 0.250000 0.250000 -0.250000
v 0.250000 0.250000 -0.333333
v 0.250000 0.166667 -0.333333
v 0.250000 0.166667 -0.250000
v 0.250000 0.250000 -0.166667
v 0.250000 0.166667 -0.166667
v 0.250000 0.250000 -0.083333
v 0.250000 0.166667 -0.083333
v 0.166667 0.250000 0.000000
v 0.250000 0.250000 0.000000
v 0.250000 0.166667 0.000000
v 0.166667 0.166667 0.000000
v 0.250000 0.250000 0.083333
v 0.250000 0.166667 0.083333
v 0.250000 0.250000 0.166667
v 0.250000 0.166667 0.166667
v 0.250000 0.250000 0.250000
v 0.250000 0.166667 0.250000
v 0.250000 0.250000 0.333333
v 0.250000 0.166667 0.333333
v 0.250000 0.500000 -0.250000
v 0.250000 0.500000 -0.333333
v 0.250000 0.416667 -0.333333
v 0.250000 0.416667 -0.250000
v 0.250000 0.500000 -0.166667
v 0.250000 0.416667 -0.166667
v 0.250000 0.500000 -0.083333
v 0.250000 0.416667 -0.083333
v 0.166667 0.500000 0.000000
v 0.250000 0.500000 0.000000
v 0.250000 0.416667 0.000000
v 0.250000 0.500000 0.083333
v 0.250000 0.416667 0.083333
v 0.250000 0.500000 0.166667
v 0.250000 0.416667 0.166667
v 0.250000 0.500000 0.250000
v 0.250000 0.416667 0.250000
v 0.250000 0.500000 0.333333
v 0.250000 0.416667 0.333333
v 0.333333 0.000000 -0.333333
v 0.333333 0.083333 -0.333333
v 0.333333 0.083333 -0.250000
v 0.333333 0.000000 -0.250000
v 0.333333 0.083333 -0.166667
v 0.333333 0.000000 -0.166667
v 0.333333 0.083333 -0.083333
v 0.333333 0.000000 -0.083333
v 0.333333 0.083333 0.000000
v 0.333333 0.000000 0.000000
v 0.333333 0.083333 0.083333
v 0.333333 0.000000 0.083333
v 0.333333 0.083333 0.166667
v 0.333333 0.000000 0.166667
v 0.333333 0.083333 0.250000
v 0.333333 0.000000 0.250000
v 0.333333 0.083333 0.333333
v 0.333333 0.000000 0.333333
v 0.333333 0.166667 -0.333333
v 0.333333 0.250000 -0.333333
v 0.333333 0.250000 -0.250000
v 0.333333 0.166667 -0.250000
v 0.333333 0.250000 -0.166667
v 0.333333 0.166667 -0.166667
v 0.333333 0.250000 -0.083333
v 0.333333 0.166667 -0.083333
v 0.333333 0.250000 0.000000
v 0.333333 0.166667 0.000000
v 0.333333 0.250000 0.083333
v 0.333333 0.166667 0.083333
v 0.333333 0.250000 0.166667
v 0.333333 0.166667 0.166667
v 0.333333 0.250000 0.250000
v 0.333333 0.166667 0.250000
v 0.333333 0.250000 0.333333
v 0.333333 0.166667 0.333333
v 0.333333 0.416667 -0.333333
v 0.333333 0.500000 -0.333333
v 0.333333 0.500000 -0.250000
v 0.333333 0.416667 -0.250000
v 0.333333 0.500000 -0.166667
v 0.333333 0.416667 -0.166667
v 0.333333 0.500000 -0.083333
v 0.333333 0.416667 -0.083333
v 0.333333 0.500000 0.000000
v 0.333333 0.416667 0.000000
v 0.333333 0.500000 0.083333
v 0.333333 0.416667 0.083333
v 0.333333 0.500000 0.166667
v 0.333333 0.416667 0.166667
v 0.333333 0.500000 0.250000
v 0.333333 0.416667 0.250000
v 0.333333 0.500000 0.333333
v 0.333333 0.416667 0.333333
v 0.416667 0.000000 -0.250000
v 0.416667 0.083333 -0.250000
v 0.416667 0.083333 -0.166667
v 0.416667 0.000000 -0.166667
v 0.416667 0.083333 -0.083333
v 0.416667 0.000000 -0.083333
v 0.416667 0.083333 0.000000
v 0.416667 0.000000 0.000000
v 0.416667 0.083333 0.083333
v 0.416667 0.000000 0.083333
v 0.416667 0.083333 0.166667
v 0.416667 0.000000 0.166667
v 0.416667 0.083333 0.250000
v 0.416667 0.000000 0.250000
v 0.416667 0.166667 -0.166667
v 0.416667 0.250000 -0.166667
v 0.416667 0.250000 -0.083333
v 0.416667 0.166667 -0.083333
v 0.416667 0.250000 0.000000
v 0.416667 0.166667 0.000000
v 0.416667 0.250000 0.083333
v 0.416667 0.166667 0.083333
v 0.416667 0.250000 0.166667
v 0.416667 0.166667 0.166667
v 0.416667 0.416667 -0.166667
v 0.416667 0.500000 -0.166667
v 0.416667 0.500000 -0.083333
v 0.416667 0.416667 -0.083333
v 0.416667 0.500000 0.000000
v 0.416667 0.416667 0.000000
v 0.416667 0.500000 0.083333
v 0.416667 0.416667 0.083333
v 0.416667 0.500000 0.166667
v 0.416667 0.416667 0.166667
vt 0.416667 0.166667
vt 0.416667 0.166667
vt 0.416667 0.250000
vt 0.416667 0.250000
vt 0.416667 0.250000
vt 0.416667 0.250000
vt 0.416667 0.166667
vt 0.416667 0.166667
vt 0.416667 0.166667
vt 0.416667 0.250000
vt 0.416667 0.250000
vt 0.416667 0.166667
vt 0.416667 0.166667
vt 0.416667 0.250000
vt 0.416667 0.250000
vt 0.416667 0.166667
vt 0.416667 0.166667
vt 0.416667 0.250000
vt 0.416667 0.250000
vt 0.416667 0.166667
vt 0.041667 0.333333
vt 0.041667 0.416667
vt 0.041667 0.416667
vt 0.041667 0.333333
vt 0.041667 0.333333
vt 0.041667 0.333333
vt 0.041667 0.416667
vt 0.041667 0.416667
vt 0.041667 0.416667
vt 0.041667 0.333333
vt 0.041667 0.333333
vt 0.041667 0.416667
vt 0.416667 0.416667
vt 0.416667 0.416667
vt 0.416667 0.500000
vt 0.416667 0.500000
vt 0.416667 0.500000
vt 0.416667 0.500000
vt 0.416667 0.416667
vt 0.416667 0.416667
vt 0.416667 0.416667
vt 0.416667 0.500000
vt 0.416667 0.500000
vt 0.416667 0.416667
vt 0.416667 0.500000
vt 0.416667 0.500000
vt 0.416667 0.416667
vt 0.416667 0.500000
vt 0.416667 0.500000
vt 0.416667 0.416667
vt 0.416667 0.416667
vt 0.041667 0.666667
vt 0.041667 0.750000
vt 0.041667 0.750000
vt 0.041667 0.666667
vt 0.041667 0.666667
vt 0.041667 0.666667
vt 0.041667 0.750000
vt 0.041667 0.750000
vt 0.041667 0.750000
vt 0.041667 0.666667
vt 0.041667 0.666667
vt 0.041667 0.750000
vt 0.386905 0.000000
vt 0.386905 0.000000
vt 0.386905 0.083333
vt 0.386905 0.083333
vt 0.386905 0.083333
vt 0.386905 0.083333
vt 0.386905 0.000000
vt 0.386905 0.000000
vt 0.386905 0.000000
vt 0.386905 0.083333
vt 0.386905 0.083333
vt 0.386905 0.000000
vt 0.386905 0.000000
vt 0.386905 0.083333
vt 0.386905 0.083333
vt 0.386905 0.000000
vt 0.386905 0.000000
vt 0.386905 0.083333
vt 0.386905 0.083333
vt 0.386905 0.000000
vt 0.416667 0.166667
vt 0.416667 0.166667
vt 0.416667 0.250000
vt 0.416667 0.250000
vt 0.416667 0.250000
vt 0.416667 0.250000
vt 0.416667 0.166667
vt 0.416667 0.166667
vt 0.416667 0.250000
vt 0.416667 0.166667
vt 0.416667 0.250000
vt 0.416667 0.166667
vt 0.416667 0.250000
vt 0.416667 0.166667
vt 0.416667 0.250000
vt 0.416667 0.166667
vt 0.416667 0.250000
vt 0.416667 0.166667
vt 0.416667 0.166667
vt 0.416667 0.250000
vt 0.416667 0.250000
vt 0.416667 0.166667
vt 0.416667 0.166667
vt 0.416667 0.250000
vt 0.416667 0.250000
vt 0.416667 0.166667
vt 0.416667 0.416667
vt 0.416667 0.416667
vt 0.416667 0.500000
vt 0.416667 0.500000
vt 0.416667 0.500000
vt 0.416667 0.500000
vt 0.416667 0.416667
vt 0.416667 0.416667
vt 0.416667 0.500000
vt 0.416667 0.416667
vt 0.416667 0.500000
vt 0.416667 0.416667
vt 0.416667 0.500000
vt 0.416667 0.416667
vt 0.416667 0.416667
vt 0.416667 0.500000
vt 0.416667 0.416667
vt 0.416667 0.500000
vt 0.416667 0.416667
vt 0.416667 0.416667
vt 0.416667 0.500000
vt 0.416667 0.500000
vt 0.416667 0.416667
vt 0.416667 0.416667
vt 0.416667 0.500000
vt 0.416667 0.500000
vt 0.416667 0.416667
vt 0.386905 0.000000
vt 0.386905 0.083333
vt 0.386905 0.083333
vt 0.386905 0.083333
vt 0.386905 0.000000
vt 0.386905 0.000000
vt 0.386905 0.083333
vt 0.386905 0.000000
vt 0.386905 0.083333
vt 0.386905 0.000000
vt 0.386905 0.083333
vt 0.386905 0.000000
vt 0.386905 0.083333
vt 0.386905 0.000000
vt 0.386905 0.000000
vt 0.386905 0.083333
vt 0.386905 0.083333
vt 0.386905 0.000000
vt 0.416667 0.250000
vt 0.416667 0.250000
vt 0.416667 0.166667
vt 0.416667 0.166667
vt 0.416667 0.250000
vt 0.416667 0.166667
vt 0.416667 0.250000
vt 0.416667 0.166667
vt 0.416667 0.250000
vt 0.416667 0.166667
vt 0.416667 0.250000
vt 0.416667 0.166667
vt 0.416667 0.250000
vt 0.416667 0.166667
vt 0.416667 0.250000
vt 0.416667 0.166667
vt 0.416667 0.250000
vt 0.416667 0.166667
vt 0.416667 0.500000
vt 0.416667 0.500000
vt 0.416667 0.416667
vt 0.416667 0.416667
vt 0.416667 0.500000
vt 0.416667 0.416667
vt 0.416667 0.500000
vt 0.416667 0.416667
vt 0.416667 0.500000
vt 0.416667 0.416667
vt 0.416667 0.500000
vt 0.416667 0.416667
vt 0.416667 0.500000
vt 0.416667 0.416667
vt 0.416667 0.500000
vt 0.416667 0.416667
vt 0.416667 0.500000
vt 0.416667 0.416667
vt 0.386905 0.000000
vt 0.386905 0.083333
vt 0.386905 0.083333
vt 0.386905 0.083333
vt 0.386905 0.000000
vt 0.386905 0.000000
vt 0.386905 0.083333
vt 0.386905 0.000000
vt 0.386905 0.083333
vt 0.386905 0.000000
vt 0.386905 0.000000
vt 0.386905 0.000000
vt 0.386905 0.083333
vt 0.386905 0.083333
vt 0.386905 0.000000
vt 0.386905 0.083333
vt 0.386905 0.000000
vt 0.386905 0.000000
vt 0.386905 0.083333
vt 0.386905 0.083333
vt 0.386905 0.000000
vt 0.166667 0.083333
vt 0.166667 0.083333
vt 0.166667 0.166667
vt 0.166667 0.166667
vt 0.166667 0.166667
vt 0.166667 0.083333
vt 0.166667 0.083333
vt 0.166667 0.166667
vt 0.166667 0.083333
vt 0.166667 0.166667
vt 0.416667 0.166667
vt 0.416667 0.250000
vt 0.416667 0.250000
vt 0.416667 0.250000
vt 0.416667 0.166667
vt 0.416667 0.166667
vt 0.416667 0.250000
vt 0.416667 0.166667
vt 0.416667 0.250000
vt 0.416667 0.166667
vt 0.416667 0.250000
vt 0.416667 0.166667
vt 0.416667 0.250000
vt 0.416667 0.250000
vt 0.416667 0.166667
vt 0.416667 0.166667
vt 0.416667 0.250000
vt 0.416667 0.166667
vt 0.416667 0.250000
vt 0.416667 0.166667
vt 0.416667 0.166667
vt 0.416667 0.250000
vt 0.416667 0.250000
vt 0.416667 0.166667
vt 0.166667 0.250000
vt 0.166667 0.250000
vt 0.166667 0.333333
vt 0.166667 0.333333
vt 0.166667 0.333333
vt 0.166667 0.333333
vt 0.166667 0.250000
vt 0.166667 0.250000
vt 0.166667 0.333333
vt 0.166667 0.333333
vt 0.166667 0.250000
vt 0.416667 0.416667
vt 0.416667 0.500000
vt 0.416667 0.500000
vt 0.416667 0.500000
vt 0.416667 0.416667
vt 0.416667 0.416667
vt 0.416667 0.500000
vt 0.416667 0.416667
vt 0.416667 0.500000
vt 0.416667 0.416667
vt 0.416667 0.500000
vt 0.416667 0.416667
vt 0.416667 0.416667
vt 0.416667 0.416667
vt 0.416667 0.500000
vt 0.416667 0.500000
vt 0.416667 0.416667
vt 0.416667 0.500000
vt 0.416667 0.416667
vt 0.416667 0.500000
vt 0.416667 0.416667
vt 0.416667 0.416667
vt 0.416667 0.500000
vt 0.416667 0.500000
vt 0.416667 0.416667
vt 0.166667 0.500000
vt 0.166667 0.500000
vt 0.166667 0.583333
vt 0.166667 0.583333
vt 0.166667 0.583333
vt 0.166667 0.500000
vt 0.166667 0.500000
vt 0.166667 0.583333
vt 0.166667 0.500000
vt 0.166667 0.583333
vt 0.166667 0.666667
vt 0.166667 0.666667
vt 0.166667 0.666667
vt 0.166667 0.666667
vt 0.166667 0.666667
vt 0.166667 0.666667
vt 0.166667 0.750000
vt 0.166667 0.750000
vt 0.166667 0.833333
vt 0.166667 0.833333
vt 0.166667 0.750000
vt 0.166667 0.750000
vt 0.166667 0.833333
vt 0.166667 0.750000
vt 0.166667 0.833333
vt 0.166667 0.750000
vt 0.166667 0.833333
vt 0.166667 0.916667
vt 0.166667 0.916667
vt 0.166667 0.916667
vt 0.166667 0.916667
vt 0.166667 0.916667
vt 0.166667 0.916667
vt 0.386905 0.000000
vt 0.386905 0.083333
vt 0.386905 0.083333
vt 0.386905 0.083333
vt 0.386905 0.000000
vt 0.386905 0.000000
vt 0.386905 0.083333
vt 0.386905 0.000000
vt 0.386905 0.083333
vt 0.386905 0.000000
vt 0.386905 0.000000
vt 0.386905 0.000000
vt 0.386905 0.000000
vt 0.386905 0.000000
vt 0.386905 0.083333
vt 0.386905 0.083333
vt 0.386905 0.000000
vt 0.386905 0.083333
vt 0.386905 0.000000
vt 0.386905 0.000000
vt 0.386905 0.083333
vt 0.386905 0.083333
vt 0.386905 0.000000
vt 0.166667 0.083333
vt 0.166667 0.166667
vt 0.166667 0.166667
vt 0.166667 0.083333
vt 0.166667 0.083333
vt 0.166667 0.166667
vt 0.166667 0.083333
vt 0.166667 0.166667
vt 0.416667 0.250000
vt 0.416667 0.250000
vt 0.416667 0.166667
vt 0.416667 0.166667
vt 0.416667 0.250000
vt 0.416667 0.166667
vt 0.416667 0.250000
vt 0.416667 0.166667
vt 0.416667 0.250000
vt 0.416667 0.250000
vt 0.416667 0.166667
vt 0.416667 0.166667
vt 0.416667 0.250000
vt 0.416667 0.166667
vt 0.416667 0.250000
vt 0.416667 0.166667
vt 0.166667 0.250000
vt 0.166667 0.333333
vt 0.166667 0.333333
vt 0.166667 0.333333
vt 0.166667 0.250000
vt 0.166667 0.333333
vt 0.166667 0.333333
vt 0.166667 0.250000
vt 0.166667 0.333333
vt 0.166667 0.333333
vt 0.166667 0.250000
vt 0.416667 0.500000
vt 0.416667 0.500000
vt 0.416667 0.416667
vt 0.416667 0.416667
vt 0.416667 0.500000
vt 0.416667 0.416667
vt 0.416667 0.500000
vt 0.416667 0.416667
vt 0.416667 0.416667
vt 0.416667 0.416667
vt 0.416667 0.416667
vt 0.416667 0.416667
vt 0.416667 0.500000
vt 0.416667 0.500000
vt 0.416667 0.416667
vt 0.416667 0.500000
vt 0.416667 0.416667
vt 0.416667 0.500000
vt 0.416667 0.416667
vt 0.166667 0.500000
vt 0.166667 0.583333
vt 0.166667 0.583333
vt 0.166667 0.500000
vt 0.166667 0.500000
vt 0.166667 0.583333
vt 0.166667 0.500000
vt 0.166667 0.583333
vt 0.166667 0.666667
vt 0.166667 0.666667
vt 0.166667 0.666667
vt 0.166667 0.666667
vt 0.166667 0.666667
vt 0.166667 0.666667
vt 0.166667 0.666667
vt 0.166667 0.750000
vt 0.166667 0.833333
vt 0.166667 0.750000
vt 0.166667 0.750000
vt 0.166667 0.833333
vt 0.166667 0.750000
vt 0.166667 0.750000
vt 0.166667 0.750000
vt 0.166667 0.833333
vt 0.166667 0.750000
vt 0.166667 0.833333
vt 0.166667 0.916667
vt 0.166667 0.916667
vt 0.166667 0.916667
vt 0.166667 0.916667
vt 0.166667 0.916667
vt 0.166667 0.916667
vt 0.083333 0.916667
vt 0.083333 0.916667
vt 0.083333 1.000000
vt 0.083333 1.000000
vt 0.083333 1.000000
vt 0.083333 1.000000
vt 0.083333 0.916667
vt 0.083333 0.916667
vt 0.083333 1.000000
vt 0.083333 1.000000
vt 0.083333 0.916667
vt 0.386905 0.083333
vt 0.386905 0.083333
vt 0.386905 0.000000
vt 0.386905 0.000000
vt 0.386905 0.083333
vt 0.386905 0.000000
vt 0.386905 0.083333
vt 0.386905 0.000000
vt 0.386905 0.000000
vt 0.386905 0.000000
vt 0.386905 0.000000
vt 0.386905 0.000000
vt 0.386905 0.083333
vt 0.386905 0.083333
vt 0.386905 0.000000
vt 0.386905 0.083333
vt 0.386905 0.000000
vt 0.386905 0.083333
vt 0.386905 0.000000
vt 0.166667 0.083333
vt 0.166667 0.166667
vt 0.166667 0.166667
vt 0.166667 0.083333
vt 0.166667 0.083333
vt 0.166667 0.166667
vt 0.166667 0.166667
vt 0.166667 0.083333
vt 0.416667 0.250000
vt 0.416667 0.250000
vt 0.416667 0.166667
vt 0.416667 0.166667
vt 0.416667 0.250000
vt 0.416667 0.166667
vt 0.416667 0.250000
vt 0.416667 0.166667
vt 0.416667 0.250000
vt 0.416667 0.250000
vt 0.416667 0.166667
vt 0.416667 0.166667
vt 0.416667 0.250000
vt 0.416667 0.166667
vt 0.416667 0.250000
vt 0.416667 0.166667
vt 0.166667 0.250000
vt 0.166667 0.333333
vt 0.166667 0.333333
vt 0.166667 0.250000
vt 0.166667 0.333333
vt 0.166667 0.333333
vt 0.166667 0.250000
vt 0.166667 0.333333
vt 0.166667 0.250000
vt 0.416667 0.500000
vt 0.416667 0.500000
vt 0.416667 0.416667
vt 0.416667 0.416667
vt 0.416667 0.500000
vt 0.416667 0.416667
vt 0.416667 0.500000
vt 0.416667 0.416667
vt 0.416667 0.416667
vt 0.416667 0.416667
vt 0.416667 0.416667
vt 0.416667 0.416667
vt 0.416667 0.500000
vt 0.416667 0.500000
vt 0.416667 0.416667
vt 0.416667 0.500000
vt 0.416667 0.416667
vt 0.416667 0.500000
vt 0.416667 0.416667
vt 0.166667 0.500000
vt 0.166667 0.583333
vt 0.166667 0.583333
vt 0.166667 0.500000
vt 0.166667 0.500000
vt 0.166667 0.583333
vt 0.166667 0.583333
vt 0.166667 0.500000
vt 0.166667 0.666667
vt 0.166667 0.666667
vt 0.166667 0.666667
vt 0.166667 0.666667
vt 0.166667 0.666667
vt 0.166667 0.750000
vt 0.166667 0.833333
vt 0.166667 0.833333
vt 0.166667 0.750000
vt 0.166667 0.750000
vt 0.166667 0.750000
vt 0.166667 0.833333
vt 0.166667 0.833333
vt 0.166667 0.750000
vt 0.166667 0.916667
vt 0.166667 0.916667
vt 0.166667 0.916667
vt 0.166667 0.916667
vt 0.083333 0.916667
vt 0.083333 1.000000
vt 0.083333 1.000000
vt 0.083333 0.916667
vt 0.083333 1.000000
vt 0.083333 0.916667
vt 0.386905 0.000000
vt 0.386905 0.083333
vt 0.386905 0.083333
vt 0.386905 0.000000
vt 0.386905 0.083333
vt 0.386905 0.000000
vt 0.386905 0.083333
vt 0.386905 0.000000
vt 0.386905 0.083333
vt 0.386905 0.083333
vt 0.386905 0.000000
vt 0.386905 0.000000
vt 0.386905 0.000000
vt 0.386905 0.083333
vt 0.386905 0.083333
vt 0.386905 0.083333
vt 0.386905 0.000000
vt 0.386905 0.083333
vt 0.386905 0.000000
vt 0.386905 0.083333
vt 0.386905 0.000000
vt 0.386905 0.083333
vt 0.386905 0.000000
vt 0.166667 0.083333
vt 0.166667 0.166667
vt 0.166667 0.166667
vt 0.166667 0.083333
vt 0.166667 0.166667
vt 0.166667 0.083333
vt 0.416667 0.166667
vt 0.416667 0.250000
vt 0.416667 0.250000
vt 0.416667 0.166667
vt 0.416667 0.250000
vt 0.416667 0.166667
vt 0.416667 0.250000
vt 0.416667 0.166667
vt 0.416667 0.250000
vt 0.416667 0.250000
vt 0.416667 0.166667
vt 0.416667 0.166667
vt 0.416667 0.250000
vt 0.416667 0.250000
vt 0.416667 0.250000
vt 0.416667 0.166667
vt 0.416667 0.166667
vt 0.416667 0.166667
vt 0.416667 0.250000
vt 0.416667 0.166667
vt 0.416667 0.250000
vt 0.416667 0.166667
vt 0.416667 0.250000
vt 0.416667 0.166667
vt 0.166667 0.250000
vt 0.166667 0.333333
vt 0.166667 0.333333
vt 0.166667 0.250000
vt 0.166667 0.333333
vt 0.166667 0.250000
vt 0.416667 0.416667
vt 0.416667 0.500000
vt 0.416667 0.500000
vt 0.416667 0.416667
vt 0.416667 0.500000
vt 0.416667 0.416667
vt 0.416667 0.500000
vt 0.416667 0.416667
vt 0.416667 0.500000
vt 0.416667 0.500000
vt 0.416667 0.416667
vt 0.416667 0.416667
vt 0.416667 0.416667
vt 0.416667 0.500000
vt 0.416667 0.500000
vt 0.416667 0.500000
vt 0.416667 0.416667
vt 0.416667 0.500000
vt 0.416667 0.416667
vt 0.416667 0.500000
vt 0.416667 0.416667
vt 0.416667 0.500000
vt 0.416667 0.416667
vt 0.166667 0.500000
vt 0.166667 0.583333
vt 0.166667 0.583333
vt 0.166667 0.500000
vt 0.166667 0.583333
vt 0.166667 0.500000
vt 0.166667 0.666667
vt 0.166667 0.666667
vt 0.166667 0.666667
vt 0.166667 0.750000
vt 0.166667 0.833333
vt 0.166667 0.833333
vt 0.166667 0.750000
vt 0.166667 0.833333
vt 0.166667 0.750000
vt 0.166667 0.916667
vt 0.166667 0.916667
vt 0.166667 0.916667
vt 0.166667 0.916667
vt 0.386905 0.083333
vt 0.386905 0.083333
vt 0.386905 0.000000
vt 0.386905 0.000000
vt 0.386905 0.083333
vt 0.386905 0.000000
vt 0.386905 0.083333
vt 0.386905 0.000000
vt 0.386905 0.083333
vt 0.386905 0.083333
vt 0.386905 0.000000
vt 0.386905 0.083333
vt 0.386905 0.000000
vt 0.386905 0.083333
vt 0.386905 0.000000
vt 0.386905 0.083333
vt 0.386905 0.000000
vt 0.386905 0.083333
vt 0.386905 0.000000
vt 0.416667 0.250000
vt 0.416667 0.250000
vt 0.416667 0.166667
vt 0.416667 0.166667
vt 0.416667 0.250000
vt 0.416667 0.166667
vt 0.416667 0.250000
vt 0.416667 0.166667
vt 0.416667 0.250000
vt 0.416667 0.250000
vt 0.416667 0.166667
vt 0.416667 0.166667
vt 0.416667 0.250000
vt 0.416667 0.166667
vt 0.416667 0.250000
vt 0.416667 0.166667
vt 0.416667 0.250000
vt 0.416667 0.166667
vt 0.416667 0.250000
vt 0.416667 0.166667
vt 0.416667 0.500000
vt 0.416667 0.500000
vt 0.416667 0.416667
vt 0.416667 0.416667
vt 0.416667 0.500000
vt 0.416667 0.416667
vt 0.416667 0.500000
vt 0.416667 0.416667
vt 0.416667 0.500000
vt 0.416667 0.500000
vt 0.416667 0.416667
vt 0.416667 0.500000
vt 0.416667 0.416667
vt 0.416667 0.500000
vt 0.416667 0.416667
vt 0.416667 0.500000
vt 0.416667 0.416667
vt 0.416667 0.500000
vt 0.416667 0.416667
vt 0.386905 0.000000
vt 0.386905 0.083333
vt 0.386905 0.083333
vt 0.386905 0.000000
vt 0.386905 0.083333
vt 0.386905 0.000000
vt 0.386905 0.083333
vt 0.386905 0.000000
vt 0.386905 0.083333
vt 0.386905 0.000000
vt 0.386905 0.083333
vt 0.386905 0.000000
vt 0.386905 0.083333
vt 0.386905 0.000000
vt 0.386905 0.083333
vt 0.386905 0.000000
vt 0.386905 0.083333
vt 0.386905 0.000000
vt 0.416667 0.166667
vt 0.416667 0.250000
vt 0.416667 0.250000
vt 0.416667 0.166667
vt 0.416667 0.250000
vt 0.416667 0.166667
vt 0.416667 0.250000
vt 0.416667 0.166667
vt 0.416667 0.250000
vt 0.416667 0.166667
vt 0.416667 0.250000
vt 0.416667 0.166667
vt 0.416667 0.250000
vt 0.416667 0.166667
vt 0.416667 0.250000
vt 0.416667 0.166667
vt 0.416667 0.250000
vt 0.416667 0.166667
vt 0.416667 0.416667
vt 0.416667 0.500000
vt 0.416667 0.500000
vt 0.416667 0.416667
vt 0.416667 0.500000
vt 0.416667 0.416667
vt 0.416667 0.500000
vt 0.416667 0.416667
vt 0.416667 0.500000
vt 0.416667 0.416667
vt 0.416667 0.500000
vt 0.416667 0.416667
vt 0.416667 0.500000
vt 0.416667 0.416667
vt 0.416667 0.500000
vt 0.416667 0.416667
vt 0.416667 0.500000
vt 0.416667 0.416667
vt 0.386905 0.000000
vt 0.386905 0.083333
vt 0.386905 0.083333
vt 0.386905 0.000000
vt 0.386905 0.083333
vt 0.386905 0.000000
vt 0.386905 0.083333
vt 0.386905 0.000000
vt 0.386905 0.083333
vt 0.386905 0.000000
vt 0.386905 0.083333
vt 0.386905 0.000000
vt 0.386905 0.083333
vt 0.386905 0.000000
vt 0.416667 0.166667
vt 0.416667 0.250000
vt 0.416667 0.250000
vt 0.416667 0.166667
vt 0.416667 0.250000
vt 0.416667 0.166667
vt 0.416667 0.250000
vt 0.416667 0.166667
vt 0.416667 0.250000
vt 0.416667 0.166667
vt 0.416667 0.416667
vt 0.416667 0.500000
vt 0.416667 0.500000
vt 0.416667 0.416667
vt 0.416667 0.500000
vt 0.416667 0.416667
vt 0.416667 0.500000
vt 0.416667 0.416667
vt 0.416667 0.500000
vt 0.416667 0.416667
usemtl torchpart
f 1/1 2/2 3/3
f 1/1 3/3 4/4
f 4/4 3/3 5/5
f 4/4 5/5 6/6
f 1/1 7/7 8/8
f 1/1 8/8 2/2
f 1/1 4/4 6/6
f 1/1 6/6 7/7
f 2/2 9/9 10/10
f 2/2 10/10 3/3
f 3/3 10/10 11/11
f 3/3 11/11 5/5
f 2/2 8/8 12/12
f 2/2 12/12 9/9
f 9/9 13/13 14/14
f 9/9 14/14 10/10
f 10/10 14/14 15/15
f 10/10 15/15 11/11
f 9/9 12/12 16/16
f 9/9 16/16 13/13
f 13/13 17/17 18/18
f 13/13 18/18 14/14
f 14/14 18/18 19/19
f 14/14 19/19 15/15
f 13/13 16/16 20/20
f 13/13 20/20 17/17
f 17/17 20/20 19/19
f 17/17 19/19 18/18
f 21/21 22/22 23/23
f 21/21 23/23 24/24
f 25/25 26/26 27/27
f 25/25 27/27 28/28
f 25/25 21/21 24/24
f 25/25 24/24 26/26
f 25/25 28/28 22/22
f 25/25 22/22 21/21
f 24/24 23/23 29/29
f 24/24 29/29 30/30
f 26/26 31/31 32/32
f 26/26 32/32 27/27
f 26/26 24/24 30/30
f 26/26 30/30 31/31
f 31/31 30/30 29/29
f 31/31 29/29 32/32
f 33/33 34/34 35/35
f 33/33 35/35 36/36
f 36/36 35/35 37/37
f 36/36 37/37 38/38
f 33/33 39/39 40/40
f 33/33 40/40 34/34
f 33/33 36/36 38/38
f 33/33 38/38 39/39
f 34/34 41/41 42/42
f 34/34 42/42 35/35
f 35/35 42/42 43/43
f 35/35 43/43 37/37
f 41/41 44/44 45/45
f 41/41 45/45 42/42
f 42/42 45/45 46/46
f 42/42 46/46 43/43
f 44/44 47/47 48/48
f 44/44 48/48 45/45
f 45/45 48/48 49/49
f 45/45 49/49 46/46
f 44/44 50/50 51/51
f 44/44 51/51 47/47
f 47/47 51/51 49/49
f 47/47 49/49 48/48
f 52/52 53/53 54/54
f 52/52 54/54 55/55
f 56/56 57/57 58/58
f 56/56 58/58 59/59
f 59/59 58/58 54/54
f 59/59 54/54 53/53
f 56/56 52/52 55/55
f 56/56 55/55 57/57
f 56/56 59/59 53/53
f 56/56 53/53 52/52
f 55/55 54/54 60/60
f 55/55 60/60 61/61
f 57/57 62/62 63/63
f 57/57 63/63 58/58
f 58/58 63/63 60/60
f 58/58 60/60 54/54
f 57/57 55/55 61/61
f 57/57 61/61 62/62
f 62/62 61/61 60/60
f 62/62 60/60 63/63
f 64/64 65/65 66/66
f 64/64 66/66 67/67
f 67/67 66/66 68/68
f 67/67 68/68 69/69
f 64/64 70/70 71/71
f 64/64 71/71 65/65
f 64/64 67/67 69/69
f 64/64 69/69 70/70
f 65/65 72/72 73/73
f 65/65 73/73 66/66
f 66/66 73/73 74/74
f 66/66 74/74 68/68
f 65/65 71/71 75/75
f 65/65 75/75 72/72
f 72/72 76/76 77/77
f 72/72 77/77 73/73
f 73/73 77/77 78/78
f 73/73 78/78 74/74
f 72/72 75/75 79/79
f 72/72 79/79 76/76
f 76/76 80/80 81/81
f 76/76 81/81 77/77
f 77/77 81/81 82/82
f 77/77 82/82 78/78
f 76/76 79/79 83/83
f 76/76 83/83 80/80
f 80/80 83/83 82/82
f 80/80 82/82 81/81
f 84/84 85/85 86/86
f 84/84 86/86 87/87
f 87/87 86/86 88/88
f 87/87 88/88 89/89
f 84/84 90/90 91/91
f 84/84 91/91 85/85
f 84/84 87/87 89/89
f 84/84 89/89 90/90
f 85/85 7/7 6/6
f 85/85 6/6 86/86
f 86/86 6/6 92/92
f 86/86 92/92 88/88
f 85/85 91/91 93/93
f 85/85 93/93 7/7
f 6/6 5/5 94/94
f 6/6 94/94 92/92
f 7/7 93/93 95/95
f 7/7 95/95 8/8
f 5/5 11/11 96/96
f 5/5 96/96 94/94
f 8/8 95/95 97/97
f 8/8 97/97 12/12
f 11/11 15/15 98/98
f 11/11 98/98 96/96
f 12/12 97/97 99/99
f 12/12 99/99 16/16
f 15/15 19/19 100/100
f 15/15 100/100 98/98
f 16/16 99/99 101/101
f 16/16 101/101 20/20
f 20/20 102/102 103/103
f 20/20 103/103 19/19
f 19/19 103/103 104/104
f 19/19 104/104 100/100
f 20/20 101/101 105/105
f 20/20 105/105 102/102
f 102/102 106/106 107/107
f 102/102 107/107 103/103
f 103/103 107/107 108/108
f 103/103 108/108 104/104
f 102/102 105/105 109/109
f 102/102 109/109 106/106
f 106/106 109/109 108/108
f 106/106 108/108 107/107
f 110/110 111/111 112/112
f 110/110 112/112 113/113
f 113/113 112/112 114/114
f 113/113 114/114 115/115
f 110/110 116/116 117/117
f 110/110 117/117 111/111
f 110/110 113/113 115/115
f 110/110 115/115 116/116
f 111/111 39/39 38/38
f 111/111 38/38 112/112
f 112/112 38/38 118/118
f 112/112 118/118 114/114
f 111/111 117/117 119/119
f 111/111 119/119 39/39
f 38/38 37/37 120/120
f 38/38 120/120 118/118
f 39/39 119/119 121/121
f 39/39 121/121 40/40
f 37/37 43/43 122/122
f 37/37 122/122 120/120
f 40/40 121/121 123/123
f 40/40 123/123 124/124
f 43/43 46/46 125/125
f 43/43 125/125 122/122
f 124/124 123/123 126/126
f 124/124 126/126 50/50
f 46/46 49/49 127/127
f 46/46 127/127 125/125
f 50/50 126/126 128/128
f 50/50 128/128 51/51
f 51/51 129/129 130/130
f 51/51 130/130 49/49
f 49/49 130/130 131/131
f 49/49 131/131 127/127
f 51/51 128/128 132/132
f 51/51 132/132 129/129
f 129/129 133/133 134/134
f 129/129 134/134 130/130
f 130/130 134/134 135/135
f 130/130 135/135 131/131
f 129/129 132/132 136/136
f 129/129 136/136 133/133
f 133/133 136/136 135/135
f 133/133 135/135 134/134
f 137/137 70/70 69/69
f 137/137 69/69 138/138
f 138/138 69/69 139/139
f 138/138 139/139 140/140
f 137/137 141/141 142/142
f 137/137 142/142 70/70
f 137/137 138/138 140/140
f 137/137 140/140 141/141
f 69/69 68/68 143/143
f 69/69 143/143 139/139
f 70/70 142/142 144/144
f 70/70 144/144 71/71
f 68/68 74/74 145/145
f 68/68 145/145 143/143
f 71/71 144/144 146/146
f 71/71 146/146 75/75
f 74/74 78/78 147/147
f 74/74 147/147 145/145
f 75/75 146/146 148/148
f 75/75 148/148 79/79
f 78/78 82/82 149/149
f 78/78 149/149 147/147
f 79/79 148/148 150/150
f 79/79 150/150 83/83
f 83/83 151/151 152/152
f 83/83 152/152 82/82
f 82/82 152/152 153/153
f 82/82 153/153 149/149
f 83/83 150/150 154/154
f 83/83 154/154 151/151
f 151/151 154/154 153/153
f 151/151 153/153 152/152
f 89/89 88/88 155/155
f 89/89 155/155 156/156
f 90/90 157/157 158/158
f 90/90 158/158 91/91
f 90/90 89/89 156/156
f 90/90 156/156 157/157
f 88/88 92/92 159/159
f 88/88 159/159 155/155
f 91/91 158/158 160/160
f 91/91 160/160 93/93
f 92/92 94/94 161/161
f 92/92 161/161 159/159
f 93/93 160/160 162/162
f 93/93 162/162 95/95
f 94/94 96/96 163/163
f 94/94 163/163 161/161
f 95/95 162/162 164/164
f 95/95 164/164 97/97
f 96/96 98/98 165/165
f 96/96 165/165 163/163
f 97/97 164/164 166/166
f 97/97 166/166 99/99
f 98/98 100/100 167/167
f 98/98 167/167 165/165
f 99/99 166/166 168/168
f 99/99 168/168 101/101
f 100/100 104/104 169/169
f 100/100 169/169 167/167
f 101/101 168/168 170/170
f 101/101 170/170 105/105
f 104/104 108/108 171/171
f 104/104 171/171 169/169
f 105/105 170/170 172/172
f 105/105 172/172 109/109
f 109/109 172/172 171/171
f 109/109 171/171 108/108
f 115/115 114/114 173/173
f 115/115 173/173 174/174
f 116/116 175/175 176/176
f 116/116 176/176 117/117
f 116/116 115/115 174/174
f 116/116 174/174 175/175
f 114/114 118/118 177/177
f 114/114 177/177 173/173
f 117/117 176/176 178/178
f 117/117 178/178 119/119
f 118/118 120/120 179/179
f 118/118 179/179 177/177
f 119/119 178/178 180/180
f 119/119 180/180 121/121
f 120/120 122/122 181/181
f 120/120 181/181 179/179
f 121/121 180/180 182/182
f 121/121 182/182 123/123
f 122/122 125/125 183/183
f 122/122 183/183 181/181
f 123/123 182/182 184/184
f 123/123 184/184 126/126
f 125/125 127/127 185/185
f 125/125 185/185 183/183
f 126/126 184/184 186/186
f 126/126 186/186 128/128
f 127/127 131/131 187/187
f 127/127 187/187 185/185
f 128/128 186/186 188/188
f 128/128 188/188 132/132
f 131/131 135/135 189/189
f 131/131 189/189 187/187
f 132/132 188/188 190/190
f 132/132 190/190 136/136
f 136/136 190/190 189/189
f 136/136 189/189 135/135
f 191/191 141/141 140/140
f 191/191 140/140 192/192
f 192/192 140/140 193/193
f 192/192 193/193 194/194
f 191/191 195/195 196/196
f 191/191 196/196 141/141
f 191/191 192/192 194/194
f 191/191 194/194 195/195
f 140/140 139/139 197/197
f 140/140 197/197 193/193
f 141/141 196/196 198/198
f 141/141 198/198 142/142
f 139/139 143/143 199/199
f 139/139 199/199 197/197
f 142/142 198/198 200/200
f 142/142 200/200 144/144
f 144/144 200/200 201/201
f 144/144 201/201 146/146
f 146/146 201/201 202/202
f 146/146 202/202 148/148
f 147/147 149/149 203/203
f 147/147 203/203 204/204
f 148/148 202/202 205/205
f 148/148 205/205 150/150
f 149/149 153/153 206/206
f 149/149 206/206 203/203
f 150/150 205/205 207/207
f 150/150 207/207 154/154
f 154/154 208/208 209/209
f 154/154 209/209 153/153
f 153/153 209/209 210/210
f 153/153 210/210 206/206
f 154/154 207/207 211/211
f 154/154 211/211 208/208
f 208/208 211/211 210/210
f 208/208 210/210 209/209
f 212/212 213/213 214/214
f 212/212 214/214 215/215
f 212/212 215/215 216/216
f 212/212 216/216 217/217
f 213/213 218/218 219/219
f 213/213 219/219 214/214
f 218/218 220/220 221/221
f 218/218 221/221 219/219
f 222/222 157/157 156/156
f 222/222 156/156 223/223
f 223/223 156/156 224/224
f 223/223 224/224 225/225
f 222/222 226/226 227/227
f 222/222 227/227 157/157
f 222/222 223/223 225/225
f 222/222 225/225 226/226
f 156/156 155/155 228/228
f 156/156 228/228 224/224
f 157/157 227/227 229/229
f 157/157 229/229 158/158
f 155/155 159/159 230/230
f 155/155 230/230 228/228
f 158/158 229/229 231/231
f 158/158 231/231 160/160
f 159/159 161/161 232/232
f 159/159 232/232 230/230
f 160/160 231/231 233/233
f 160/160 233/233 162/162
f 165/165 167/167 234/234
f 165/165 234/234 235/235
f 166/166 236/236 237/237
f 166/166 237/237 168/168
f 167/167 169/169 238/238
f 167/167 238/238 234/234
f 168/168 237/237 239/239
f 168/168 239/239 170/170
f 169/169 171/171 240/240
f 169/169 240/240 238/238
f 170/170 239/239 241/241
f 170/170 241/241 172/172
f 172/172 242/242 243/243
f 172/172 243/243 171/171
f 171/171 243/243 244/244
f 171/171 244/244 240/240
f 172/172 241/241 245/245
f 172/172 245/245 242/242
f 242/242 245/245 244/244
f 242/242 244/244 243/243
f 246/246 247/247 248/248
f 246/246 248/248 249/249
f 249/249 248/248 250/250
f 249/249 250/250 251/251
f 246/246 249/249 251/251
f 246/246 251/251 252/252
f 247/247 253/253 254/254
f 247/247 254/254 248/248
f 248/248 254/254 255/255
f 248/248 255/255 250/250
f 253/253 256/256 255/255
f 253/253 255/255 254/254
f 257/257 175/175 174/174
f 257/257 174/174 258/258
f 258/258 174/174 259/259
f 258/258 259/259 260/260
f 257/257 261/261 262/262
f 257/257 262/262 175/175
f 257/257 258/258 260/260
f 257/257 260/260 261/261
f 174/174 173/173 263/263
f 174/174 263/263 259/259
f 175/175 262/262 264/264
f 175/175 264/264 176/176
f 173/173 177/177 265/265
f 173/173 265/265 263/263
f 176/176 264/264 266/266
f 176/176 266/266 178/178
f 177/177 179/179 267/267
f 177/177 267/267 265/265
f 178/178 266/266 268/268
f 178/178 268/268 180/180
f 180/180 268/268 269/269
f 180/180 269/269 182/182
f 182/182 269/269 270/270
f 182/182 270/270 184/184
f 183/183 185/185 271/271
f 183/183 271/271 272/272
f 184/184 270/270 273/273
f 184/184 273/273 186/186
f 185/185 187/187 274/274
f 185/185 274/274 271/271
f 186/186 273/273 275/275
f 186/186 275/275 188/188
f 187/187 189/189 276/276
f 187/187 276/276 274/274
f 188/188 275/275 277/277
f 188/188 277/277 190/190
f 190/190 278/278 279/279
f 190/190 279/279 189/189
f 189/189 279/279 280/280
f 189/189 280/280 276/276
f 190/190 277/277 281/281
f 190/190 281/281 278/278
f 278/278 281/281 280/280
f 278/278 280/280 279/279
f 282/282 283/283 284/284
f 282/282 284/284 285/285
f 282/282 285/285 286/286
f 282/282 286/286 287/287
f 283/283 288/288 289/289
f 283/283 289/289 284/284
f 288/288 290/290 291/291
f 288/288 291/291 289/289
f 285/285 284/284 292/292
f 285/285 292/292 293/293
f 293/293 292/292 294/294
f 293/293 294/294 295/295
f 285/285 293/293 295/295
f 285/285 295/295 286/286
f 284/284 289/289 296/296
f 284/284 296/296 292/292
f 292/292 296/296 297/297
f 292/292 297/297 294/294
f 289/289 291/291 297/297
f 289/289 297/297 296/296
f 298/298 299/299 300/300
f 298/298 300/300 301/301
f 298/298 302/302 303/303
f 298/298 303/303 299/299
f 298/298 301/301 304/304
f 298/298 304/304 302/302
f 299/299 305/305 306/306
f 299/299 306/306 300/300
f 299/299 303/303 307/307
f 299/299 307/307 305/305
f 305/305 307/307 308/308
f 305/305 308/308 306/306
f 301/301 300/300 309/309
f 301/301 309/309 310/310
f 310/310 309/309 311/311
f 310/310 311/311 312/312
f 301/301 310/310 312/312
f 301/301 312/312 304/304
f 300/300 306/306 313/313
f 300/300 313/313 309/309
f 309/309 313/313 314/314
f 309/309 314/314 311/311
f 306/306 308/308 314/314
f 306/306 314/314 313/313
f 315/315 195/195 194/194
f 315/315 194/194 316/316
f 316/316 194/194 317/317
f 316/316 317/317 318/318
f 315/315 319/319 320/320
f 315/315 320/320 195/195
f 315/315 316/316 318/318
f 315/315 318/318 319/319
f 194/194 193/193 321/321
f 194/194 321/321 317/317
f 195/195 320/320 322/322
f 195/195 322/322 196/196
f 193/193 197/197 323/323
f 193/193 323/323 321/321
f 196/196 322/322 324/324
f 196/196 324/324 198/198
f 198/198 324/324 325/325
f 198/198 325/325 200/200
f 200/200 325/325 326/326
f 200/200 326/326 201/201
f 201/201 326/326 327/327
f 201/201 327/327 202/202
f 202/202 327/327 328/328
f 202/202 328/328 205/205
f 203/203 206/206 329/329
f 203/203 329/329 330/330
f 205/205 328/328 331/331
f 205/205 331/331 207/207
f 206/206 210/210 332/332
f 206/206 332/332 329/329
f 207/207 331/331 333/333
f 207/207 333/333 211/211
f 211/211 334/334 335/335
f 211/211 335/335 210/210
f 210/210 335/335 336/336
f 210/210 336/336 332/332
f 211/211 333/333 337/337
f 211/211 337/337 334/334
f 334/334 337/337 336/336
f 334/334 336/336 335/335
f 338/338 217/217 216/216
f 338/338 216/216 339/339
f 338/338 339/339 340/340
f 338/338 340/340 341/341
f 220/220 342/342 343/343
f 220/220 343/343 221/221
f 342/342 344/344 345/345
f 342/342 345/345 343/343
f 225/225 224/224 346/346
f 225/225 346/346 347/347
f 226/226 348/348 349/349
f 226/226 349/349 227/227
f 226/226 225/225 347/347
f 226/226 347/347 348/348
f 224/224 228/228 350/350
f 224/224 350/350 346/346
f 227/227 349/349 351/351
f 227/227 351/351 229/229
f 228/228 230/230 352/352
f 228/228 352/352 350/350
f 229/229 351/351 353/353
f 229/229 353/353 231/231
f 234/234 238/238 354/354
f 234/234 354/354 355/355
f 237/237 356/356 357/357
f 237/237 357/357 239/239
f 238/238 240/240 358/358
f 238/238 358/358 354/354
f 239/239 357/357 359/359
f 239/239 359/359 241/241
f 240/240 244/244 360/360
f 240/240 360/360 358/358
f 241/241 359/359 361/361
f 241/241 361/361 245/245
f 245/245 361/361 360/360
f 245/245 360/360 244/244
f 362/362 252/252 251/251
f 362/362 251/251 363/363
f 363/363 251/251 364/364
f 363/363 364/364 365/365
f 362/362 363/363 365/365
f 362/362 365/365 366/366
f 251/251 250/250 367/367
f 251/251 367/367 364/364
f 250/250 255/255 368/368
f 250/250 368/368 367/367
f 256/256 369/369 370/370
f 256/256 370/370 255/255
f 255/255 370/370 371/371
f 255/255 371/371 368/368
f 369/369 372/372 371/371
f 369/369 371/371 370/370
f 260/260 259/259 373/373
f 260/260 373/373 374/374
f 261/261 375/375 376/376
f 261/261 376/376 262/262
f 261/261 260/260 374/374
f 261/261 374/374 375/375
f 259/259 263/263 377/377
f 259/259 377/377 373/373
f 262/262 376/376 378/378
f 262/262 378/378 264/264
f 263/263 265/265 379/379
f 263/263 379/379 377/377
f 264/264 378/378 380/380
f 264/264 380/380 266/266
f 266/266 380/380 381/381
f 266/266 381/381 268/268
f 268/268 381/381 382/382
f 268/268 382/382 269/269
f 269/269 382/382 383/383
f 269/269 383/383 270/270
f 270/270 383/383 384/384
f 270/270 384/384 273/273
f 271/271 274/274 385/385
f 271/271 385/385 386/386
f 273/273 384/384 387/387
f 273/273 387/387 275/275
f 274/274 276/276 388/388
f 274/274 388/388 385/385
f 275/275 387/387 389/389
f 275/275 389/389 277/277
f 276/276 280/280 390/390
f 276/276 390/390 388/388
f 277/277 389/389 391/391
f 277/277 391/391 281/281
f 281/281 391/391 390/390
f 281/281 390/390 280/280
f 392/392 287/287 286/286
f 392/392 286/286 393/393
f 392/392 393/393 394/394
f 392/392 394/394 395/395
f 290/290 396/396 397/397
f 290/290 397/397 291/291
f 396/396 398/398 399/399
f 396/396 399/399 397/397
f 393/393 286/286 295/295
f 393/393 295/295 400/400
f 400/400 295/295 401/401
f 400/400 401/401 402/402
f 393/393 400/400 402/402
f 393/393 402/402 394/394
f 295/295 294/294 403/403
f 295/295 403/403 401/401
f 294/294 297/297 404/404
f 294/294 404/404 403/403
f 291/291 397/397 405/405
f 291/291 405/405 297/297
f 297/297 405/405 406/406
f 297/297 406/406 404/404
f 397/397 399/399 406/406
f 397/397 406/406 405/405
f 407/407 302/302 304/304
f 407/407 304/304 408/408
f 407/407 409/409 410/410
f 407/407 410/410 302/302
f 407/407 408/408 411/411
f 407/407 411/411 409/409
f 302/302 410/410 412/412
f 302/302 412/412 303/303
f 303/303 412/412 413/413
f 303/303 413/413 307/307
f 307/307 414/414 415/415
f 307/307 415/415 308/308
f 307/307 413/413 416/416
f 307/307 416/416 414/414
f 414/414 416/416 417/417
f 414/414 417/417 415/415
f 408/408 304/304 312/312
f 408/408 312/312 418/418
f 418/418 312/312 419/419
f 418/418 419/419 420/420
f 408/408 418/418 420/420
f 408/408 420/420 411/411
f 308/308 415/415 421/421
f 308/308 421/421 314/314
f 314/314 421/421 422/422
f 314/314 422/422 423/423
f 415/415 417/417 422/422
f 415/415 422/422 421/421
f 424/424 425/425 426/426
f 424/424 426/426 427/427
f 427/427 426/426 428/428
f 427/427 428/428 429/429
f 424/424 427/427 429/429
f 424/424 429/429 430/430
f 425/425 431/431 432/432
f 425/425 432/432 426/426
f 426/426 432/432 433/433
f 426/426 433/433 428/428
f 431/431 434/434 433/433
f 431/431 433/433 432/432
f 318/318 317/317 435/435
f 318/318 435/435 436/436
f 319/319 437/437 438/438
f 319/319 438/438 320/320
f 319/319 318/318 436/436
f 319/319 436/436 437/437
f 317/317 321/321 439/439
f 317/317 439/439 435/435
f 320/320 438/438 440/440
f 320/320 440/440 322/322
f 321/321 323/323 441/441
f 321/321 441/441 439/439
f 322/322 440/440 442/442
f 322/322 442/442 324/324
f 324/324 442/442 443/443
f 324/324 443/443 325/325
f 325/325 443/443 444/444
f 325/325 444/444 326/326
f 326/326 444/444 445/445
f 326/326 445/445 327/327
f 327/327 445/445 446/446
f 327/327 446/446 328/328
f 330/330 329/329 447/447
f 330/330 447/447 448/448
f 328/328 446/446 449/449
f 328/328 449/449 331/331
f 329/329 332/332 450/450
f 329/329 450/450 447/447
f 331/331 449/449 451/451
f 331/331 451/451 333/333
f 332/332 336/336 452/452
f 332/332 452/452 450/450
f 333/333 451/451 453/453
f 333/333 453/453 337/337
f 337/337 453/453 452/452
f 337/337 452/452 336/336
f 454/454 455/455 456/456
f 454/454 456/456 457/457
f 341/341 340/340 455/455
f 341/341 455/455 454/454
f 458/458 459/459 460/460
f 458/458 460/460 461/461
f 344/344 461/461 460/460
f 344/344 460/460 345/345
f 347/347 346/346 462/462
f 347/347 462/462 463/463
f 348/348 464/464 465/465
f 348/348 465/465 349/349
f 348/348 347/347 463/463
f 348/348 463/463 464/464
f 346/346 350/350 466/466
f 346/346 466/466 462/462
f 349/349 465/465 467/467
f 349/349 467/467 351/351
f 350/350 352/352 468/468
f 350/350 468/468 466/466
f 351/351 467/467 469/469
f 351/351 469/469 353/353
f 355/355 354/354 470/470
f 355/355 470/470 471/471
f 356/356 472/472 473/473
f 356/356 473/473 357/357
f 354/354 358/358 474/474
f 354/354 474/474 470/470
f 357/357 473/473 475/475
f 357/357 475/475 359/359
f 358/358 360/360 476/476
f 358/358 476/476 474/474
f 359/359 475/475 477/477
f 359/359 477/477 361/361
f 361/361 477/477 476/476
f 361/361 476/476 360/360
f 478/478 479/479 480/480
f 478/478 480/480 481/481
f 365/365 364/364 480/480
f 365/365 480/480 479/479
f 366/366 365/365 479/479
f 366/366 479/479 478/478
f 364/364 367/367 482/482
f 364/364 482/482 480/480
f 367/367 368/368 483/483
f 367/367 483/483 482/482
f 484/484 483/483 485/485
f 484/484 485/485 486/486
f 368/368 371/371 485/485
f 368/368 485/485 483/483
f 372/372 486/486 485/485
f 372/372 485/485 371/371
f 374/374 373/373 487/487
f 374/374 487/487 488/488
f 375/375 489/489 490/490
f 375/375 490/490 376/376
f 375/375 374/374 488/488
f 375/375 488/488 489/489
f 373/373 377/377 491/491
f 373/373 491/491 487/487
f 376/376 490/490 492/492
f 376/376 492/492 378/378
f 377/377 379/379 493/493
f 377/377 493/493 491/491
f 378/378 492/492 494/494
f 378/378 494/494 380/380
f 380/380 494/494 495/495
f 380/380 495/495 381/381
f 381/381 495/495 496/496
f 381/381 496/496 382/382
f 382/382 496/496 497/497
f 382/382 497/497 383/383
f 383/383 497/497 498/498
f 383/383 498/498 384/384
f 386/386 385/385 499/499
f 386/386 499/499 500/500
f 384/384 498/498 501/501
f 384/384 501/501 387/387
f 385/385 388/388 502/502
f 385/385 502/502 499/499
f 387/387 501/501 503/503
f 387/387 503/503 389/389
f 388/388 390/390 504/504
f 388/388 504/504 502/502
f 389/389 503/503 505/505
f 389/389 505/505 391/391
f 391/391 505/505 504/504
f 391/391 504/504 390/390
f 506/506 507/507 508/508
f 506/506 508/508 509/509
f 395/395 394/394 507/507
f 395/395 507/507 506/506
f 510/510 511/511 512/512
f 510/510 512/512 513/513
f 398/398 513/513 512/512
f 398/398 512/512 399/399
f 507/507 514/514 515/515
f 507/507 515/515 508/508
f 402/402 401/401 515/515
f 402/402 515/515 514/514
f 394/394 402/402 514/514
f 394/394 514/514 507/507
f 401/401 403/403 516/516
f 401/401 516/516 515/515
f 403/403 404/404 517/517
f 403/403 517/517 516/516
f 511/511 517/517 518/518
f 511/511 518/518 512/512
f 404/404 406/406 518/518
f 404/404 518/518 517/517
f 399/399 512/512 518/518
f 399/399 518/518 406/406
f 519/519 520/520 521/521
f 519/519 521/521 522/522
f 409/409 519/519 522/522
f 409/409 522/522 410/410
f 409/409 411/411 520/520
f 409/409 520/520 519/519
f 410/410 522/522 523/523
f 410/410 523/523 412/412
f 412/412 523/523 524/524
f 412/412 524/524 413/413
f 524/524 525/525 526/526
f 524/524 526/526 527/527
f 413/413 524/524 527/527
f 413/413 527/527 416/416
f 416/416 527/527 526/526
f 416/416 526/526 417/417
f 520/520 528/528 529/529
f 520/520 529/529 521/521
f 420/420 419/419 529/529
f 420/420 529/529 528/528
f 411/411 420/420 528/528
f 411/411 528/528 520/520
f 525/525 530/530 531/531
f 525/525 531/531 526/526
f 423/423 422/422 531/531
f 423/423 531/531 530/530
f 417/417 526/526 531/531
f 417/417 531/531 422/422
f 532/532 533/533 534/534
f 532/532 534/534 535/535
f 429/429 428/428 534/534
f 429/429 534/534 533/533
f 430/430 429/429 533/533
f 430/430 533/533 532/532
f 535/535 534/534 536/536
f 535/535 536/536 537/537
f 428/428 433/433 536/536
f 428/428 536/536 534/534
f 434/434 537/537 536/536
f 434/434 536/536 433/433
f 538/538 539/539 540/540
f 538/538 540/540 541/541
f 436/436 435/435 540/540
f 436/436 540/540 539/539
f 437/437 538/538 541/541
f 437/437 541/541 438/438
f 437/437 436/436 539/539
f 437/437 539/539 538/538
f 435/435 439/439 542/542
f 435/435 542/542 540/540
f 438/438 541/541 543/543
f 438/438 543/543 440/440
f 439/439 441/441 544/544
f 439/439 544/544 542/542
f 440/440 543/543 545/545
f 440/440 545/545 442/442
f 441/441 546/546 547/547
f 441/441 547/547 544/544
f 442/442 545/545 548/548
f 442/442 548/548 443/443
f 443/443 548/548 549/549
f 443/443 549/549 444/444
f 444/444 549/549 550/550
f 444/444 550/550 445/445
f 551/551 448/448 552/552
f 551/551 552/552 553/553
f 445/445 550/550 554/554
f 445/445 554/554 446/446
f 448/448 447/447 555/555
f 448/448 555/555 552/552
f 446/446 554/554 556/556
f 446/446 556/556 449/449
f 447/447 450/450 557/557
f 447/447 557/557 555/555
f 449/449 556/556 558/558
f 449/449 558/558 451/451
f 558/558 557/557 559/559
f 558/558 559/559 560/560
f 450/450 452/452 559/559
f 450/450 559/559 557/557
f 451/451 558/558 560/560
f 451/451 560/560 453/453
f 453/453 560/560 559/559
f 453/453 559/559 452/452
f 561/561 562/562 563/563
f 561/561 563/563 564/564
f 457/457 456/456 562/562
f 457/457 562/562 561/561
f 564/564 563/563 565/565
f 564/564 565/565 566/566
f 458/458 566/566 565/565
f 458/458 565/565 459/459
f 567/567 568/568 569/569
f 567/567 569/569 570/570
f 463/463 462/462 569/569
f 463/463 569/569 568/568
f 464/464 567/567 570/570
f 464/464 570/570 465/465
f 464/464 463/463 568/568
f 464/464 568/568 567/567
f 462/462 466/466 571/571
f 462/462 571/571 569/569
f 465/465 570/570 572/572
f 465/465 572/572 467/467
f 466/466 468/468 573/573
f 466/466 573/573 571/571
f 467/467 572/572 574/574
f 467/467 574/574 469/469
f 468/468 575/575 576/576
f 468/468 576/576 573/573
f 469/469 574/574 577/577
f 469/469 577/577 578/578
f 579/579 471/471 580/580
f 579/579 580/580 581/581
f 582/582 583/583 584/584
f 582/582 584/584 472/472
f 471/471 470/470 585/585
f 471/471 585/585 580/580
f 472/472 584/584 586/586
f 472/472 586/586 473/473
f 470/470 474/474 587/587
f 470/470 587/587 585/585
f 473/473 586/586 588/588
f 473/473 588/588 475/475
f 588/588 587/587 589/589
f 588/588 589/589 590/590
f 474/474 476/476 589/589
f 474/474 589/589 587/587
f 475/475 588/588 590/590
f 475/475 590/590 477/477
f 477/477 590/590 589/589
f 477/477 589/589 476/476
f 591/591 592/592 593/593
f 591/591 593/593 594/594
f 480/480 482/482 593/593
f 480/480 593/593 592/592
f 481/481 480/480 592/592
f 481/481 592/592 591/591
f 594/594 593/593 595/595
f 594/594 595/595 596/596
f 482/482 483/483 595/595
f 482/482 595/595 593/593
f 484/484 596/596 595/595
f 484/484 595/595 483/483
f 597/597 598/598 599/599
f 597/597 599/599 600/600
f 488/488 487/487 599/599
f 488/488 599/599 598/598
f 489/489 597/597 600/600
f 489/489 600/600 490/490
f 489/489 488/488 598/598
f 489/489 598/598 597/597
f 487/487 491/491 601/601
f 487/487 601/601 599/599
f 490/490 600/600 602/602
f 490/490 602/602 492/492
f 491/491 493/493 603/603
f 491/491 603/603 601/601
f 492/492 602/602 604/604
f 492/492 604/604 494/494
f 493/493 605/605 606/606
f 493/493 606/606 603/603
f 494/494 604/604 607/607
f 494/494 607/607 495/495
f 495/495 607/607 608/608
f 495/495 608/608 496/496
f 496/496 608/608 609/609
f 496/496 609/609 497/497
f 610/610 500/500 611/611
f 610/610 611/611 612/612
f 497/497 609/609 613/613
f 497/497 613/613 498/498
f 500/500 499/499 614/614
f 500/500 614/614 611/611
f 498/498 613/613 615/615
f 498/498 615/615 501/501
f 499/499 502/502 616/616
f 499/499 616/616 614/614
f 501/501 615/615 617/617
f 501/501 617/617 503/503
f 617/617 616/616 618/618
f 617/617 618/618 619/619
f 502/502 504/504 618/618
f 502/502 618/618 616/616
f 503/503 617/617 619/619
f 503/503 619/619 505/505
f 505/505 619/619 618/618
f 505/505 618/618 504/504
f 620/620 621/621 622/622
f 620/620 622/622 623/623
f 509/509 508/508 621/621
f 509/509 621/621 620/620
f 623/623 622/622 624/624
f 623/623 624/624 625/625
f 510/510 625/625 624/624
f 510/510 624/624 511/511
f 621/621 626/626 627/627
f 621/621 627/627 622/622
f 515/515 516/516 627/627
f 515/515 627/627 626/626
f 508/508 515/515 626/626
f 508/508 626/626 621/621
f 622/622 627/627 628/628
f 622/622 628/628 624/624
f 516/516 517/517 628/628
f 516/516 628/628 627/627
f 511/511 624/624 628/628
f 511/511 628/628 517/517
f 629/629 630/630 631/631
f 629/629 631/631 632/632
f 522/522 629/629 632/632
f 522/522 632/632 523/523
f 522/522 521/521 630/630
f 522/522 630/630 629/629
f 632/632 631/631 633/633
f 632/632 633/633 634/634
f 523/523 632/632 634/634
f 523/523 634/634 524/524
f 524/524 634/634 633/633
f 524/524 633/633 525/525
f 630/630 635/635 636/636
f 630/630 636/636 631/631
f 529/529 637/637 636/636
f 529/529 636/636 635/635
f 521/521 529/529 635/635
f 521/521 635/635 630/630
f 631/631 636/636 638/638
f 631/631 638/638 633/633
f 637/637 530/530 638/638
f 637/637 638/638 636/636
f 525/525 633/633 638/638
f 525/525 638/638 530/530
f 540/540 542/542 639/639
f 540/540 639/639 640/640
f 541/541 641/641 642/642
f 541/541 642/642 543/543
f 541/541 540/540 640/640
f 541/541 640/640 641/641
f 542/542 544/544 643/643
f 542/542 643/643 639/639
f 543/543 642/642 644/644
f 543/543 644/644 545/545
f 544/544 547/547 645/645
f 544/544 645/645 643/643
f 545/545 644/644 646/646
f 545/545 646/646 548/548
f 547/547 647/647 648/648
f 547/547 648/648 645/645
f 548/548 646/646 649/649
f 548/548 649/649 549/549
f 647/647 553/553 650/650
f 647/647 650/650 648/648
f 549/549 649/649 651/651
f 549/549 651/651 550/550
f 553/553 552/552 652/652
f 553/553 652/652 650/650
f 550/550 651/651 653/653
f 550/550 653/653 554/554
f 552/552 555/555 654/654
f 552/552 654/654 652/652
f 554/554 653/653 655/655
f 554/554 655/655 556/556
f 555/555 557/557 656/656
f 555/555 656/656 654/654
f 556/556 655/655 657/657
f 556/556 657/657 558/558
f 558/558 657/657 656/656
f 558/558 656/656 557/557
f 569/569 571/571 658/658
f 569/569 658/658 659/659
f 570/570 660/660 661/661
f 570/570 661/661 572/572
f 570/570 569/569 659/659
f 570/570 659/659 660/660
f 571/571 573/573 662/662
f 571/571 662/662 658/658
f 572/572 661/661 663/663
f 572/572 663/663 574/574
f 573/573 576/576 664/664
f 573/573 664/664 662/662
f 574/574 663/663 665/665
f 574/574 665/665 577/577
f 576/576 666/666 667/667
f 576/576 667/667 664/664
f 577/577 665/665 668/668
f 577/577 668/668 669/669
f 666/666 581/581 670/670
f 666/666 670/670 667/667
f 669/669 668/668 671/671
f 669/669 671/671 583/583
f 581/581 580/580 672/672
f 581/581 672/672 670/670
f 583/583 671/671 673/673
f 583/583 673/673 584/584
f 580/580 585/585 674/674
f 580/580 674/674 672/672
f 584/584 673/673 675/675
f 584/584 675/675 586/586
f 585/585 587/587 676/676
f 585/585 676/676 674/674
f 586/586 675/675 677/677
f 586/586 677/677 588/588
f 588/588 677/677 676/676
f 588/588 676/676 587/587
f 599/599 601/601 678/678
f 599/599 678/678 679/679
f 600/600 680/680 681/681
f 600/600 681/681 602/602
f 600/600 599/599 679/679
f 600/600 679/679 680/680
f 601/601 603/603 682/682
f 601/601 682/682 678/678
f 602/602 681/681 683/683
f 602/602 683/683 604/604
f 603/603 606/606 684/684
f 603/603 684/684 682/682
f 604/604 683/683 685/685
f 604/604 685/685 607/607
f 606/606 686/686 687/687
f 606/606 687/687 684/684
f 607/607 685/685 688/688
f 607/607 688/688 608/608
f 686/686 612/612 689/689
f 686/686 689/689 687/687
f 608/608 688/688 690/690
f 608/608 690/690 609/609
f 612/612 611/611 691/691
f 612/612 691/691 689/689
f 609/609 690/690 692/692
f 609/609 692/692 613/613
f 611/611 614/614 693/693
f 611/611 693/693 691/691
f 613/613 692/692 694/694
f 613/613 694/694 615/615
f 614/614 616/616 695/695
f 614/614 695/695 693/693
f 615/615 694/694 696/696
f 615/615 696/696 617/617
f 617/617 696/696 695/695
f 617/617 695/695 616/616
f 697/697 698/698 699/699
f 697/697 699/699 700/700
f 640/640 639/639 699/699
f 640/640 699/699 698/698
f 641/641 697/697 700/700
f 641/641 700/700 642/642
f 641/641 640/640 698/698
f 641/641 698/698 697/697
f 639/639 643/643 701/701
f 639/639 701/701 699/699
f 642/642 700/700 702/702
f 642/642 702/702 644/644
f 643/643 645/645 703/703
f 643/643 703/703 701/701
f 644/644 702/702 704/704
f 644/644 704/704 646/646
f 645/645 648/648 705/705
f 645/645 705/705 703/703
f 646/646 704/704 706/706
f 646/646 706/706 649/649
f 648/648 650/650 707/707
f 648/648 707/707 705/705
f 649/649 706/706 708/708
f 649/649 708/708 651/651
f 650/650 652/652 709/709
f 650/650 709/709 707/707
f 651/651 708/708 710/710
f 651/651 710/710 653/653
f 652/652 654/654 711/711
f 652/652 711/711 709/709
f 653/653 710/710 712/712
f 653/653 712/712 655/655
f 712/712 711/711 713/713
f 712/712 713/713 714/714
f 654/654 656/656 713/713
f 654/654 713/713 711/711
f 655/655 712/712 714/714
f 655/655 714/714 657/657
f 657/657 714/714 713/713
f 657/657 713/713 656/656
f 715/715 716/716 717/717
f 715/715 717/717 718/718
f 659/659 658/658 717/717
f 659/659 717/717 716/716
f 660/660 715/715 718/718
f 660/660 718/718 661/661
f 660/660 659/659 716/716
f 660/660 716/716 715/715
f 718/718 717/717 719/719
f 718/718 719/719 720/720
f 658/658 662/662 719/719
f 658/658 719/719 717/717
f 661/661 718/718 720/720
f 661/661 720/720 663/663
f 662/662 664/664 721/721
f 662/662 721/721 719/719
f 663/663 720/720 722/722
f 663/663 722/722 665/665
f 664/664 667/667 723/723
f 664/664 723/723 721/721
f 665/665 722/722 724/724
f 665/665 724/724 668/668
f 667/667 670/670 725/725
f 667/667 725/725 723/723
f 668/668 724/724 726/726
f 668/668 726/726 671/671
f 670/670 672/672 727/727
f 670/670 727/727 725/725
f 671/671 726/726 728/728
f 671/671 728/728 673/673
f 728/728 727/727 729/729
f 728/728 729/729 730/730
f 672/672 674/674 729/729
f 672/672 729/729 727/727
f 673/673 728/728 730/730
f 673/673 730/730 675/675
f 730/730 729/729 731/731
f 730/730 731/731 732/732
f 674/674 676/676 731/731
f 674/674 731/731 729/729
f 675/675 730/730 732/732
f 675/675 732/732 677/677
f 677/677 732/732 731/731
f 677/677 731/731 676/676
f 733/733 734/734 735/735
f 733/733 735/735 736/736
f 679/679 678/678 735/735
f 679/679 735/735 734/734
f 680/680 733/733 736/736
f 680/680 736/736 681/681
f 680/680 679/679 734/734
f 680/680 734/734 733/733
f 736/736 735/735 737/737
f 736/736 737/737 738/738
f 678/678 682/682 737/737
f 678/678 737/737 735/735
f 681/681 736/736 738/738
f 681/681 738/738 683/683
f 682/682 684/684 739/739
f 682/682 739/739 737/737
f 683/683 738/738 740/740
f 683/683 740/740 685/685
f 684/684 687/687 741/741
f 684/684 741/741 739/739
f 685/685 740/740 742/742
f 685/685 742/742 688/688
f 687/687 689/689 743/743
f 687/687 743/743 741/741
f 688/688 742/742 744/744
f 688/688 744/744 690/690
f 689/689 691/691 745/745
f 689/689 745/745 743/743
f 690/690 744/744 746/746
f 690/690 746/746 692/692
f 746/746 745/745 747/747
f 746/746 747/747 748/748
f 691/691 693/693 747/747
f 691/691 747/747 745/745
f 692/692 746/746 748/748
f 692/692 748/748 694/694
f 748/748 747/747 749/749
f 748/748 749/749 750/750
f 693/693 695/695 749/749
f 693/693 749/749 747/747
f 694/694 748/748 750/750
f 694/694 750/750 696/696
f 696/696 750/750 749/749
f 696/696 749/749 695/695
f 751/751 752/752 753/753
f 751/751 753/753 754/754
f 699/699 701/701 753/753
f 699/699 753/753 752/752
f 700/700 751/751 754/754
f 700/700 754/754 702/702
f 700/700 699/699 752/752
f 700/700 752/752 751/751
f 754/754 753/753 755/755
f 754/754 755/755 756/756
f 701/701 703/703 755/755
f 701/701 755/755 753/753
f 702/702 754/754 756/756
f 702/702 756/756 704/704
f 756/756 755/755 757/757
f 756/756 757/757 758/758
f 703/703 705/705 757/757
f 703/703 757/757 755/755
f 704/704 756/756 758/758
f 704/704 758/758 706/706
f 758/758 757/757 759/759
f 758/758 759/759 760/760
f 705/705 707/707 759/759
f 705/705 759/759 757/757
f 706/706 758/758 760/760
f 706/706 760/760 708/708
f 760/760 759/759 761/761
f 760/760 761/761 762/762
f 707/707 709/709 761/761
f 707/707 761/761 759/759
f 708/708 760/760 762/762
f 708/708 762/762 710/710
f 762/762 761/761 763/763
f 762/762 763/763 764/764
f 709/709 711/711 763/763
f 709/709 763/763 761/761
f 710/710 762/762 764/764
f 710/710 764/764 712/712
f 712/712 764/764 763/763
f 712/712 763/763 711/711
f 765/765 766/766 767/767
f 765/765 767/767 768/768
f 719/719 721/721 767/767
f 719/719 767/767 766/766
f 720/720 765/765 768/768
f 720/720 768/768 722/722
f 720/720 719/719 766/766
f 720/720 766/766 765/765
f 768/768 767/767 769/769
f 768/768 769/769 770/770
f 721/721 723/723 769/769
f 721/721 769/769 767/767
f 722/722 768/768 770/770
f 722/722 770/770 724/724
f 770/770 769/769 771/771
f 770/770 771/771 772/772
f 723/723 725/725 771/771
f 723/723 771/771 769/769
f 724/724 770/770 772/772
f 724/724 772/772 726/726
f 772/772 771/771 773/773
f 772/772 773/773 774/774
f 725/725 727/727 773/773
f 725/725 773/773 771/771
f 726/726 772/772 774/774
f 726/726 774/774 728/728
f 728/728 774/774 773/773
f 728/728 773/773 727/727
f 775/775 776/776 777/777
f 775/775 777/777 778/778
f 737/737 739/739 777/777
f 737/737 777/777 776/776
f 738/738 775/775 778/778
f 738/738 778/778 740/740
f 738/738 737/737 776/776
f 738/738 776/776 775/775
f 778/778 777/777 779/779
f 778/778 779/779 780/780
f 739/739 741/741 779/779
f 739/739 779/779 777/777
f 740/740 778/778 780/780
f 740/740 780/780 742/742
f 780/780 779/779 781/781
f 780/780 781/781 782/782
f 741/741 743/743 781/781
f 741/741 781/781 779/779
f 742/742 780/780 782/782
f 742/742 782/782 744/744
f 782/782 781/781 783/783
f 782/782 783/783 784/784
f 743/743 745/745 783/783
f 743/743 783/783 781/781
f 744/744 782/782 784/784
f 744/744 784/784 746/746
f 746/746 784/784 783/783
f 746/746 783/783 745/745
