mtllib CBRA_fire0.mtl
o TorchFlame
v -0.416667 0.000000 -0.250000
v -0.416667 0.000000 -0.166667
v -0.416667 0.083333 -0.166667
v -0.416667 0.083333 -0.250000
v -0.333333 0.083333 -0.166667
v -0.333333 0.083333 -0.250000
v -0.333333 0.000000 -0.250000
v -0.333333 0.000000 -0.166667
v -0.416667 0.000000 -0.083333
v -0.416667 0.083333 -0.083333
v -0.333333 0.083333 -0.083333
v -0.333333 0.000000 -0.083333
v -0.416667 0.000000 0.000000
v -0.416667 0.083333 0.000000
v -0.333333 0.083333 0.000000
v -0.333333 0.000000 0.000000
v -0.416667 0.000000 0.083333
v -0.416667 0.083333 0.083333
v -0.333333 0.083333 0.083333
v -0.333333 0.000000 0.083333
v -0.416667 0.000000 0.166667
v -0.416667 0.083333 0.166667
v -0.333333 0.083333 0.166667
v -0.333333 0.000000 0.166667
v -0.416667 0.000000 0.250000
v -0.416667 0.083333 0.250000
v -0.333333 0.083333 0.250000
v -0.333333 0.000000 0.250000
v -0.416667 0.166667 -0.166667
v -0.416667 0.166667 -0.083333
v -0.416667 0.250000 -0.083333
v -0.416667 0.250000 -0.166667
v -0.333333 0.250000 -0.083333
v -0.333333 0.250000 -0.166667
v -0.333333 0.166667 -0.166667
v -0.333333 0.166667 -0.083333
v -0.416667 0.166667 0.000000
v -0.416667 0.250000 0.000000
v -0.333333 0.250000 0.000000
v -0.333333 0.166667 0.000000
v -0.416667 0.166667 0.083333
v -0.416667 0.250000 0.083333
v -0.333333 0.250000 0.083333
v -0.333333 0.166667 0.083333
v -0.416667 0.166667 0.166667
v -0.416667 0.250000 0.166667
v -0.333333 0.250000 0.166667
v -0.333333 0.166667 0.166667
v -0.416667 0.416667 -0.166667
v -0.416667 0.416667 -0.083333
v -0.416667 0.500000 -0.083333
v -0.416667 0.500000 -0.166667
v -0.333333 0.500000 -0.083333
v -0.333333 0.500000 -0.166667
v -0.333333 0.416667 -0.166667
v -0.333333 0.416667 -0.083333
v -0.416667 0.416667 0.000000
v -0.416667 0.500000 0.000000
v -0.333333 0.500000 0.000000
v -0.333333 0.416667 0.000000
v -0.416667 0.416667 0.083333
v -0.416667 0.500000 0.083333
v -0.333333 0.500000 0.083333
v -0.333333 0.416667 0.083333
v -0.416667 0.416667 0.166667
v -0.416667 0.500000 0.166667
v -0.333333 0.500000 0.166667
v -0.333333 0.416667 0.166667
v -0.333333 0.000000 -0.333333
v -0.333333 0.083333 -0.333333
v -0.250000 0.083333 -0.250000
v -0.250000 0.083333 -0.333333
v -0.250000 0.000000 -0.333333
v -0.250000 0.000000 -0.250000
v -0.250000 0.083333 -0.166667
v -0.250000 0.000000 -0.166667
v -0.250000 0.083333 -0.083333
v -0.250000 0.000000 -0.083333
v -0.250000 0.083333 0.000000
v -0.250000 0.000000 0.000000
v -0.250000 0.083333 0.083333
v -0.250000 0.000000 0.083333
v -0.250000 0.083333 0.166667
v -0.250000 0.000000 0.166667
v -0.250000 0.083333 0.250000
v -0.250000 0.000000 0.250000
v -0.333333 0.000000 0.333333
v -0.333333 0.083333 0.333333
v -0.250000 0.083333 0.333333
v -0.250000 0.000000 0.333333
v -0.333333 0.166667 -0.333333
v -0.333333 0.166667 -0.250000
v -0.333333 0.250000 -0.250000
v -0.333333 0.250000 -0.333333
v -0.250000 0.250000 -0.250000
v -0.250000 0.250000 -0.333333
v -0.250000 0.166667 -0.333333
v -0.250000 0.166667 -0.250000
v -0.250000 0.250000 -0.166667
v -0.250000 0.166667 -0.166667
v -0.250000 0.250000 -0.083333
v -0.250000 0.166667 -0.083333
v -0.250000 0.250000 0.000000
v -0.250000 0.166667 0.000000
v -0.250000 0.250000 0.083333
v -0.250000 0.166667 0.083333
v -0.250000 0.250000 0.166667
v -0.250000 0.166667 0.166667
v -0.333333 0.166667 0.250000
v -0.333333 0.250000 0.250000
v -0.250000 0.250000 0.250000
v -0.250000 0.166667 0.250000
v -0.333333 0.166667 0.333333
v -0.333333 0.250000 0.333333
v -0.250000 0.250000 0.333333
v -0.250000 0.166667 0.333333
v -0.333333 0.416667 -0.333333
v -0.333333 0.416667 -0.250000
v -0.333333 0.500000 -0.250000
v -0.333333 0.500000 -0.333333
v -0.250000 0.500000 -0.250000
v -0.250000 0.500000 -0.333333
v -0.250000 0.416667 -0.333333
v -0.250000 0.416667 -0.250000
v -0.250000 0.500000 -0.166667
v -0.250000 0.416667 -0.166667
v -0.250000 0.500000 -0.083333
v -0.250000 0.416667 -0.083333
v -0.250000 0.500000 0.000000
v -0.250000 0.416667 0.000000
v -0.250000 0.500000 0.083333
v -0.250000 0.416667 0.083333
v -0.250000 0.500000 0.166667
v -0.250000 0.416667 0.166667
v -0.333333 0.416667 0.250000
v -0.333333 0.500000 0.250000
v -0.250000 0.500000 0.250000
v -0.250000 0.416667 0.250000
v -0.333333 0.416667 0.333333
v -0.333333 0.500000 0.333333
v -0.250000 0.500000 0.333333
v -0.250000 0.416667 0.333333
v -0.166667 0.083333 -0.250000
v -0.166667 0.083333 -0.333333
v -0.166667 0.000000 -0.333333
v -0.166667 0.000000 -0.250000
v -0.166667 0.083333 -0.166667
v -0.166667 0.000000 -0.166667
v -0.166667 0.083333 -0.083333
v -0.166667 0.000000 -0.083333
v -0.166667 0.083333 0.000000
v -0.166667 0.000000 0.000000
v -0.166667 0.083333 0.083333
v -0.166667 0.000000 0.083333
v -0.166667 0.083333 0.166667
v -0.166667 0.000000 0.166667
v -0.166667 0.083333 0.250000
v -0.166667 0.000000 0.250000
v -0.166667 0.083333 0.333333
v -0.166667 0.000000 0.333333
v -0.166667 0.250000 -0.250000
v -0.166667 0.250000 -0.333333
v -0.166667 0.166667 -0.333333
v -0.166667 0.166667 -0.250000
v -0.166667 0.250000 -0.166667
v -0.166667 0.166667 -0.166667
v -0.166667 0.250000 -0.083333
v -0.166667 0.166667 -0.083333
v -0.166667 0.250000 0.000000
v -0.166667 0.166667 0.000000
v -0.166667 0.250000 0.083333
v -0.166667 0.166667 0.083333
v -0.166667 0.250000 0.166667
v -0.166667 0.166667 0.166667
v -0.166667 0.250000 0.250000
v -0.166667 0.166667 0.250000
v -0.166667 0.250000 0.333333
v -0.166667 0.166667 0.333333
v -0.166667 0.500000 -0.250000
v -0.166667 0.500000 -0.333333
v -0.166667 0.416667 -0.333333
v -0.166667 0.416667 -0.250000
v -0.166667 0.500000 -0.166667
v -0.166667 0.416667 -0.166667
v -0.166667 0.500000 -0.083333
v -0.166667 0.416667 -0.083333
v -0.166667 0.500000 0.000000
v -0.166667 0.416667 0.000000
v -0.166667 0.500000 0.083333
v -0.166667 0.416667 0.083333
v -0.166667 0.500000 0.166667
v -0.166667 0.416667 0.166667
v -0.166667 0.500000 0.250000
v -0.166667 0.416667 0.250000
v -0.166667 0.500000 0.333333
v -0.166667 0.416667 0.333333
v -0.166667 0.000000 -0.416667
v -0.166667 0.083333 -0.416667
v -0.083333 0.083333 -0.333333
v -0.083333 0.083333 -0.416667
v -0.083333 0.000000 -0.416667
v -0.083333 0.000000 -0.333333
v -0.083333 0.083333 -0.250000
v -0.083333 0.000000 -0.250000
v -0.083333 0.083333 -0.166667
v -0.083333 0.000000 -0.166667
v -0.083333 0.083333 -0.083333
v -0.083333 0.000000 -0.083333
v -0.083333 0.000000 0.000000
v -0.083333 0.000000 0.083333
v -0.083333 0.083333 0.166667
v -0.083333 0.083333 0.083333
v -0.083333 0.000000 0.166667
v -0.083333 0.083333 0.250000
v -0.083333 0.000000 0.250000
v -0.083333 0.083333 0.333333
v -0.083333 0.000000 0.333333
v -0.166667 0.000000 0.416667
v -0.166667 0.083333 0.416667
v -0.083333 0.083333 0.416667
v -0.083333 0.000000 0.416667
v -0.166667 0.083333 -0.083333
v -0.166667 0.083333 0.000000
v -0.166667 0.166667 0.000000
v -0.166667 0.166667 -0.083333
v -0.083333 0.166667 -0.083333
v -0.083333 0.083333 -0.083333
v -0.166667 0.083333 0.083333
v -0.166667 0.166667 0.083333
v -0.083333 0.083333 0.083333
v -0.083333 0.166667 0.083333
v -0.166667 0.166667 -0.416667
v -0.166667 0.250000 -0.416667
v -0.083333 0.250000 -0.333333
v -0.083333 0.250000 -0.416667
v -0.083333 0.166667 -0.416667
v -0.083333 0.166667 -0.333333
v -0.083333 0.250000 -0.250000
v -0.083333 0.166667 -0.250000
v -0.083333 0.250000 -0.166667
v -0.083333 0.166667 -0.166667
v -0.083333 0.250000 -0.083333
v -0.083333 0.166667 -0.083333
v -0.083333 0.250000 0.166667
v -0.083333 0.250000 0.083333
v -0.083333 0.166667 0.083333
v -0.083333 0.166667 0.166667
v -0.083333 0.250000 0.250000
v -0.083333 0.166667 0.250000
v -0.083333 0.250000 0.333333
v -0.083333 0.166667 0.333333
v -0.166667 0.166667 0.416667
v -0.166667 0.250000 0.416667
v -0.083333 0.250000 0.416667
v -0.083333 0.166667 0.416667
v -0.166667 0.250000 -0.083333
v -0.166667 0.250000 0.000000
v -0.166667 0.333333 0.000000
v -0.166667 0.333333 -0.083333
v -0.083333 0.333333 0.000000
v -0.083333 0.333333 -0.083333
v -0.083333 0.250000 -0.083333
v -0.166667 0.250000 0.083333
v -0.166667 0.333333 0.083333
v -0.083333 0.333333 0.083333
v -0.083333 0.250000 0.083333
v -0.166667 0.416667 -0.416667
v -0.166667 0.500000 -0.416667
v -0.083333 0.500000 -0.333333
v -0.083333 0.500000 -0.416667
v -0.083333 0.416667 -0.416667
v -0.083333 0.416667 -0.333333
v -0.083333 0.500000 -0.250000
v -0.083333 0.416667 -0.250000
v -0.083333 0.500000 -0.166667
v -0.083333 0.416667 -0.166667
v -0.083333 0.500000 -0.083333
v -0.083333 0.416667 -0.083333
v -0.083333 0.416667 0.000000
v -0.083333 0.416667 0.083333
v -0.083333 0.500000 0.166667
v -0.083333 0.500000 0.083333
v -0.083333 0.416667 0.166667
v -0.083333 0.500000 0.250000
v -0.083333 0.416667 0.250000
v -0.083333 0.500000 0.333333
v -0.083333 0.416667 0.333333
v -0.166667 0.416667 0.416667
v -0.166667 0.500000 0.416667
v -0.083333 0.500000 0.416667
v -0.083333 0.416667 0.416667
v -0.166667 0.500000 -0.083333
v -0.166667 0.500000 0.000000
v -0.166667 0.583333 0.000000
v -0.166667 0.583333 -0.083333
v -0.083333 0.583333 -0.083333
v -0.083333 0.500000 -0.083333
v -0.166667 0.500000 0.083333
v -0.166667 0.583333 0.083333
v -0.083333 0.500000 0.083333
v -0.083333 0.583333 0.083333
v -0.166667 0.666667 0.000000
v -0.166667 0.666667 -0.083333
v -0.083333 0.666667 0.000000
v -0.083333 0.666667 -0.083333
v -0.166667 0.666667 0.083333
v -0.083333 0.666667 0.083333
v -0.166667 0.750000 -0.083333
v -0.166667 0.750000 0.000000
v -0.166667 0.833333 0.000000
v -0.166667 0.833333 -0.083333
v -0.083333 0.750000 -0.083333
v -0.083333 0.750000 0.000000
v -0.083333 0.833333 -0.083333
v -0.166667 0.750000 0.083333
v -0.166667 0.833333 0.083333
v -0.083333 0.750000 0.083333
v -0.083333 0.833333 0.083333
v -0.166667 0.916667 0.000000
v -0.166667 0.916667 -0.083333
v -0.083333 0.916667 0.000000
v -0.083333 0.916667 -0.083333
v -0.166667 0.916667 0.083333
v -0.083333 0.916667 0.083333
v 0.000000 0.083333 -0.333333
v 0.000000 0.083333 -0.416667
v 0.000000 0.000000 -0.416667
v 0.000000 0.000000 -0.333333
v 0.000000 0.083333 -0.250000
v 0.000000 0.000000 -0.250000
v 0.000000 0.083333 -0.166667
v 0.000000 0.000000 -0.166667
v 0.000000 0.000000 -0.083333
v 0.000000 0.000000 0.000000
v 0.000000 0.000000 0.083333
v 0.000000 0.000000 0.166667
v 0.000000 0.083333 0.250000
v 0.000000 0.083333 0.166667
v 0.000000 0.000000 0.250000
v 0.000000 0.083333 0.333333
v 0.000000 0.000000 0.333333
v 0.000000 0.083333 0.416667
v 0.000000 0.000000 0.416667
v -0.083333 0.083333 -0.166667
v -0.083333 0.166667 -0.166667
v 0.000000 0.166667 -0.166667
v 0.000000 0.083333 -0.166667
v -0.083333 0.083333 0.166667
v -0.083333 0.166667 0.166667
v 0.000000 0.083333 0.166667
v 0.000000 0.166667 0.166667
v 0.000000 0.250000 -0.333333
v 0.000000 0.250000 -0.416667
v 0.000000 0.166667 -0.416667
v 0.000000 0.166667 -0.333333
v 0.000000 0.250000 -0.250000
v 0.000000 0.166667 -0.250000
v 0.000000 0.250000 -0.166667
v 0.000000 0.166667 -0.166667
v 0.000000 0.250000 0.250000
v 0.000000 0.250000 0.166667
v 0.000000 0.166667 0.166667
v 0.000000 0.166667 0.250000
v 0.000000 0.250000 0.333333
v 0.000000 0.166667 0.333333
v 0.000000 0.250000 0.416667
v 0.000000 0.166667 0.416667
v -0.083333 0.250000 -0.166667
v -0.083333 0.333333 -0.166667
v 0.000000 0.333333 -0.083333
v 0.000000 0.333333 -0.166667
v 0.000000 0.250000 -0.166667
v 0.000000 0.333333 0.000000
v 0.000000 0.333333 0.083333
v -0.083333 0.250000 0.166667
v -0.083333 0.333333 0.166667
v 0.000000 0.333333 0.166667
v 0.000000 0.250000 0.166667
v 0.000000 0.500000 -0.333333
v 0.000000 0.500000 -0.416667
v 0.000000 0.416667 -0.416667
v 0.000000 0.416667 -0.333333
v 0.000000 0.500000 -0.250000
v 0.000000 0.416667 -0.250000
v 0.000000 0.500000 -0.166667
v 0.000000 0.416667 -0.166667
v 0.000000 0.416667 -0.083333
v 0.000000 0.416667 0.000000
v 0.000000 0.416667 0.083333
v 0.000000 0.416667 0.166667
v 0.000000 0.500000 0.250000
v 0.000000 0.500000 0.166667
v 0.000000 0.416667 0.250000
v 0.000000 0.500000 0.333333
v 0.000000 0.416667 0.333333
v 0.000000 0.500000 0.416667
v 0.000000 0.416667 0.416667
v -0.083333 0.500000 -0.166667
v -0.083333 0.583333 -0.166667
v 0.000000 0.583333 -0.166667
v 0.000000 0.500000 -0.166667
v -0.083333 0.500000 0.166667
v -0.083333 0.583333 0.166667
v 0.000000 0.500000 0.166667
v 0.000000 0.583333 0.166667
v -0.083333 0.666667 -0.166667
v 0.000000 0.666667 -0.083333
v 0.000000 0.666667 -0.166667
v 0.000000 0.666667 0.000000
v 0.000000 0.666667 0.083333
v -0.083333 0.666667 0.166667
v 0.000000 0.666667 0.166667
v -0.083333 0.750000 -0.166667
v -0.083333 0.833333 -0.166667
v 0.000000 0.750000 -0.166667
v 0.000000 0.750000 -0.083333
v 0.000000 0.833333 -0.166667
v 0.000000 0.750000 0.000000
v 0.000000 0.750000 0.083333
v -0.083333 0.750000 0.166667
v -0.083333 0.833333 0.166667
v 0.000000 0.750000 0.166667
v 0.000000 0.833333 0.166667
v -0.083333 0.916667 -0.166667
v 0.000000 0.916667 -0.083333
v 0.000000 0.916667 -0.166667
v -0.083333 0.916667 0.166667
v 0.000000 0.916667 0.166667
v 0.000000 0.916667 0.083333
v -0.083333 0.916667 -0.083333
v -0.083333 0.916667 0.000000
v -0.083333 1.000000 0.000000
v -0.083333 1.000000 -0.083333
v 0.000000 1.000000 0.000000
v 0.000000 1.000000 -0.083333
v 0.000000 0.916667 -0.083333
v -0.083333 0.916667 0.083333
v -0.083333 1.000000 0.083333
v 0.000000 1.000000 0.083333
v 0.000000 0.916667 0.083333
v 0.083333 0.000000 -0.416667
v 0.083333 0.083333 -0.416667
v 0.083333 0.083333 -0.333333
v 0.083333 0.000000 -0.333333
v 0.083333 0.083333 -0.250000
v 0.083333 0.000000 -0.250000
v 0.083333 0.083333 -0.166667
v 0.083333 0.000000 -0.166667
v 0.083333 0.000000 -0.083333
v 0.083333 0.000000 0.000000
v 0.083333 0.000000 0.083333
v 0.083333 0.000000 0.166667
v 0.083333 0.083333 0.250000
v 0.083333 0.083333 0.166667
v 0.083333 0.000000 0.250000
v 0.083333 0.083333 0.333333
v 0.083333 0.000000 0.333333
v 0.083333 0.083333 0.416667
v 0.083333 0.000000 0.416667
v 0.083333 0.083333 -0.166667
v 0.083333 0.166667 -0.166667
v 0.083333 0.166667 -0.083333
v 0.083333 0.083333 -0.083333
v 0.083333 0.083333 0.083333
v 0.083333 0.166667 0.083333
v 0.083333 0.166667 0.166667
v 0.083333 0.083333 0.166667
v 0.083333 0.250000 -0.333333
v 0.083333 0.250000 -0.416667
v 0.083333 0.166667 -0.416667
v 0.083333 0.166667 -0.333333
v 0.083333 0.250000 -0.250000
v 0.083333 0.166667 -0.250000
v 0.083333 0.250000 -0.166667
v 0.083333 0.166667 -0.166667
v 0.083333 0.250000 0.250000
v 0.083333 0.250000 0.166667
v 0.083333 0.166667 0.166667
v 0.083333 0.166667 0.250000
v 0.083333 0.250000 0.333333
v 0.083333 0.166667 0.333333
v 0.083333 0.250000 0.416667
v 0.083333 0.166667 0.416667
v 0.083333 0.250000 -0.166667
v 0.083333 0.333333 -0.166667
v 0.083333 0.333333 -0.083333
v 0.083333 0.250000 -0.083333
v 0.083333 0.333333 0.000000
v 0.083333 0.333333 0.083333
v 0.083333 0.250000 0.083333
v 0.083333 0.333333 0.166667
v 0.083333 0.250000 0.166667
v 0.083333 0.500000 -0.333333
v 0.083333 0.500000 -0.416667
v 0.083333 0.416667 -0.416667
v 0.083333 0.416667 -0.333333
v 0.083333 0.500000 -0.250000
v 0.083333 0.416667 -0.250000
v 0.083333 0.500000 -0.166667
v 0.083333 0.416667 -0.166667
v 0.083333 0.416667 -0.083333
v 0.083333 0.416667 0.000000
v 0.083333 0.416667 0.083333
v 0.083333 0.416667 0.166667
v 0.083333 0.500000 0.250000
v 0.083333 0.500000 0.166667
v 0.083333 0.416667 0.250000
v 0.083333 0.500000 0.333333
v 0.083333 0.416667 0.333333
v 0.083333 0.500000 0.416667
v 0.083333 0.416667 0.416667
v 0.083333 0.500000 -0.166667
v 0.083333 0.583333 -0.166667
v 0.083333 0.583333 -0.083333
v 0.083333 0.500000 -0.083333
v 0.083333 0.500000 0.083333
v 0.083333 0.583333 0.083333
v 0.083333 0.583333 0.166667
v 0.083333 0.500000 0.166667
v 0.083333 0.666667 -0.166667
v 0.083333 0.666667 -0.083333
v 0.083333 0.666667 0.000000
v 0.083333 0.666667 0.083333
v 0.083333 0.666667 0.166667
v 0.083333 0.750000 -0.166667
v 0.083333 0.833333 -0.166667
v 0.083333 0.833333 -0.083333
v 0.083333 0.750000 -0.083333
v 0.083333 0.750000 0.000000
v 0.083333 0.750000 0.083333
v 0.083333 0.833333 0.083333
v 0.083333 0.833333 0.166667
v 0.083333 0.750000 0.166667
v 0.083333 0.916667 -0.166667
v 0.083333 0.916667 -0.083333
v 0.083333 0.916667 0.083333
v 0.083333 0.916667 0.166667
v 0.083333 0.916667 -0.083333
v 0.083333 1.000000 -0.083333
v 0.083333 1.000000 0.000000
v 0.083333 0.916667 0.000000
v 0.083333 1.000000 0.083333
v 0.083333 0.916667 0.083333
v 0.166667 0.000000 -0.333333
v 0.166667 0.083333 -0.333333
v 0.166667 0.083333 -0.250000
v 0.166667 0.000000 -0.250000
v 0.166667 0.083333 -0.166667
v 0.166667 0.000000 -0.166667
v 0.083333 0.083333 -0.083333
v 0.166667 0.083333 -0.083333
v 0.166667 0.000000 -0.083333
v 0.166667 0.000000 0.000000
v 0.166667 0.000000 0.083333
v 0.083333 0.083333 0.083333
v 0.166667 0.083333 0.166667
v 0.166667 0.083333 0.083333
v 0.166667 0.000000 0.166667
v 0.166667 0.083333 0.250000
v 0.166667 0.000000 0.250000
v 0.166667 0.083333 0.333333
v 0.166667 0.000000 0.333333
v 0.166667 0.083333 -0.083333
v 0.166667 0.166667 -0.083333
v 0.166667 0.166667 0.000000
v 0.166667 0.083333 0.000000
v 0.166667 0.166667 0.083333
v 0.166667 0.083333 0.083333
v 0.166667 0.166667 -0.416667
v 0.166667 0.250000 -0.416667
v 0.166667 0.250000 -0.333333
v 0.166667 0.166667 -0.333333
v 0.166667 0.250000 -0.250000
v 0.166667 0.166667 -0.250000
v 0.166667 0.250000 -0.166667
v 0.166667 0.166667 -0.166667
v 0.083333 0.250000 -0.083333
v 0.166667 0.250000 -0.083333
v 0.166667 0.166667 -0.083333
v 0.083333 0.166667 -0.083333
v 0.083333 0.250000 0.083333
v 0.166667 0.250000 0.166667
v 0.166667 0.250000 0.083333
v 0.083333 0.166667 0.083333
v 0.166667 0.166667 0.083333
v 0.166667 0.166667 0.166667
v 0.166667 0.250000 0.250000
v 0.166667 0.166667 0.250000
v 0.166667 0.250000 0.333333
v 0.166667 0.166667 0.333333
v 0.166667 0.250000 0.416667
v 0.166667 0.166667 0.416667
v 0.166667 0.250000 -0.083333
v 0.166667 0.333333 -0.083333
v 0.166667 0.333333 0.000000
v 0.166667 0.250000 0.000000
v 0.166667 0.333333 0.083333
v 0.166667 0.250000 0.083333
v 0.166667 0.416667 -0.416667
v 0.166667 0.500000 -0.416667
v 0.166667 0.500000 -0.333333
v 0.166667 0.416667 -0.333333
v 0.166667 0.500000 -0.250000
v 0.166667 0.416667 -0.250000
v 0.166667 0.500000 -0.166667
v 0.166667 0.416667 -0.166667
v 0.083333 0.500000 -0.083333
v 0.166667 0.500000 -0.083333
v 0.166667 0.416667 -0.083333
v 0.166667 0.416667 0.000000
v 0.166667 0.416667 0.083333
v 0.083333 0.500000 0.083333
v 0.166667 0.500000 0.166667
v 0.166667 0.500000 0.083333
v 0.166667 0.416667 0.166667
v 0.166667 0.500000 0.250000
v 0.166667 0.416667 0.250000
v 0.166667 0.500000 0.333333
v 0.166667 0.416667 0.333333
v 0.166667 0.500000 0.416667
v 0.166667 0.416667 0.416667
v 0.166667 0.500000 -0.083333
v 0.166667 0.583333 -0.083333
v 0.166667 0.583333 0.000000
v 0.166667 0.500000 0.000000
v 0.166667 0.583333 0.083333
v 0.166667 0.500000 0.083333
v 0.166667 0.666667 -0.083333
v 0.166667 0.666667 0.000000
v 0.166667 0.666667 0.083333
v 0.166667 0.750000 -0.083333
v 0.166667 0.833333 -0.083333
v 0.166667 0.833333 0.000000
v 0.166667 0.750000 0.000000
v 0.166667 0.833333 0.083333
v 0.166667 0.750000 0.083333
v 0.166667 0.916667 -0.083333
v 0.166667 0.916667 0.000000
v 0.083333 0.916667 0.000000
v 0.166667 0.916667 0.083333
v 0.250000 0.000000 -0.250000
v 0.250000 0.083333 -0.250000
v 0.250000 0.083333 -0.166667
v 0.250000 0.000000 -0.166667
v 0.250000 0.083333 -0.083333
v 0.250000 0.000000 -0.083333
v 0.166667 0.083333 0.000000
v 0.250000 0.083333 0.000000
v 0.250000 0.000000 0.000000
v 0.250000 0.083333 0.083333
v 0.250000 0.000000 0.083333
v 0.250000 0.083333 0.166667
v 0.250000 0.000000 0.166667
v 0.250000 0.083333 0.250000
v 0.250000 0.000000 0.250000
v 0.250000 0.250000 -0.250000
v 0.250000 0.250000 -0.333333
v 0.250000 0.166667 -0.333333
v 0.250000 0.166667 -0.250000
v 0.250000 0.250000 -0.166667
v 0.250000 0.166667 -0.166667
v 0.250000 0.250000 -0.083333
v 0.250000 0.166667 -0.083333
v 0.166667 0.250000 0.000000
v 0.250000 0.250000 0.000000
v 0.250000 0.166667 0.000000
v 0.166667 0.166667 0.000000
v 0.250000 0.250000 0.083333
v 0.250000 0.166667 0.083333
v 0.250000 0.250000 0.166667
v 0.250000 0.166667 0.166667
v 0.250000 0.250000 0.250000
v 0.250000 0.166667 0.250000
v 0.250000 0.250000 0.333333
v 0.250000 0.166667 0.333333
v 0.250000 0.500000 -0.250000
v 0.250000 0.500000 -0.333333
v 0.250000 0.416667 -0.333333
v 0.250000 0.416667 -0.250000
v 0.250000 0.500000 -0.166667
v 0.250000 0.416667 -0.166667
v 0.250000 0.500000 -0.083333
v 0.250000 0.416667 -0.083333
v 0.166667 0.500000 0.000000
v 0.250000 0.500000 0.000000
v 0.250000 0.416667 0.000000
v 0.250000 0.500000 0.083333
v 0.250000 0.416667 0.083333
v 0.250000 0.500000 0.166667
v 0.250000 0.416667 0.166667
v 0.250000 0.500000 0.250000
v 0.250000 0.416667 0.250000
v 0.250000 0.500000 0.333333
v 0.250000 0.416667 0.333333
v 0.333333 0.000000 -0.166667
v 0.333333 0.083333 -0.166667
v 0.333333 0.083333 -0.083333
v 0.333333 0.000000 -0.083333
v 0.333333 0.083333 0.000000
v 0.333333 0.000000 0.000000
v 0.333333 0.083333 0.083333
v 0.333333 0.000000 0.083333
v 0.333333 0.083333 0.166667
v 0.333333 0.000000 0.166667
v 0.333333 0.166667 -0.333333
v 0.333333 0.250000 -0.333333
v 0.333333 0.250000 -0.250000
v 0.333333 0.166667 -0.250000
v 0.333333 0.250000 -0.166667
v 0.333333 0.166667 -0.166667
v 0.333333 0.250000 -0.083333
v 0.333333 0.166667 -0.083333
v 0.333333 0.250000 0.000000
v 0.333333 0.166667 0.000000
v 0.333333 0.250000 0.083333
v 0.333333 0.166667 0.083333
v 0.333333 0.250000 0.166667
v 0.333333 0.166667 0.166667
v 0.333333 0.250000 0.250000
v 0.333333 0.166667 0.250000
v 0.333333 0.250000 0.333333
v 0.333333 0.166667 0.333333
v 0.333333 0.416667 -0.333333
v 0.333333 0.500000 -0.333333
v 0.333333 0.500000 -0.250000
v 0.333333 0.416667 -0.250000
v 0.333333 0.500000 -0.166667
v 0.333333 0.416667 -0.166667
v 0.333333 0.500000 -0.083333
v 0.333333 0.416667 -0.083333
v 0.333333 0.500000 0.000000
v 0.333333 0.416667 0.000000
v 0.333333 0.500000 0.083333
v 0.333333 0.416667 0.083333
v 0.333333 0.500000 0.166667
v 0.333333 0.416667 0.166667
v 0.333333 0.500000 0.250000
v 0.333333 0.416667 0.250000
v 0.333333 0.500000 0.333333
v 0.333333 0.416667 0.333333
v 0.416667 0.166667 -0.166667
v 0.416667 0.250000 -0.166667
v 0.416667 0.250000 -0.083333
v 0.416667 0.166667 -0.083333
v 0.416667 0.250000 0.000000
v 0.416667 0.166667 0.000000
v 0.416667 0.250000 0.083333
v 0.416667 0.166667 0.083333
v 0.416667 0.250000 0.166667
v 0.416667 0.166667 0.166667
v 0.416667 0.333333 -0.083333
v 0.416667 0.416667 -0.083333
v 0.416667 0.416667 0.000000
v 0.416667 0.333333 0.000000
v 0.333333 0.333333 -0.083333
v 0.333333 0.333333 0.000000
v 0.333333 0.416667 0.000000
v 0.333333 0.416667 -0.083333
v 0.416667 0.416667 0.083333
v 0.416667 0.333333 0.083333
v 0.333333 0.333333 0.083333
v 0.333333 0.416667 0.083333
v 0.416667 0.416667 -0.166667
v 0.416667 0.500000 -0.166667
v 0.416667 0.500000 -0.083333
v 0.416667 0.416667 -0.083333
v 0.416667 0.500000 0.000000
v 0.416667 0.416667 0.000000
v 0.416667 0.500000 0.083333
v 0.416667 0.416667 0.083333
v 0.416667 0.500000 0.166667
v 0.416667 0.416667 0.166667
v 0.416667 0.666667 -0.083333
v 0.416667 0.750000 -0.083333
v 0.416667 0.750000 0.000000
v 0.416667 0.666667 0.000000
v 0.333333 0.666667 -0.083333
v 0.333333 0.666667 0.000000
v 0.333333 0.750000 0.000000
v 0.333333 0.750000 -0.083333
v 0.416667 0.750000 0.083333
v 0.416667 0.666667 0.083333
v 0.333333 0.666667 0.083333
v 0.333333 0.750000 0.083333
vt 0.386905 0.000000
vt 0.386905 0.000000
vt 0.386905 0.083333
vt 0.386905 0.083333
vt 0.386905 0.083333
vt 0.386905 0.083333
vt 0.386905 0.000000
vt 0.386905 0.000000
vt 0.386905 0.000000
vt 0.386905 0.083333
vt 0.386905 0.083333
vt 0.386905 0.000000
vt 0.386905 0.000000
vt 0.386905 0.083333
vt 0.386905 0.083333
vt 0.386905 0.000000
vt 0.386905 0.000000
vt 0.386905 0.083333
vt 0.386905 0.083333
vt 0.386905 0.000000
vt 0.386905 0.000000
vt 0.386905 0.083333
vt 0.386905 0.083333
vt 0.386905 0.000000
vt 0.386905 0.000000
vt 0.386905 0.083333
vt 0.386905 0.083333
vt 0.386905 0.000000
vt 0.416667 0.166667
vt 0.416667 0.166667
vt 0.416667 0.250000
vt 0.416667 0.250000
vt 0.416667 0.250000
vt 0.416667 0.250000
vt 0.416667 0.166667
vt 0.416667 0.166667
vt 0.416667 0.166667
vt 0.416667 0.250000
vt 0.416667 0.250000
vt 0.416667 0.166667
vt 0.416667 0.166667
vt 0.416667 0.250000
vt 0.416667 0.250000
vt 0.416667 0.166667
vt 0.416667 0.166667
vt 0.416667 0.250000
vt 0.416667 0.250000
vt 0.416667 0.166667
vt 0.416667 0.416667
vt 0.416667 0.416667
vt 0.416667 0.500000
vt 0.416667 0.500000
vt 0.416667 0.500000
vt 0.416667 0.500000
vt 0.416667 0.416667
vt 0.416667 0.416667
vt 0.416667 0.416667
vt 0.416667 0.500000
vt 0.416667 0.500000
vt 0.416667 0.416667
vt 0.416667 0.416667
vt 0.416667 0.500000
vt 0.416667 0.500000
vt 0.416667 0.416667
vt 0.416667 0.416667
vt 0.416667 0.500000
vt 0.416667 0.500000
vt 0.416667 0.416667
vt 0.386905 0.000000
vt 0.386905 0.083333
vt 0.386905 0.083333
vt 0.386905 0.083333
vt 0.386905 0.000000
vt 0.386905 0.000000
vt 0.386905 0.083333
vt 0.386905 0.000000
vt 0.386905 0.083333
vt 0.386905 0.000000
vt 0.386905 0.083333
vt 0.386905 0.000000
vt 0.386905 0.083333
vt 0.386905 0.000000
vt 0.386905 0.083333
vt 0.386905 0.000000
vt 0.386905 0.083333
vt 0.386905 0.000000
vt 0.386905 0.000000
vt 0.386905 0.083333
vt 0.386905 0.083333
vt 0.386905 0.000000
vt 0.416667 0.166667
vt 0.416667 0.166667
vt 0.416667 0.250000
vt 0.416667 0.250000
vt 0.416667 0.250000
vt 0.416667 0.250000
vt 0.416667 0.166667
vt 0.416667 0.166667
vt 0.416667 0.250000
vt 0.416667 0.166667
vt 0.416667 0.250000
vt 0.416667 0.166667
vt 0.416667 0.250000
vt 0.416667 0.166667
vt 0.416667 0.250000
vt 0.416667 0.166667
vt 0.416667 0.250000
vt 0.416667 0.166667
vt 0.416667 0.166667
vt 0.416667 0.250000
vt 0.416667 0.250000
vt 0.416667 0.166667
vt 0.416667 0.166667
vt 0.416667 0.250000
vt 0.416667 0.250000
vt 0.416667 0.166667
vt 0.416667 0.416667
vt 0.416667 0.416667
vt 0.416667 0.500000
vt 0.416667 0.500000
vt 0.416667 0.500000
vt 0.416667 0.500000
vt 0.416667 0.416667
vt 0.416667 0.416667
vt 0.416667 0.500000
vt 0.416667 0.416667
vt 0.416667 0.500000
vt 0.416667 0.416667
vt 0.416667 0.500000
vt 0.416667 0.416667
vt 0.416667 0.500000
vt 0.416667 0.416667
vt 0.416667 0.500000
vt 0.416667 0.416667
vt 0.416667 0.416667
vt 0.416667 0.500000
vt 0.416667 0.500000
vt 0.416667 0.416667
vt 0.416667 0.416667
vt 0.416667 0.500000
vt 0.416667 0.500000
vt 0.416667 0.416667
vt 0.386905 0.083333
vt 0.386905 0.083333
vt 0.386905 0.000000
vt 0.386905 0.000000
vt 0.386905 0.083333
vt 0.386905 0.000000
vt 0.386905 0.083333
vt 0.386905 0.000000
vt 0.386905 0.083333
vt 0.386905 0.000000
vt 0.386905 0.083333
vt 0.386905 0.000000
vt 0.386905 0.083333
vt 0.386905 0.000000
vt 0.386905 0.083333
vt 0.386905 0.000000
vt 0.386905 0.083333
vt 0.386905 0.000000
vt 0.416667 0.250000
vt 0.416667 0.250000
vt 0.416667 0.166667
vt 0.416667 0.166667
vt 0.416667 0.250000
vt 0.416667 0.166667
vt 0.416667 0.250000
vt 0.416667 0.166667
vt 0.416667 0.250000
vt 0.416667 0.166667
vt 0.416667 0.250000
vt 0.416667 0.166667
vt 0.416667 0.250000
vt 0.416667 0.166667
vt 0.416667 0.250000
vt 0.416667 0.166667
vt 0.416667 0.250000
vt 0.416667 0.166667
vt 0.416667 0.500000
vt 0.416667 0.500000
vt 0.416667 0.416667
vt 0.416667 0.416667
vt 0.416667 0.500000
vt 0.416667 0.416667
vt 0.416667 0.500000
vt 0.416667 0.416667
vt 0.416667 0.500000
vt 0.416667 0.416667
vt 0.416667 0.500000
vt 0.416667 0.416667
vt 0.416667 0.500000
vt 0.416667 0.416667
vt 0.416667 0.500000
vt 0.416667 0.416667
vt 0.416667 0.500000
vt 0.416667 0.416667
vt 0.386905 0.000000
vt 0.386905 0.083333
vt 0.386905 0.083333
vt 0.386905 0.083333
vt 0.386905 0.000000
vt 0.386905 0.000000
vt 0.386905 0.083333
vt 0.386905 0.000000
vt 0.386905 0.083333
vt 0.386905 0.000000
vt 0.386905 0.083333
vt 0.386905 0.000000
vt 0.386905 0.000000
vt 0.386905 0.000000
vt 0.386905 0.083333
vt 0.386905 0.083333
vt 0.386905 0.000000
vt 0.386905 0.083333
vt 0.386905 0.000000
vt 0.386905 0.083333
vt 0.386905 0.000000
vt 0.386905 0.000000
vt 0.386905 0.083333
vt 0.386905 0.083333
vt 0.386905 0.000000
vt 0.166667 0.083333
vt 0.166667 0.083333
vt 0.166667 0.166667
vt 0.166667 0.166667
vt 0.166667 0.166667
vt 0.166667 0.083333
vt 0.166667 0.083333
vt 0.166667 0.166667
vt 0.166667 0.083333
vt 0.166667 0.166667
vt 0.416667 0.166667
vt 0.416667 0.250000
vt 0.416667 0.250000
vt 0.416667 0.250000
vt 0.416667 0.166667
vt 0.416667 0.166667
vt 0.416667 0.250000
vt 0.416667 0.166667
vt 0.416667 0.250000
vt 0.416667 0.166667
vt 0.416667 0.250000
vt 0.416667 0.166667
vt 0.416667 0.250000
vt 0.416667 0.250000
vt 0.416667 0.166667
vt 0.416667 0.166667
vt 0.416667 0.250000
vt 0.416667 0.166667
vt 0.416667 0.250000
vt 0.416667 0.166667
vt 0.416667 0.166667
vt 0.416667 0.250000
vt 0.416667 0.250000
vt 0.416667 0.166667
vt 0.166667 0.250000
vt 0.166667 0.250000
vt 0.166667 0.333333
vt 0.166667 0.333333
vt 0.166667 0.333333
vt 0.166667 0.333333
vt 0.166667 0.250000
vt 0.166667 0.250000
vt 0.166667 0.333333
vt 0.166667 0.333333
vt 0.166667 0.250000
vt 0.416667 0.416667
vt 0.416667 0.500000
vt 0.416667 0.500000
vt 0.416667 0.500000
vt 0.416667 0.416667
vt 0.416667 0.416667
vt 0.416667 0.500000
vt 0.416667 0.416667
vt 0.416667 0.500000
vt 0.416667 0.416667
vt 0.416667 0.500000
vt 0.416667 0.416667
vt 0.416667 0.416667
vt 0.416667 0.416667
vt 0.416667 0.500000
vt 0.416667 0.500000
vt 0.416667 0.416667
vt 0.416667 0.500000
vt 0.416667 0.416667
vt 0.416667 0.500000
vt 0.416667 0.416667
vt 0.416667 0.416667
vt 0.416667 0.500000
vt 0.416667 0.500000
vt 0.416667 0.416667
vt 0.166667 0.500000
vt 0.166667 0.500000
vt 0.166667 0.583333
vt 0.166667 0.583333
vt 0.166667 0.583333
vt 0.166667 0.500000
vt 0.166667 0.500000
vt 0.166667 0.583333
vt 0.166667 0.500000
vt 0.166667 0.583333
vt 0.166667 0.666667
vt 0.166667 0.666667
vt 0.166667 0.666667
vt 0.166667 0.666667
vt 0.166667 0.666667
vt 0.166667 0.666667
vt 0.166667 0.750000
vt 0.166667 0.750000
vt 0.166667 0.833333
vt 0.166667 0.833333
vt 0.166667 0.750000
vt 0.166667 0.750000
vt 0.166667 0.833333
vt 0.166667 0.750000
vt 0.166667 0.833333
vt 0.166667 0.750000
vt 0.166667 0.833333
vt 0.166667 0.916667
vt 0.166667 0.916667
vt 0.166667 0.916667
vt 0.166667 0.916667
vt 0.166667 0.916667
vt 0.166667 0.916667
vt 0.386905 0.083333
vt 0.386905 0.083333
vt 0.386905 0.000000
vt 0.386905 0.000000
vt 0.386905 0.083333
vt 0.386905 0.000000
vt 0.386905 0.083333
vt 0.386905 0.000000
vt 0.386905 0.000000
vt 0.386905 0.000000
vt 0.386905 0.000000
vt 0.386905 0.000000
vt 0.386905 0.083333
vt 0.386905 0.083333
vt 0.386905 0.000000
vt 0.386905 0.083333
vt 0.386905 0.000000
vt 0.386905 0.083333
vt 0.386905 0.000000
vt 0.166667 0.083333
vt 0.166667 0.166667
vt 0.166667 0.166667
vt 0.166667 0.083333
vt 0.166667 0.083333
vt 0.166667 0.166667
vt 0.166667 0.083333
vt 0.166667 0.166667
vt 0.416667 0.250000
vt 0.416667 0.250000
vt 0.416667 0.166667
vt 0.416667 0.166667
vt 0.416667 0.250000
vt 0.416667 0.166667
vt 0.416667 0.250000
vt 0.416667 0.166667
vt 0.416667 0.250000
vt 0.416667 0.250000
vt 0.416667 0.166667
vt 0.416667 0.166667
vt 0.416667 0.250000
vt 0.416667 0.166667
vt 0.416667 0.250000
vt 0.416667 0.166667
vt 0.166667 0.250000
vt 0.166667 0.333333
vt 0.166667 0.333333
vt 0.166667 0.333333
vt 0.166667 0.250000
vt 0.166667 0.333333
vt 0.166667 0.333333
vt 0.166667 0.250000
vt 0.166667 0.333333
vt 0.166667 0.333333
vt 0.166667 0.250000
vt 0.416667 0.500000
vt 0.416667 0.500000
vt 0.416667 0.416667
vt 0.416667 0.416667
vt 0.416667 0.500000
vt 0.416667 0.416667
vt 0.416667 0.500000
vt 0.416667 0.416667
vt 0.416667 0.416667
vt 0.416667 0.416667
vt 0.416667 0.416667
vt 0.416667 0.416667
vt 0.416667 0.500000
vt 0.416667 0.500000
vt 0.416667 0.416667
vt 0.416667 0.500000
vt 0.416667 0.416667
vt 0.416667 0.500000
vt 0.416667 0.416667
vt 0.166667 0.500000
vt 0.166667 0.583333
vt 0.166667 0.583333
vt 0.166667 0.500000
vt 0.166667 0.500000
vt 0.166667 0.583333
vt 0.166667 0.500000
vt 0.166667 0.583333
vt 0.166667 0.666667
vt 0.166667 0.666667
vt 0.166667 0.666667
vt 0.166667 0.666667
vt 0.166667 0.666667
vt 0.166667 0.666667
vt 0.166667 0.666667
vt 0.166667 0.750000
vt 0.166667 0.833333
vt 0.166667 0.750000
vt 0.166667 0.750000
vt 0.166667 0.833333
vt 0.166667 0.750000
vt 0.166667 0.750000
vt 0.166667 0.750000
vt 0.166667 0.833333
vt 0.166667 0.750000
vt 0.166667 0.833333
vt 0.166667 0.916667
vt 0.166667 0.916667
vt 0.166667 0.916667
vt 0.166667 0.916667
vt 0.166667 0.916667
vt 0.166667 0.916667
vt 0.083333 0.916667
vt 0.083333 0.916667
vt 0.083333 1.000000
vt 0.083333 1.000000
vt 0.083333 1.000000
vt 0.083333 1.000000
vt 0.083333 0.916667
vt 0.083333 0.916667
vt 0.083333 1.000000
vt 0.083333 1.000000
vt 0.083333 0.916667
vt 0.386905 0.000000
vt 0.386905 0.083333
vt 0.386905 0.083333
vt 0.386905 0.000000
vt 0.386905 0.083333
vt 0.386905 0.000000
vt 0.386905 0.083333
vt 0.386905 0.000000
vt 0.386905 0.000000
vt 0.386905 0.000000
vt 0.386905 0.000000
vt 0.386905 0.000000
vt 0.386905 0.083333
vt 0.386905 0.083333
vt 0.386905 0.000000
vt 0.386905 0.083333
vt 0.386905 0.000000
vt 0.386905 0.083333
vt 0.386905 0.000000
vt 0.166667 0.083333
vt 0.166667 0.166667
vt 0.166667 0.166667
vt 0.166667 0.083333
vt 0.166667 0.083333
vt 0.166667 0.166667
vt 0.166667 0.166667
vt 0.166667 0.083333
vt 0.416667 0.250000
vt 0.416667 0.250000
vt 0.416667 0.166667
vt 0.416667 0.166667
vt 0.416667 0.250000
vt 0.416667 0.166667
vt 0.416667 0.250000
vt 0.416667 0.166667
vt 0.416667 0.250000
vt 0.416667 0.250000
vt 0.416667 0.166667
vt 0.416667 0.166667
vt 0.416667 0.250000
vt 0.416667 0.166667
vt 0.416667 0.250000
vt 0.416667 0.166667
vt 0.166667 0.250000
vt 0.166667 0.333333
vt 0.166667 0.333333
vt 0.166667 0.250000
vt 0.166667 0.333333
vt 0.166667 0.333333
vt 0.166667 0.250000
vt 0.166667 0.333333
vt 0.166667 0.250000
vt 0.416667 0.500000
vt 0.416667 0.500000
vt 0.416667 0.416667
vt 0.416667 0.416667
vt 0.416667 0.500000
vt 0.416667 0.416667
vt 0.416667 0.500000
vt 0.416667 0.416667
vt 0.416667 0.416667
vt 0.416667 0.416667
vt 0.416667 0.416667
vt 0.416667 0.416667
vt 0.416667 0.500000
vt 0.416667 0.500000
vt 0.416667 0.416667
vt 0.416667 0.500000
vt 0.416667 0.416667
vt 0.416667 0.500000
vt 0.416667 0.416667
vt 0.166667 0.500000
vt 0.166667 0.583333
vt 0.166667 0.583333
vt 0.166667 0.500000
vt 0.166667 0.500000
vt 0.166667 0.583333
vt 0.166667 0.583333
vt 0.166667 0.500000
vt 0.166667 0.666667
vt 0.166667 0.666667
vt 0.166667 0.666667
vt 0.166667 0.666667
vt 0.166667 0.666667
vt 0.166667 0.750000
vt 0.166667 0.833333
vt 0.166667 0.833333
vt 0.166667 0.750000
vt 0.166667 0.750000
vt 0.166667 0.750000
vt 0.166667 0.833333
vt 0.166667 0.833333
vt 0.166667 0.750000
vt 0.166667 0.916667
vt 0.166667 0.916667
vt 0.166667 0.916667
vt 0.166667 0.916667
vt 0.083333 0.916667
vt 0.083333 1.000000
vt 0.083333 1.000000
vt 0.083333 0.916667
vt 0.083333 1.000000
vt 0.083333 0.916667
vt 0.386905 0.000000
vt 0.386905 0.083333
vt 0.386905 0.083333
vt 0.386905 0.000000
vt 0.386905 0.083333
vt 0.386905 0.000000
vt 0.386905 0.083333
vt 0.386905 0.083333
vt 0.386905 0.000000
vt 0.386905 0.000000
vt 0.386905 0.000000
vt 0.386905 0.083333
vt 0.386905 0.083333
vt 0.386905 0.083333
vt 0.386905 0.000000
vt 0.386905 0.083333
vt 0.386905 0.000000
vt 0.386905 0.083333
vt 0.386905 0.000000
vt 0.166667 0.083333
vt 0.166667 0.166667
vt 0.166667 0.166667
vt 0.166667 0.083333
vt 0.166667 0.166667
vt 0.166667 0.083333
vt 0.416667 0.166667
vt 0.416667 0.250000
vt 0.416667 0.250000
vt 0.416667 0.166667
vt 0.416667 0.250000
vt 0.416667 0.166667
vt 0.416667 0.250000
vt 0.416667 0.166667
vt 0.416667 0.250000
vt 0.416667 0.250000
vt 0.416667 0.166667
vt 0.416667 0.166667
vt 0.416667 0.250000
vt 0.416667 0.250000
vt 0.416667 0.250000
vt 0.416667 0.166667
vt 0.416667 0.166667
vt 0.416667 0.166667
vt 0.416667 0.250000
vt 0.416667 0.166667
vt 0.416667 0.250000
vt 0.416667 0.166667
vt 0.416667 0.250000
vt 0.416667 0.166667
vt 0.166667 0.250000
vt 0.166667 0.333333
vt 0.166667 0.333333
vt 0.166667 0.250000
vt 0.166667 0.333333
vt 0.166667 0.250000
vt 0.416667 0.416667
vt 0.416667 0.500000
vt 0.416667 0.500000
vt 0.416667 0.416667
vt 0.416667 0.500000
vt 0.416667 0.416667
vt 0.416667 0.500000
vt 0.416667 0.416667
vt 0.416667 0.500000
vt 0.416667 0.500000
vt 0.416667 0.416667
vt 0.416667 0.416667
vt 0.416667 0.416667
vt 0.416667 0.500000
vt 0.416667 0.500000
vt 0.416667 0.500000
vt 0.416667 0.416667
vt 0.416667 0.500000
vt 0.416667 0.416667
vt 0.416667 0.500000
vt 0.416667 0.416667
vt 0.416667 0.500000
vt 0.416667 0.416667
vt 0.166667 0.500000
vt 0.166667 0.583333
vt 0.166667 0.583333
vt 0.166667 0.500000
vt 0.166667 0.583333
vt 0.166667 0.500000
vt 0.166667 0.666667
vt 0.166667 0.666667
vt 0.166667 0.666667
vt 0.166667 0.750000
vt 0.166667 0.833333
vt 0.166667 0.833333
vt 0.166667 0.750000
vt 0.166667 0.833333
vt 0.166667 0.750000
vt 0.166667 0.916667
vt 0.166667 0.916667
vt 0.166667 0.916667
vt 0.166667 0.916667
vt 0.386905 0.000000
vt 0.386905 0.083333
vt 0.386905 0.083333
vt 0.386905 0.000000
vt 0.386905 0.083333
vt 0.386905 0.000000
vt 0.386905 0.083333
vt 0.386905 0.083333
vt 0.386905 0.000000
vt 0.386905 0.083333
vt 0.386905 0.000000
vt 0.386905 0.083333
vt 0.386905 0.000000
vt 0.386905 0.083333
vt 0.386905 0.000000
vt 0.416667 0.250000
vt 0.416667 0.250000
vt 0.416667 0.166667
vt 0.416667 0.166667
vt 0.416667 0.250000
vt 0.416667 0.166667
vt 0.416667 0.250000
vt 0.416667 0.166667
vt 0.416667 0.250000
vt 0.416667 0.250000
vt 0.416667 0.166667
vt 0.416667 0.166667
vt 0.416667 0.250000
vt 0.416667 0.166667
vt 0.416667 0.250000
vt 0.416667 0.166667
vt 0.416667 0.250000
vt 0.416667 0.166667
vt 0.416667 0.250000
vt 0.416667 0.166667
vt 0.416667 0.500000
vt 0.416667 0.500000
vt 0.416667 0.416667
vt 0.416667 0.416667
vt 0.416667 0.500000
vt 0.416667 0.416667
vt 0.416667 0.500000
vt 0.416667 0.416667
vt 0.416667 0.500000
vt 0.416667 0.500000
vt 0.416667 0.416667
vt 0.416667 0.500000
vt 0.416667 0.416667
vt 0.416667 0.500000
vt 0.416667 0.416667
vt 0.416667 0.500000
vt 0.416667 0.416667
vt 0.416667 0.500000
vt 0.416667 0.416667
vt 0.386905 0.000000
vt 0.386905 0.083333
vt 0.386905 0.083333
vt 0.386905 0.000000
vt 0.386905 0.083333
vt 0.386905 0.000000
vt 0.386905 0.083333
vt 0.386905 0.000000
vt 0.386905 0.083333
vt 0.386905 0.000000
vt 0.416667 0.166667
vt 0.416667 0.250000
vt 0.416667 0.250000
vt 0.416667 0.166667
vt 0.416667 0.250000
vt 0.416667 0.166667
vt 0.416667 0.250000
vt 0.416667 0.166667
vt 0.416667 0.250000
vt 0.416667 0.166667
vt 0.416667 0.250000
vt 0.416667 0.166667
vt 0.416667 0.250000
vt 0.416667 0.166667
vt 0.416667 0.250000
vt 0.416667 0.166667
vt 0.416667 0.250000
vt 0.416667 0.166667
vt 0.416667 0.416667
vt 0.416667 0.500000
vt 0.416667 0.500000
vt 0.416667 0.416667
vt 0.416667 0.500000
vt 0.416667 0.416667
vt 0.416667 0.500000
vt 0.416667 0.416667
vt 0.416667 0.500000
vt 0.416667 0.416667
vt 0.416667 0.500000
vt 0.416667 0.416667
vt 0.416667 0.500000
vt 0.416667 0.416667
vt 0.416667 0.500000
vt 0.416667 0.416667
vt 0.416667 0.500000
vt 0.416667 0.416667
vt 0.416667 0.166667
vt 0.416667 0.250000
vt 0.416667 0.250000
vt 0.416667 0.166667
vt 0.416667 0.250000
vt 0.416667 0.166667
vt 0.416667 0.250000
vt 0.416667 0.166667
vt 0.416667 0.250000
vt 0.416667 0.166667
vt 0.041667 0.333333
vt 0.041667 0.416667
vt 0.041667 0.416667
vt 0.041667 0.333333
vt 0.041667 0.333333
vt 0.041667 0.333333
vt 0.041667 0.416667
vt 0.041667 0.416667
vt 0.041667 0.416667
vt 0.041667 0.333333
vt 0.041667 0.333333
vt 0.041667 0.416667
vt 0.416667 0.416667
vt 0.416667 0.500000
vt 0.416667 0.500000
vt 0.416667 0.416667
vt 0.416667 0.500000
vt 0.416667 0.416667
vt 0.416667 0.500000
vt 0.416667 0.416667
vt 0.416667 0.500000
vt 0.416667 0.416667
vt 0.041667 0.666667
vt 0.041667 0.750000
vt 0.041667 0.750000
vt 0.041667 0.666667
vt 0.041667 0.666667
vt 0.041667 0.666667
vt 0.041667 0.750000
vt 0.041667 0.750000
vt 0.041667 0.750000
vt 0.041667 0.666667
vt 0.041667 0.666667
vt 0.041667 0.750000
usemtl torchpart
f 1/1 2/2 3/3
f 1/1 3/3 4/4
f 4/4 3/3 5/5
f 4/4 5/5 6/6
f 1/1 7/7 8/8
f 1/1 8/8 2/2
f 1/1 4/4 6/6
f 1/1 6/6 7/7
f 2/2 9/9 10/10
f 2/2 10/10 3/3
f 3/3 10/10 11/11
f 3/3 11/11 5/5
f 2/2 8/8 12/12
f 2/2 12/12 9/9
f 9/9 13/13 14/14
f 9/9 14/14 10/10
f 10/10 14/14 15/15
f 10/10 15/15 11/11
f 9/9 12/12 16/16
f 9/9 16/16 13/13
f 13/13 17/17 18/18
f 13/13 18/18 14/14
f 14/14 18/18 19/19
f 14/14 19/19 15/15
f 13/13 16/16 20/20
f 13/13 20/20 17/17
f 17/17 21/21 22/22
f 17/17 22/22 18/18
f 18/18 22/22 23/23
f 18/18 23/23 19/19
f 17/17 20/20 24/24
f 17/17 24/24 21/21
f 21/21 25/25 26/26
f 21/21 26/26 22/22
f 22/22 26/26 27/27
f 22/22 27/27 23/23
f 21/21 24/24 28/28
f 21/21 28/28 25/25
f 25/25 28/28 27/27
f 25/25 27/27 26/26
f 29/29 30/30 31/31
f 29/29 31/31 32/32
f 32/32 31/31 33/33
f 32/32 33/33 34/34
f 29/29 35/35 36/36
f 29/29 36/36 30/30
f 29/29 32/32 34/34
f 29/29 34/34 35/35
f 30/30 37/37 38/38
f 30/30 38/38 31/31
f 31/31 38/38 39/39
f 31/31 39/39 33/33
f 30/30 36/36 40/40
f 30/30 40/40 37/37
f 37/37 41/41 42/42
f 37/37 42/42 38/38
f 38/38 42/42 43/43
f 38/38 43/43 39/39
f 37/37 40/40 44/44
f 37/37 44/44 41/41
f 41/41 45/45 46/46
f 41/41 46/46 42/42
f 42/42 46/46 47/47
f 42/42 47/47 43/43
f 41/41 44/44 48/48
f 41/41 48/48 45/45
f 45/45 48/48 47/47
f 45/45 47/47 46/46
f 49/49 50/50 51/51
f 49/49 51/51 52/52
f 52/52 51/51 53/53
f 52/52 53/53 54/54
f 49/49 55/55 56/56
f 49/49 56/56 50/50
f 49/49 52/52 54/54
f 49/49 54/54 55/55
f 50/50 57/57 58/58
f 50/50 58/58 51/51
f 51/51 58/58 59/59
f 51/51 59/59 53/53
f 50/50 56/56 60/60
f 50/50 60/60 57/57
f 57/57 61/61 62/62
f 57/57 62/62 58/58
f 58/58 62/62 63/63
f 58/58 63/63 59/59
f 57/57 60/60 64/64
f 57/57 64/64 61/61
f 61/61 65/65 66/66
f 61/61 66/66 62/62
f 62/62 66/66 67/67
f 62/62 67/67 63/63
f 61/61 64/64 68/68
f 61/61 68/68 65/65
f 65/65 68/68 67/67
f 65/65 67/67 66/66
f 69/69 7/7 6/6
f 69/69 6/6 70/70
f 70/70 6/6 71/71
f 70/70 71/71 72/72
f 69/69 73/73 74/74
f 69/69 74/74 7/7
f 69/69 70/70 72/72
f 69/69 72/72 73/73
f 6/6 5/5 75/75
f 6/6 75/75 71/71
f 7/7 74/74 76/76
f 7/7 76/76 8/8
f 5/5 11/11 77/77
f 5/5 77/77 75/75
f 8/8 76/76 78/78
f 8/8 78/78 12/12
f 11/11 15/15 79/79
f 11/11 79/79 77/77
f 12/12 78/78 80/80
f 12/12 80/80 16/16
f 15/15 19/19 81/81
f 15/15 81/81 79/79
f 16/16 80/80 82/82
f 16/16 82/82 20/20
f 19/19 23/23 83/83
f 19/19 83/83 81/81
f 20/20 82/82 84/84
f 20/20 84/84 24/24
f 23/23 27/27 85/85
f 23/23 85/85 83/83
f 24/24 84/84 86/86
f 24/24 86/86 28/28
f 28/28 87/87 88/88
f 28/28 88/88 27/27
f 27/27 88/88 89/89
f 27/27 89/89 85/85
f 28/28 86/86 90/90
f 28/28 90/90 87/87
f 87/87 90/90 89/89
f 87/87 89/89 88/88
f 91/91 92/92 93/93
f 91/91 93/93 94/94
f 94/94 93/93 95/95
f 94/94 95/95 96/96
f 91/91 97/97 98/98
f 91/91 98/98 92/92
f 91/91 94/94 96/96
f 91/91 96/96 97/97
f 92/92 35/35 34/34
f 92/92 34/34 93/93
f 93/93 34/34 99/99
f 93/93 99/99 95/95
f 92/92 98/98 100/100
f 92/92 100/100 35/35
f 34/34 33/33 101/101
f 34/34 101/101 99/99
f 35/35 100/100 102/102
f 35/35 102/102 36/36
f 33/33 39/39 103/103
f 33/33 103/103 101/101
f 36/36 102/102 104/104
f 36/36 104/104 40/40
f 39/39 43/43 105/105
f 39/39 105/105 103/103
f 40/40 104/104 106/106
f 40/40 106/106 44/44
f 43/43 47/47 107/107
f 43/43 107/107 105/105
f 44/44 106/106 108/108
f 44/44 108/108 48/48
f 48/48 109/109 110/110
f 48/48 110/110 47/47
f 47/47 110/110 111/111
f 47/47 111/111 107/107
f 48/48 108/108 112/112
f 48/48 112/112 109/109
f 109/109 113/113 114/114
f 109/109 114/114 110/110
f 110/110 114/114 115/115
f 110/110 115/115 111/111
f 109/109 112/112 116/116
f 109/109 116/116 113/113
f 113/113 116/116 115/115
f 113/113 115/115 114/114
f 117/117 118/118 119/119
f 117/117 119/119 120/120
f 120/120 119/119 121/121
f 120/120 121/121 122/122
f 117/117 123/123 124/124
f 117/117 124/124 118/118
f 117/117 120/120 122/122
f 117/117 122/122 123/123
f 118/118 55/55 54/54
f 118/118 54/54 119/119
f 119/119 54/54 125/125
f 119/119 125/125 121/121
f 118/118 124/124 126/126
f 118/118 126/126 55/55
f 54/54 53/53 127/127
f 54/54 127/127 125/125
f 55/55 126/126 128/128
f 55/55 128/128 56/56
f 53/53 59/59 129/129
f 53/53 129/129 127/127
f 56/56 128/128 130/130
f 56/56 130/130 60/60
f 59/59 63/63 131/131
f 59/59 131/131 129/129
f 60/60 130/130 132/132
f 60/60 132/132 64/64
f 63/63 67/67 133/133
f 63/63 133/133 131/131
f 64/64 132/132 134/134
f 64/64 134/134 68/68
f 68/68 135/135 136/136
f 68/68 136/136 67/67
f 67/67 136/136 137/137
f 67/67 137/137 133/133
f 68/68 134/134 138/138
f 68/68 138/138 135/135
f 135/135 139/139 140/140
f 135/135 140/140 136/136
f 136/136 140/140 141/141
f 136/136 141/141 137/137
f 135/135 138/138 142/142
f 135/135 142/142 139/139
f 139/139 142/142 141/141
f 139/139 141/141 140/140
f 72/72 71/71 143/143
f 72/72 143/143 144/144
f 73/73 145/145 146/146
f 73/73 146/146 74/74
f 73/73 72/72 144/144
f 73/73 144/144 145/145
f 71/71 75/75 147/147
f 71/71 147/147 143/143
f 74/74 146/146 148/148
f 74/74 148/148 76/76
f 75/75 77/77 149/149
f 75/75 149/149 147/147
f 76/76 148/148 150/150
f 76/76 150/150 78/78
f 77/77 79/79 151/151
f 77/77 151/151 149/149
f 78/78 150/150 152/152
f 78/78 152/152 80/80
f 79/79 81/81 153/153
f 79/79 153/153 151/151
f 80/80 152/152 154/154
f 80/80 154/154 82/82
f 81/81 83/83 155/155
f 81/81 155/155 153/153
f 82/82 154/154 156/156
f 82/82 156/156 84/84
f 83/83 85/85 157/157
f 83/83 157/157 155/155
f 84/84 156/156 158/158
f 84/84 158/158 86/86
f 85/85 89/89 159/159
f 85/85 159/159 157/157
f 86/86 158/158 160/160
f 86/86 160/160 90/90
f 90/90 160/160 159/159
f 90/90 159/159 89/89
f 96/96 95/95 161/161
f 96/96 161/161 162/162
f 97/97 163/163 164/164
f 97/97 164/164 98/98
f 97/97 96/96 162/162
f 97/97 162/162 163/163
f 95/95 99/99 165/165
f 95/95 165/165 161/161
f 98/98 164/164 166/166
f 98/98 166/166 100/100
f 99/99 101/101 167/167
f 99/99 167/167 165/165
f 100/100 166/166 168/168
f 100/100 168/168 102/102
f 101/101 103/103 169/169
f 101/101 169/169 167/167
f 102/102 168/168 170/170
f 102/102 170/170 104/104
f 103/103 105/105 171/171
f 103/103 171/171 169/169
f 104/104 170/170 172/172
f 104/104 172/172 106/106
f 105/105 107/107 173/173
f 105/105 173/173 171/171
f 106/106 172/172 174/174
f 106/106 174/174 108/108
f 107/107 111/111 175/175
f 107/107 175/175 173/173
f 108/108 174/174 176/176
f 108/108 176/176 112/112
f 111/111 115/115 177/177
f 111/111 177/177 175/175
f 112/112 176/176 178/178
f 112/112 178/178 116/116
f 116/116 178/178 177/177
f 116/116 177/177 115/115
f 122/122 121/121 179/179
f 122/122 179/179 180/180
f 123/123 181/181 182/182
f 123/123 182/182 124/124
f 123/123 122/122 180/180
f 123/123 180/180 181/181
f 121/121 125/125 183/183
f 121/121 183/183 179/179
f 124/124 182/182 184/184
f 124/124 184/184 126/126
f 125/125 127/127 185/185
f 125/125 185/185 183/183
f 126/126 184/184 186/186
f 126/126 186/186 128/128
f 127/127 129/129 187/187
f 127/127 187/187 185/185
f 128/128 186/186 188/188
f 128/128 188/188 130/130
f 129/129 131/131 189/189
f 129/129 189/189 187/187
f 130/130 188/188 190/190
f 130/130 190/190 132/132
f 131/131 133/133 191/191
f 131/131 191/191 189/189
f 132/132 190/190 192/192
f 132/132 192/192 134/134
f 133/133 137/137 193/193
f 133/133 193/193 191/191
f 134/134 192/192 194/194
f 134/134 194/194 138/138
f 137/137 141/141 195/195
f 137/137 195/195 193/193
f 138/138 194/194 196/196
f 138/138 196/196 142/142
f 142/142 196/196 195/195
f 142/142 195/195 141/141
f 197/197 145/145 144/144
f 197/197 144/144 198/198
f 198/198 144/144 199/199
f 198/198 199/199 200/200
f 197/197 201/201 202/202
f 197/197 202/202 145/145
f 197/197 198/198 200/200
f 197/197 200/200 201/201
f 144/144 143/143 203/203
f 144/144 203/203 199/199
f 145/145 202/202 204/204
f 145/145 204/204 146/146
f 143/143 147/147 205/205
f 143/143 205/205 203/203
f 146/146 204/204 206/206
f 146/146 206/206 148/148
f 147/147 149/149 207/207
f 147/147 207/207 205/205
f 148/148 206/206 208/208
f 148/148 208/208 150/150
f 150/150 208/208 209/209
f 150/150 209/209 152/152
f 152/152 209/209 210/210
f 152/152 210/210 154/154
f 153/153 155/155 211/211
f 153/153 211/211 212/212
f 154/154 210/210 213/213
f 154/154 213/213 156/156
f 155/155 157/157 214/214
f 155/155 214/214 211/211
f 156/156 213/213 215/215
f 156/156 215/215 158/158
f 157/157 159/159 216/216
f 157/157 216/216 214/214
f 158/158 215/215 217/217
f 158/158 217/217 160/160
f 160/160 218/218 219/219
f 160/160 219/219 159/159
f 159/159 219/219 220/220
f 159/159 220/220 216/216
f 160/160 217/217 221/221
f 160/160 221/221 218/218
f 218/218 221/221 220/220
f 218/218 220/220 219/219
f 222/222 223/223 224/224
f 222/222 224/224 225/225
f 222/222 225/225 226/226
f 222/222 226/226 227/227
f 223/223 228/228 229/229
f 223/223 229/229 224/224
f 228/228 230/230 231/231
f 228/228 231/231 229/229
f 232/232 163/163 162/162
f 232/232 162/162 233/233
f 233/233 162/162 234/234
f 233/233 234/234 235/235
f 232/232 236/236 237/237
f 232/232 237/237 163/163
f 232/232 233/233 235/235
f 232/232 235/235 236/236
f 162/162 161/161 238/238
f 162/162 238/238 234/234
f 163/163 237/237 239/239
f 163/163 239/239 164/164
f 161/161 165/165 240/240
f 161/161 240/240 238/238
f 164/164 239/239 241/241
f 164/164 241/241 166/166
f 165/165 167/167 242/242
f 165/165 242/242 240/240
f 166/166 241/241 243/243
f 166/166 243/243 168/168
f 171/171 173/173 244/244
f 171/171 244/244 245/245
f 172/172 246/246 247/247
f 172/172 247/247 174/174
f 173/173 175/175 248/248
f 173/173 248/248 244/244
f 174/174 247/247 249/249
f 174/174 249/249 176/176
f 175/175 177/177 250/250
f 175/175 250/250 248/248
f 176/176 249/249 251/251
f 176/176 251/251 178/178
f 178/178 252/252 253/253
f 178/178 253/253 177/177
f 177/177 253/253 254/254
f 177/177 254/254 250/250
f 178/178 251/251 255/255
f 178/178 255/255 252/252
f 252/252 255/255 254/254
f 252/252 254/254 253/253
f 256/256 257/257 258/258
f 256/256 258/258 259/259
f 259/259 258/258 260/260
f 259/259 260/260 261/261
f 256/256 259/259 261/261
f 256/256 261/261 262/262
f 257/257 263/263 264/264
f 257/257 264/264 258/258
f 258/258 264/264 265/265
f 258/258 265/265 260/260
f 263/263 266/266 265/265
f 263/263 265/265 264/264
f 267/267 181/181 180/180
f 267/267 180/180 268/268
f 268/268 180/180 269/269
f 268/268 269/269 270/270
f 267/267 271/271 272/272
f 267/267 272/272 181/181
f 267/267 268/268 270/270
f 267/267 270/270 271/271
f 180/180 179/179 273/273
f 180/180 273/273 269/269
f 181/181 272/272 274/274
f 181/181 274/274 182/182
f 179/179 183/183 275/275
f 179/179 275/275 273/273
f 182/182 274/274 276/276
f 182/182 276/276 184/184
f 183/183 185/185 277/277
f 183/183 277/277 275/275
f 184/184 276/276 278/278
f 184/184 278/278 186/186
f 186/186 278/278 279/279
f 186/186 279/279 188/188
f 188/188 279/279 280/280
f 188/188 280/280 190/190
f 189/189 191/191 281/281
f 189/189 281/281 282/282
f 190/190 280/280 283/283
f 190/190 283/283 192/192
f 191/191 193/193 284/284
f 191/191 284/284 281/281
f 192/192 283/283 285/285
f 192/192 285/285 194/194
f 193/193 195/195 286/286
f 193/193 286/286 284/284
f 194/194 285/285 287/287
f 194/194 287/287 196/196
f 196/196 288/288 289/289
f 196/196 289/289 195/195
f 195/195 289/289 290/290
f 195/195 290/290 286/286
f 196/196 287/287 291/291
f 196/196 291/291 288/288
f 288/288 291/291 290/290
f 288/288 290/290 289/289
f 292/292 293/293 294/294
f 292/292 294/294 295/295
f 292/292 295/295 296/296
f 292/292 296/296 297/297
f 293/293 298/298 299/299
f 293/293 299/299 294/294
f 298/298 300/300 301/301
f 298/298 301/301 299/299
f 295/295 294/294 302/302
f 295/295 302/302 303/303
f 303/303 302/302 304/304
f 303/303 304/304 305/305
f 295/295 303/303 305/305
f 295/295 305/305 296/296
f 294/294 299/299 306/306
f 294/294 306/306 302/302
f 302/302 306/306 307/307
f 302/302 307/307 304/304
f 299/299 301/301 307/307
f 299/299 307/307 306/306
f 308/308 309/309 310/310
f 308/308 310/310 311/311
f 308/308 312/312 313/313
f 308/308 313/313 309/309
f 308/308 311/311 314/314
f 308/308 314/314 312/312
f 309/309 315/315 316/316
f 309/309 316/316 310/310
f 309/309 313/313 317/317
f 309/309 317/317 315/315
f 315/315 317/317 318/318
f 315/315 318/318 316/316
f 311/311 310/310 319/319
f 311/311 319/319 320/320
f 320/320 319/319 321/321
f 320/320 321/321 322/322
f 311/311 320/320 322/322
f 311/311 322/322 314/314
f 310/310 316/316 323/323
f 310/310 323/323 319/319
f 319/319 323/323 324/324
f 319/319 324/324 321/321
f 316/316 318/318 324/324
f 316/316 324/324 323/323
f 200/200 199/199 325/325
f 200/200 325/325 326/326
f 201/201 327/327 328/328
f 201/201 328/328 202/202
f 201/201 200/200 326/326
f 201/201 326/326 327/327
f 199/199 203/203 329/329
f 199/199 329/329 325/325
f 202/202 328/328 330/330
f 202/202 330/330 204/204
f 203/203 205/205 331/331
f 203/203 331/331 329/329
f 204/204 330/330 332/332
f 204/204 332/332 206/206
f 206/206 332/332 333/333
f 206/206 333/333 208/208
f 208/208 333/333 334/334
f 208/208 334/334 209/209
f 209/209 334/334 335/335
f 209/209 335/335 210/210
f 210/210 335/335 336/336
f 210/210 336/336 213/213
f 211/211 214/214 337/337
f 211/211 337/337 338/338
f 213/213 336/336 339/339
f 213/213 339/339 215/215
f 214/214 216/216 340/340
f 214/214 340/340 337/337
f 215/215 339/339 341/341
f 215/215 341/341 217/217
f 216/216 220/220 342/342
f 216/216 342/342 340/340
f 217/217 341/341 343/343
f 217/217 343/343 221/221
f 221/221 343/343 342/342
f 221/221 342/342 220/220
f 344/344 227/227 226/226
f 344/344 226/226 345/345
f 344/344 345/345 346/346
f 344/344 346/346 347/347
f 230/230 348/348 349/349
f 230/230 349/349 231/231
f 348/348 350/350 351/351
f 348/348 351/351 349/349
f 235/235 234/234 352/352
f 235/235 352/352 353/353
f 236/236 354/354 355/355
f 236/236 355/355 237/237
f 236/236 235/235 353/353
f 236/236 353/353 354/354
f 234/234 238/238 356/356
f 234/234 356/356 352/352
f 237/237 355/355 357/357
f 237/237 357/357 239/239
f 238/238 240/240 358/358
f 238/238 358/358 356/356
f 239/239 357/357 359/359
f 239/239 359/359 241/241
f 244/244 248/248 360/360
f 244/244 360/360 361/361
f 247/247 362/362 363/363
f 247/247 363/363 249/249
f 248/248 250/250 364/364
f 248/248 364/364 360/360
f 249/249 363/363 365/365
f 249/249 365/365 251/251
f 250/250 254/254 366/366
f 250/250 366/366 364/364
f 251/251 365/365 367/367
f 251/251 367/367 255/255
f 255/255 367/367 366/366
f 255/255 366/366 254/254
f 368/368 262/262 261/261
f 368/368 261/261 369/369
f 369/369 261/261 370/370
f 369/369 370/370 371/371
f 368/368 369/369 371/371
f 368/368 371/371 372/372
f 261/261 260/260 373/373
f 261/261 373/373 370/370
f 260/260 265/265 374/374
f 260/260 374/374 373/373
f 266/266 375/375 376/376
f 266/266 376/376 265/265
f 265/265 376/376 377/377
f 265/265 377/377 374/374
f 375/375 378/378 377/377
f 375/375 377/377 376/376
f 270/270 269/269 379/379
f 270/270 379/379 380/380
f 271/271 381/381 382/382
f 271/271 382/382 272/272
f 271/271 270/270 380/380
f 271/271 380/380 381/381
f 269/269 273/273 383/383
f 269/269 383/383 379/379
f 272/272 382/382 384/384
f 272/272 384/384 274/274
f 273/273 275/275 385/385
f 273/273 385/385 383/383
f 274/274 384/384 386/386
f 274/274 386/386 276/276
f 276/276 386/386 387/387
f 276/276 387/387 278/278
f 278/278 387/387 388/388
f 278/278 388/388 279/279
f 279/279 388/388 389/389
f 279/279 389/389 280/280
f 280/280 389/389 390/390
f 280/280 390/390 283/283
f 281/281 284/284 391/391
f 281/281 391/391 392/392
f 283/283 390/390 393/393
f 283/283 393/393 285/285
f 284/284 286/286 394/394
f 284/284 394/394 391/391
f 285/285 393/393 395/395
f 285/285 395/395 287/287
f 286/286 290/290 396/396
f 286/286 396/396 394/394
f 287/287 395/395 397/397
f 287/287 397/397 291/291
f 291/291 397/397 396/396
f 291/291 396/396 290/290
f 398/398 297/297 296/296
f 398/398 296/296 399/399
f 398/398 399/399 400/400
f 398/398 400/400 401/401
f 300/300 402/402 403/403
f 300/300 403/403 301/301
f 402/402 404/404 405/405
f 402/402 405/405 403/403
f 399/399 296/296 305/305
f 399/399 305/305 406/406
f 406/406 305/305 407/407
f 406/406 407/407 408/408
f 399/399 406/406 408/408
f 399/399 408/408 400/400
f 305/305 304/304 409/409
f 305/305 409/409 407/407
f 304/304 307/307 410/410
f 304/304 410/410 409/409
f 301/301 403/403 411/411
f 301/301 411/411 307/307
f 307/307 411/411 412/412
f 307/307 412/412 410/410
f 403/403 405/405 412/412
f 403/403 412/412 411/411
f 413/413 312/312 314/314
f 413/413 314/314 414/414
f 413/413 415/415 416/416
f 413/413 416/416 312/312
f 413/413 414/414 417/417
f 413/413 417/417 415/415
f 312/312 416/416 418/418
f 312/312 418/418 313/313
f 313/313 418/418 419/419
f 313/313 419/419 317/317
f 317/317 420/420 421/421
f 317/317 421/421 318/318
f 317/317 419/419 422/422
f 317/317 422/422 420/420
f 420/420 422/422 423/423
f 420/420 423/423 421/421
f 414/414 314/314 322/322
f 414/414 322/322 424/424
f 424/424 322/322 425/425
f 424/424 425/425 426/426
f 414/414 424/424 426/426
f 414/414 426/426 417/417
f 318/318 421/421 427/427
f 318/318 427/427 324/324
f 324/324 427/427 428/428
f 324/324 428/428 429/429
f 421/421 423/423 428/428
f 421/421 428/428 427/427
f 430/430 431/431 432/432
f 430/430 432/432 433/433
f 433/433 432/432 434/434
f 433/433 434/434 435/435
f 430/430 433/433 435/435
f 430/430 435/435 436/436
f 431/431 437/437 438/438
f 431/431 438/438 432/432
f 432/432 438/438 439/439
f 432/432 439/439 434/434
f 437/437 440/440 439/439
f 437/437 439/439 438/438
f 441/441 442/442 443/443
f 441/441 443/443 444/444
f 326/326 325/325 443/443
f 326/326 443/443 442/442
f 327/327 441/441 444/444
f 327/327 444/444 328/328
f 327/327 326/326 442/442
f 327/327 442/442 441/441
f 325/325 329/329 445/445
f 325/325 445/445 443/443
f 328/328 444/444 446/446
f 328/328 446/446 330/330
f 329/329 331/331 447/447
f 329/329 447/447 445/445
f 330/330 446/446 448/448
f 330/330 448/448 332/332
f 332/332 448/448 449/449
f 332/332 449/449 333/333
f 333/333 449/449 450/450
f 333/333 450/450 334/334
f 334/334 450/450 451/451
f 334/334 451/451 335/335
f 335/335 451/451 452/452
f 335/335 452/452 336/336
f 338/338 337/337 453/453
f 338/338 453/453 454/454
f 336/336 452/452 455/455
f 336/336 455/455 339/339
f 337/337 340/340 456/456
f 337/337 456/456 453/453
f 339/339 455/455 457/457
f 339/339 457/457 341/341
f 457/457 456/456 458/458
f 457/457 458/458 459/459
f 340/340 342/342 458/458
f 340/340 458/458 456/456
f 341/341 457/457 459/459
f 341/341 459/459 343/343
f 343/343 459/459 458/458
f 343/343 458/458 342/342
f 460/460 461/461 462/462
f 460/460 462/462 463/463
f 347/347 346/346 461/461
f 347/347 461/461 460/460
f 464/464 465/465 466/466
f 464/464 466/466 467/467
f 350/350 467/467 466/466
f 350/350 466/466 351/351
f 353/353 352/352 468/468
f 353/353 468/468 469/469
f 354/354 470/470 471/471
f 354/354 471/471 355/355
f 354/354 353/353 469/469
f 354/354 469/469 470/470
f 352/352 356/356 472/472
f 352/352 472/472 468/468
f 355/355 471/471 473/473
f 355/355 473/473 357/357
f 356/356 358/358 474/474
f 356/356 474/474 472/472
f 357/357 473/473 475/475
f 357/357 475/475 359/359
f 361/361 360/360 476/476
f 361/361 476/476 477/477
f 362/362 478/478 479/479
f 362/362 479/479 363/363
f 360/360 364/364 480/480
f 360/360 480/480 476/476
f 363/363 479/479 481/481
f 363/363 481/481 365/365
f 364/364 366/366 482/482
f 364/364 482/482 480/480
f 365/365 481/481 483/483
f 365/365 483/483 367/367
f 367/367 483/483 482/482
f 367/367 482/482 366/366
f 484/484 485/485 486/486
f 484/484 486/486 487/487
f 371/371 370/370 486/486
f 371/371 486/486 485/485
f 372/372 371/371 485/485
f 372/372 485/485 484/484
f 370/370 373/373 488/488
f 370/370 488/488 486/486
f 373/373 374/374 489/489
f 373/373 489/489 488/488
f 490/490 489/489 491/491
f 490/490 491/491 492/492
f 374/374 377/377 491/491
f 374/374 491/491 489/489
f 378/378 492/492 491/491
f 378/378 491/491 377/377
f 380/380 379/379 493/493
f 380/380 493/493 494/494
f 381/381 495/495 496/496
f 381/381 496/496 382/382
f 381/381 380/380 494/494
f 381/381 494/494 495/495
f 379/379 383/383 497/497
f 379/379 497/497 493/493
f 382/382 496/496 498/498
f 382/382 498/498 384/384
f 383/383 385/385 499/499
f 383/383 499/499 497/497
f 384/384 498/498 500/500
f 384/384 500/500 386/386
f 386/386 500/500 501/501
f 386/386 501/501 387/387
f 387/387 501/501 502/502
f 387/387 502/502 388/388
f 388/388 502/502 503/503
f 388/388 503/503 389/389
f 389/389 503/503 504/504
f 389/389 504/504 390/390
f 392/392 391/391 505/505
f 392/392 505/505 506/506
f 390/390 504/504 507/507
f 390/390 507/507 393/393
f 391/391 394/394 508/508
f 391/391 508/508 505/505
f 393/393 507/507 509/509
f 393/393 509/509 395/395
f 394/394 396/396 510/510
f 394/394 510/510 508/508
f 395/395 509/509 511/511
f 395/395 511/511 397/397
f 397/397 511/511 510/510
f 397/397 510/510 396/396
f 512/512 513/513 514/514
f 512/512 514/514 515/515
f 401/401 400/400 513/513
f 401/401 513/513 512/512
f 516/516 517/517 518/518
f 516/516 518/518 519/519
f 404/404 519/519 518/518
f 404/404 518/518 405/405
f 513/513 520/520 521/521
f 513/513 521/521 514/514
f 408/408 407/407 521/521
f 408/408 521/521 520/520
f 400/400 408/408 520/520
f 400/400 520/520 513/513
f 407/407 409/409 522/522
f 407/407 522/522 521/521
f 409/409 410/410 523/523
f 409/409 523/523 522/522
f 517/517 523/523 524/524
f 517/517 524/524 518/518
f 410/410 412/412 524/524
f 410/410 524/524 523/523
f 405/405 518/518 524/524
f 405/405 524/524 412/412
f 525/525 526/526 527/527
f 525/525 527/527 528/528
f 415/415 525/525 528/528
f 415/415 528/528 416/416
f 415/415 417/417 526/526
f 415/415 526/526 525/525
f 416/416 528/528 529/529
f 416/416 529/529 418/418
f 418/418 529/529 530/530
f 418/418 530/530 419/419
f 530/530 531/531 532/532
f 530/530 532/532 533/533
f 419/419 530/530 533/533
f 419/419 533/533 422/422
f 422/422 533/533 532/532
f 422/422 532/532 423/423
f 526/526 534/534 535/535
f 526/526 535/535 527/527
f 426/426 425/425 535/535
f 426/426 535/535 534/534
f 417/417 426/426 534/534
f 417/417 534/534 526/526
f 531/531 536/536 537/537
f 531/531 537/537 532/532
f 429/429 428/428 537/537
f 429/429 537/537 536/536
f 423/423 532/532 537/537
f 423/423 537/537 428/428
f 538/538 539/539 540/540
f 538/538 540/540 541/541
f 435/435 434/434 540/540
f 435/435 540/540 539/539
f 436/436 435/435 539/539
f 436/436 539/539 538/538
f 541/541 540/540 542/542
f 541/541 542/542 543/543
f 434/434 439/439 542/542
f 434/434 542/542 540/540
f 440/440 543/543 542/542
f 440/440 542/542 439/439
f 544/544 545/545 546/546
f 544/544 546/546 547/547
f 443/443 445/445 546/546
f 443/443 546/546 545/545
f 444/444 544/544 547/547
f 444/444 547/547 446/446
f 444/444 443/443 545/545
f 444/444 545/545 544/544
f 445/445 447/447 548/548
f 445/445 548/548 546/546
f 446/446 547/547 549/549
f 446/446 549/549 448/448
f 447/447 550/550 551/551
f 447/447 551/551 548/548
f 448/448 549/549 552/552
f 448/448 552/552 449/449
f 449/449 552/552 553/553
f 449/449 553/553 450/450
f 450/450 553/553 554/554
f 450/450 554/554 451/451
f 555/555 454/454 556/556
f 555/555 556/556 557/557
f 451/451 554/554 558/558
f 451/451 558/558 452/452
f 454/454 453/453 559/559
f 454/454 559/559 556/556
f 452/452 558/558 560/560
f 452/452 560/560 455/455
f 560/560 559/559 561/561
f 560/560 561/561 562/562
f 453/453 456/456 561/561
f 453/453 561/561 559/559
f 455/455 560/560 562/562
f 455/455 562/562 457/457
f 457/457 562/562 561/561
f 457/457 561/561 456/456
f 563/563 564/564 565/565
f 563/563 565/565 566/566
f 463/463 462/462 564/564
f 463/463 564/564 563/563
f 566/566 565/565 567/567
f 566/566 567/567 568/568
f 464/464 568/568 567/567
f 464/464 567/567 465/465
f 569/569 570/570 571/571
f 569/569 571/571 572/572
f 469/469 468/468 571/571
f 469/469 571/571 570/570
f 470/470 569/569 572/572
f 470/470 572/572 471/471
f 470/470 469/469 570/570
f 470/470 570/570 569/569
f 468/468 472/472 573/573
f 468/468 573/573 571/571
f 471/471 572/572 574/574
f 471/471 574/574 473/473
f 472/472 474/474 575/575
f 472/472 575/575 573/573
f 473/473 574/574 576/576
f 473/473 576/576 475/475
f 474/474 577/577 578/578
f 474/474 578/578 575/575
f 475/475 576/576 579/579
f 475/475 579/579 580/580
f 581/581 477/477 582/582
f 581/581 582/582 583/583
f 584/584 585/585 586/586
f 584/584 586/586 478/478
f 477/477 476/476 587/587
f 477/477 587/587 582/582
f 478/478 586/586 588/588
f 478/478 588/588 479/479
f 476/476 480/480 589/589
f 476/476 589/589 587/587
f 479/479 588/588 590/590
f 479/479 590/590 481/481
f 590/590 589/589 591/591
f 590/590 591/591 592/592
f 480/480 482/482 591/591
f 480/480 591/591 589/589
f 481/481 590/590 592/592
f 481/481 592/592 483/483
f 483/483 592/592 591/591
f 483/483 591/591 482/482
f 593/593 594/594 595/595
f 593/593 595/595 596/596
f 486/486 488/488 595/595
f 486/486 595/595 594/594
f 487/487 486/486 594/594
f 487/487 594/594 593/593
f 596/596 595/595 597/597
f 596/596 597/597 598/598
f 488/488 489/489 597/597
f 488/488 597/597 595/595
f 490/490 598/598 597/597
f 490/490 597/597 489/489
f 599/599 600/600 601/601
f 599/599 601/601 602/602
f 494/494 493/493 601/601
f 494/494 601/601 600/600
f 495/495 599/599 602/602
f 495/495 602/602 496/496
f 495/495 494/494 600/600
f 495/495 600/600 599/599
f 493/493 497/497 603/603
f 493/493 603/603 601/601
f 496/496 602/602 604/604
f 496/496 604/604 498/498
f 497/497 499/499 605/605
f 497/497 605/605 603/603
f 498/498 604/604 606/606
f 498/498 606/606 500/500
f 499/499 607/607 608/608
f 499/499 608/608 605/605
f 500/500 606/606 609/609
f 500/500 609/609 501/501
f 501/501 609/609 610/610
f 501/501 610/610 502/502
f 502/502 610/610 611/611
f 502/502 611/611 503/503
f 612/612 506/506 613/613
f 612/612 613/613 614/614
f 503/503 611/611 615/615
f 503/503 615/615 504/504
f 506/506 505/505 616/616
f 506/506 616/616 613/613
f 504/504 615/615 617/617
f 504/504 617/617 507/507
f 505/505 508/508 618/618
f 505/505 618/618 616/616
f 507/507 617/617 619/619
f 507/507 619/619 509/509
f 619/619 618/618 620/620
f 619/619 620/620 621/621
f 508/508 510/510 620/620
f 508/508 620/620 618/618
f 509/509 619/619 621/621
f 509/509 621/621 511/511
f 511/511 621/621 620/620
f 511/511 620/620 510/510
f 622/622 623/623 624/624
f 622/622 624/624 625/625
f 515/515 514/514 623/623
f 515/515 623/623 622/622
f 625/625 624/624 626/626
f 625/625 626/626 627/627
f 516/516 627/627 626/626
f 516/516 626/626 517/517
f 623/623 628/628 629/629
f 623/623 629/629 624/624
f 521/521 522/522 629/629
f 521/521 629/629 628/628
f 514/514 521/521 628/628
f 514/514 628/628 623/623
f 624/624 629/629 630/630
f 624/624 630/630 626/626
f 522/522 523/523 630/630
f 522/522 630/630 629/629
f 517/517 626/626 630/630
f 517/517 630/630 523/523
f 631/631 632/632 633/633
f 631/631 633/633 634/634
f 528/528 631/631 634/634
f 528/528 634/634 529/529
f 528/528 527/527 632/632
f 528/528 632/632 631/631
f 634/634 633/633 635/635
f 634/634 635/635 636/636
f 529/529 634/634 636/636
f 529/529 636/636 530/530
f 530/530 636/636 635/635
f 530/530 635/635 531/531
f 632/632 637/637 638/638
f 632/632 638/638 633/633
f 535/535 639/639 638/638
f 535/535 638/638 637/637
f 527/527 535/535 637/637
f 527/527 637/637 632/632
f 633/633 638/638 640/640
f 633/633 640/640 635/635
f 639/639 536/536 640/640
f 639/639 640/640 638/638
f 531/531 635/635 640/640
f 531/531 640/640 536/536
f 641/641 642/642 643/643
f 641/641 643/643 644/644
f 546/546 548/548 643/643
f 546/546 643/643 642/642
f 547/547 641/641 644/644
f 547/547 644/644 549/549
f 547/547 546/546 642/642
f 547/547 642/642 641/641
f 548/548 551/551 645/645
f 548/548 645/645 643/643
f 549/549 644/644 646/646
f 549/549 646/646 552/552
f 551/551 647/647 648/648
f 551/551 648/648 645/645
f 552/552 646/646 649/649
f 552/552 649/649 553/553
f 647/647 557/557 650/650
f 647/647 650/650 648/648
f 553/553 649/649 651/651
f 553/553 651/651 554/554
f 557/557 556/556 652/652
f 557/557 652/652 650/650
f 554/554 651/651 653/653
f 554/554 653/653 558/558
f 653/653 652/652 654/654
f 653/653 654/654 655/655
f 556/556 559/559 654/654
f 556/556 654/654 652/652
f 558/558 653/653 655/655
f 558/558 655/655 560/560
f 560/560 655/655 654/654
f 560/560 654/654 559/559
f 571/571 573/573 656/656
f 571/571 656/656 657/657
f 572/572 658/658 659/659
f 572/572 659/659 574/574
f 572/572 571/571 657/657
f 572/572 657/657 658/658
f 573/573 575/575 660/660
f 573/573 660/660 656/656
f 574/574 659/659 661/661
f 574/574 661/661 576/576
f 575/575 578/578 662/662
f 575/575 662/662 660/660
f 576/576 661/661 663/663
f 576/576 663/663 579/579
f 578/578 664/664 665/665
f 578/578 665/665 662/662
f 579/579 663/663 666/666
f 579/579 666/666 667/667
f 664/664 583/583 668/668
f 664/664 668/668 665/665
f 667/667 666/666 669/669
f 667/667 669/669 585/585
f 583/583 582/582 670/670
f 583/583 670/670 668/668
f 585/585 669/669 671/671
f 585/585 671/671 586/586
f 582/582 587/587 672/672
f 582/582 672/672 670/670
f 586/586 671/671 673/673
f 586/586 673/673 588/588
f 587/587 589/589 674/674
f 587/587 674/674 672/672
f 588/588 673/673 675/675
f 588/588 675/675 590/590
f 590/590 675/675 674/674
f 590/590 674/674 589/589
f 601/601 603/603 676/676
f 601/601 676/676 677/677
f 602/602 678/678 679/679
f 602/602 679/679 604/604
f 602/602 601/601 677/677
f 602/602 677/677 678/678
f 603/603 605/605 680/680
f 603/603 680/680 676/676
f 604/604 679/679 681/681
f 604/604 681/681 606/606
f 605/605 608/608 682/682
f 605/605 682/682 680/680
f 606/606 681/681 683/683
f 606/606 683/683 609/609
f 608/608 684/684 685/685
f 608/608 685/685 682/682
f 609/609 683/683 686/686
f 609/609 686/686 610/610
f 684/684 614/614 687/687
f 684/684 687/687 685/685
f 610/610 686/686 688/688
f 610/610 688/688 611/611
f 614/614 613/613 689/689
f 614/614 689/689 687/687
f 611/611 688/688 690/690
f 611/611 690/690 615/615
f 613/613 616/616 691/691
f 613/613 691/691 689/689
f 615/615 690/690 692/692
f 615/615 692/692 617/617
f 616/616 618/618 693/693
f 616/616 693/693 691/691
f 617/617 692/692 694/694
f 617/617 694/694 619/619
f 619/619 694/694 693/693
f 619/619 693/693 618/618
f 695/695 696/696 697/697
f 695/695 697/697 698/698
f 643/643 645/645 697/697
f 643/643 697/697 696/696
f 644/644 695/695 698/698
f 644/644 698/698 646/646
f 644/644 643/643 696/696
f 644/644 696/696 695/695
f 698/698 697/697 699/699
f 698/698 699/699 700/700
f 645/645 648/648 699/699
f 645/645 699/699 697/697
f 646/646 698/698 700/700
f 646/646 700/700 649/649
f 700/700 699/699 701/701
f 700/700 701/701 702/702
f 648/648 650/650 701/701
f 648/648 701/701 699/699
f 649/649 700/700 702/702
f 649/649 702/702 651/651
f 702/702 701/701 703/703
f 702/702 703/703 704/704
f 650/650 652/652 703/703
f 650/650 703/703 701/701
f 651/651 702/702 704/704
f 651/651 704/704 653/653
f 653/653 704/704 703/703
f 653/653 703/703 652/652
f 705/705 706/706 707/707
f 705/705 707/707 708/708
f 657/657 656/656 707/707
f 657/657 707/707 706/706
f 658/658 705/705 708/708
f 658/658 708/708 659/659
f 658/658 657/657 706/706
f 658/658 706/706 705/705
f 708/708 707/707 709/709
f 708/708 709/709 710/710
f 656/656 660/660 709/709
f 656/656 709/709 707/707
f 659/659 708/708 710/710
f 659/659 710/710 661/661
f 660/660 662/662 711/711
f 660/660 711/711 709/709
f 661/661 710/710 712/712
f 661/661 712/712 663/663
f 662/662 665/665 713/713
f 662/662 713/713 711/711
f 663/663 712/712 714/714
f 663/663 714/714 666/666
f 665/665 668/668 715/715
f 665/665 715/715 713/713
f 666/666 714/714 716/716
f 666/666 716/716 669/669
f 668/668 670/670 717/717
f 668/668 717/717 715/715
f 669/669 716/716 718/718
f 669/669 718/718 671/671
f 718/718 717/717 719/719
f 718/718 719/719 720/720
f 670/670 672/672 719/719
f 670/670 719/719 717/717
f 671/671 718/718 720/720
f 671/671 720/720 673/673
f 720/720 719/719 721/721
f 720/720 721/721 722/722
f 672/672 674/674 721/721
f 672/672 721/721 719/719
f 673/673 720/720 722/722
f 673/673 722/722 675/675
f 675/675 722/722 721/721
f 675/675 721/721 674/674
f 723/723 724/724 725/725
f 723/723 725/725 726/726
f 677/677 676/676 725/725
f 677/677 725/725 724/724
f 678/678 723/723 726/726
f 678/678 726/726 679/679
f 678/678 677/677 724/724
f 678/678 724/724 723/723
f 726/726 725/725 727/727
f 726/726 727/727 728/728
f 676/676 680/680 727/727
f 676/676 727/727 725/725
f 679/679 726/726 728/728
f 679/679 728/728 681/681
f 680/680 682/682 729/729
f 680/680 729/729 727/727
f 681/681 728/728 730/730
f 681/681 730/730 683/683
f 682/682 685/685 731/731
f 682/682 731/731 729/729
f 683/683 730/730 732/732
f 683/683 732/732 686/686
f 685/685 687/687 733/733
f 685/685 733/733 731/731
f 686/686 732/732 734/734
f 686/686 734/734 688/688
f 687/687 689/689 735/735
f 687/687 735/735 733/733
f 688/688 734/734 736/736
f 688/688 736/736 690/690
f 736/736 735/735 737/737
f 736/736 737/737 738/738
f 689/689 691/691 737/737
f 689/689 737/737 735/735
f 690/690 736/736 738/738
f 690/690 738/738 692/692
f 738/738 737/737 739/739
f 738/738 739/739 740/740
f 691/691 693/693 739/739
f 691/691 739/739 737/737
f 692/692 738/738 740/740
f 692/692 740/740 694/694
f 694/694 740/740 739/739
f 694/694 739/739 693/693
f 741/741 742/742 743/743
f 741/741 743/743 744/744
f 709/709 711/711 743/743
f 709/709 743/743 742/742
f 710/710 741/741 744/744
f 710/710 744/744 712/712
f 710/710 709/709 742/742
f 710/710 742/742 741/741
f 744/744 743/743 745/745
f 744/744 745/745 746/746
f 711/711 713/713 745/745
f 711/711 745/745 743/743
f 712/712 744/744 746/746
f 712/712 746/746 714/714
f 746/746 745/745 747/747
f 746/746 747/747 748/748
f 713/713 715/715 747/747
f 713/713 747/747 745/745
f 714/714 746/746 748/748
f 714/714 748/748 716/716
f 748/748 747/747 749/749
f 748/748 749/749 750/750
f 715/715 717/717 749/749
f 715/715 749/749 747/747
f 716/716 748/748 750/750
f 716/716 750/750 718/718
f 718/718 750/750 749/749
f 718/718 749/749 717/717
f 751/751 752/752 753/753
f 751/751 753/753 754/754
f 755/755 756/756 757/757
f 755/755 757/757 758/758
f 755/755 751/751 754/754
f 755/755 754/754 756/756
f 755/755 758/758 752/752
f 755/755 752/752 751/751
f 754/754 753/753 759/759
f 754/754 759/759 760/760
f 756/756 761/761 762/762
f 756/756 762/762 757/757
f 756/756 754/754 760/760
f 756/756 760/760 761/761
f 761/761 760/760 759/759
f 761/761 759/759 762/762
f 763/763 764/764 765/765
f 763/763 765/765 766/766
f 727/727 729/729 765/765
f 727/727 765/765 764/764
f 728/728 763/763 766/766
f 728/728 766/766 730/730
f 728/728 727/727 764/764
f 728/728 764/764 763/763
f 766/766 765/765 767/767
f 766/766 767/767 768/768
f 729/729 731/731 767/767
f 729/729 767/767 765/765
f 768/768 767/767 769/769
f 768/768 769/769 770/770
f 731/731 733/733 769/769
f 731/731 769/769 767/767
f 770/770 769/769 771/771
f 770/770 771/771 772/772
f 733/733 735/735 771/771
f 733/733 771/771 769/769
f 734/734 770/770 772/772
f 734/734 772/772 736/736
f 736/736 772/772 771/771
f 736/736 771/771 735/735
f 773/773 774/774 775/775
f 773/773 775/775 776/776
f 777/777 778/778 779/779
f 777/777 779/779 780/780
f 780/780 779/779 775/775
f 780/780 775/775 774/774
f 777/777 773/773 776/776
f 777/777 776/776 778/778
f 777/777 780/780 774/774
f 777/777 774/774 773/773
f 776/776 775/775 781/781
f 776/776 781/781 782/782
f 778/778 783/783 784/784
f 778/778 784/784 779/779
f 779/779 784/784 781/781
f 779/779 781/781 775/775
f 778/778 776/776 782/782
f 778/778 782/782 783/783
f 783/783 782/782 781/781
f 783/783 781/781 784/784
