mtllib CBRA_fire1.mtl
o TorchFlame
v -0.307692 0.076923 -0.230769
v -0.307692 0.076923 -0.153846
v -0.307692 0.153846 -0.153846
v -0.307692 0.153846 -0.230769
v -0.230769 0.076923 -0.230769
v -0.230769 0.076923 -0.153846
v -0.230769 0.153846 -0.230769
v -0.307692 0.076923 -0.076923
v -0.307692 0.153846 -0.076923
v -0.230769 0.076923 -0.076923
v -0.307692 0.076923 0.000000
v -0.307692 0.153846 0.000000
v -0.230769 0.076923 0.000000
v -0.307692 0.076923 0.076923
v -0.307692 0.153846 0.076923
v -0.230769 0.076923 0.076923
v -0.307692 0.076923 0.153846
v -0.307692 0.153846 0.153846
v -0.230769 0.076923 0.153846
v -0.307692 0.076923 0.230769
v -0.307692 0.153846 0.230769
v -0.230769 0.076923 0.230769
v -0.230769 0.153846 0.230769
v -0.307692 0.230769 -0.153846
v -0.307692 0.230769 -0.230769
v -0.230769 0.230769 -0.230769
v -0.307692 0.230769 -0.076923
v -0.307692 0.230769 0.000000
v -0.307692 0.230769 0.076923
v -0.307692 0.230769 0.153846
v -0.307692 0.230769 0.230769
v -0.230769 0.230769 0.230769
v -0.307692 0.307692 -0.153846
v -0.307692 0.307692 -0.230769
v -0.230769 0.307692 -0.153846
v -0.230769 0.307692 -0.230769
v -0.307692 0.307692 -0.076923
v -0.230769 0.307692 -0.076923
v -0.307692 0.307692 0.000000
v -0.230769 0.307692 0.000000
v -0.307692 0.307692 0.076923
v -0.230769 0.307692 0.076923
v -0.307692 0.307692 0.153846
v -0.230769 0.307692 0.153846
v -0.307692 0.307692 0.230769
v -0.230769 0.307692 0.230769
v -0.307692 0.384615 -0.230769
v -0.307692 0.384615 -0.153846
v -0.307692 0.461538 -0.153846
v -0.307692 0.461538 -0.230769
v -0.230769 0.384615 -0.230769
v -0.230769 0.384615 -0.153846
v -0.230769 0.461538 -0.230769
v -0.307692 0.384615 -0.076923
v -0.307692 0.461538 -0.076923
v -0.230769 0.384615 -0.076923
v -0.307692 0.384615 0.000000
v -0.307692 0.461538 0.000000
v -0.230769 0.384615 0.000000
v -0.307692 0.384615 0.076923
v -0.307692 0.461538 0.076923
v -0.230769 0.384615 0.076923
v -0.307692 0.384615 0.153846
v -0.307692 0.461538 0.153846
v -0.230769 0.384615 0.153846
v -0.307692 0.384615 0.230769
v -0.307692 0.461538 0.230769
v -0.230769 0.384615 0.230769
v -0.230769 0.461538 0.230769
v -0.307692 0.538462 -0.153846
v -0.307692 0.538462 -0.230769
v -0.230769 0.538462 -0.153846
v -0.230769 0.538462 -0.230769
v -0.307692 0.538462 -0.076923
v -0.230769 0.538462 -0.076923
v -0.307692 0.538462 0.000000
v -0.230769 0.538462 0.000000
v -0.307692 0.538462 0.076923
v -0.230769 0.538462 0.076923
v -0.307692 0.538462 0.153846
v -0.230769 0.538462 0.153846
v -0.307692 0.538462 0.230769
v -0.230769 0.538462 0.230769
v -0.307692 0.692308 -0.230769
v -0.307692 0.692308 -0.153846
v -0.307692 0.769231 -0.153846
v -0.307692 0.769231 -0.230769
v -0.230769 0.769231 -0.153846
v -0.230769 0.769231 -0.230769
v -0.230769 0.692308 -0.230769
v -0.230769 0.692308 -0.153846
v -0.307692 0.692308 -0.076923
v -0.307692 0.769231 -0.076923
v -0.230769 0.769231 -0.076923
v -0.230769 0.692308 -0.076923
v -0.307692 0.692308 0.000000
v -0.307692 0.769231 0.000000
v -0.230769 0.769231 0.000000
v -0.230769 0.692308 0.000000
v -0.307692 0.692308 0.076923
v -0.307692 0.769231 0.076923
v -0.230769 0.769231 0.076923
v -0.230769 0.692308 0.076923
v -0.307692 0.692308 0.153846
v -0.307692 0.769231 0.153846
v -0.230769 0.769231 0.153846
v -0.230769 0.692308 0.153846
v -0.307692 0.692308 0.230769
v -0.307692 0.769231 0.230769
v -0.230769 0.769231 0.230769
v -0.230769 0.692308 0.230769
v -0.230769 0.000000 -0.153846
v -0.230769 0.000000 -0.076923
v -0.230769 0.076923 -0.076923
v -0.230769 0.076923 -0.153846
v -0.153846 0.000000 -0.153846
v -0.153846 0.000000 -0.076923
v -0.153846 0.076923 -0.153846
v -0.230769 0.000000 0.000000
v -0.230769 0.076923 0.000000
v -0.153846 0.000000 0.000000
v -0.230769 0.000000 0.076923
v -0.230769 0.076923 0.076923
v -0.153846 0.000000 0.076923
v -0.230769 0.000000 0.153846
v -0.230769 0.076923 0.153846
v -0.153846 0.000000 0.153846
v -0.153846 0.076923 0.153846
v -0.230769 0.076923 -0.307692
v -0.230769 0.153846 -0.307692
v -0.153846 0.076923 -0.307692
v -0.153846 0.076923 -0.230769
v -0.153846 0.153846 -0.307692
v -0.153846 0.076923 -0.153846
v -0.153846 0.076923 0.153846
v -0.153846 0.076923 0.230769
v -0.230769 0.076923 0.307692
v -0.230769 0.153846 0.307692
v -0.153846 0.076923 0.307692
v -0.153846 0.153846 0.307692
v -0.230769 0.230769 -0.307692
v -0.153846 0.230769 -0.307692
v -0.230769 0.230769 0.307692
v -0.153846 0.230769 0.307692
v -0.230769 0.307692 -0.307692
v -0.153846 0.307692 -0.230769
v -0.153846 0.307692 -0.307692
v -0.153846 0.307692 -0.153846
v -0.153846 0.307692 -0.076923
v -0.153846 0.307692 0.000000
v -0.153846 0.307692 0.076923
v -0.153846 0.307692 0.153846
v -0.153846 0.307692 0.230769
v -0.230769 0.307692 0.307692
v -0.153846 0.307692 0.307692
v -0.230769 0.384615 -0.307692
v -0.230769 0.461538 -0.307692
v -0.153846 0.384615 -0.307692
v -0.153846 0.384615 -0.230769
v -0.153846 0.461538 -0.307692
v -0.153846 0.384615 -0.153846
v -0.153846 0.384615 -0.076923
v -0.153846 0.384615 0.000000
v -0.153846 0.384615 0.076923
v -0.153846 0.384615 0.153846
v -0.153846 0.384615 0.230769
v -0.230769 0.384615 0.307692
v -0.230769 0.461538 0.307692
v -0.153846 0.384615 0.307692
v -0.153846 0.461538 0.307692
v -0.230769 0.538462 -0.307692
v -0.153846 0.538462 -0.230769
v -0.153846 0.538462 -0.307692
v -0.153846 0.538462 -0.153846
v -0.153846 0.538462 -0.076923
v -0.153846 0.538462 0.000000
v -0.153846 0.538462 0.076923
v -0.153846 0.538462 0.153846
v -0.153846 0.538462 0.230769
v -0.230769 0.538462 0.307692
v -0.153846 0.538462 0.307692
v -0.230769 0.692308 -0.307692
v -0.230769 0.769231 -0.307692
v -0.153846 0.769231 -0.230769
v -0.153846 0.769231 -0.307692
v -0.153846 0.692308 -0.307692
v -0.153846 0.692308 -0.230769
v -0.153846 0.769231 -0.153846
v -0.153846 0.692308 -0.153846
v -0.153846 0.769231 -0.076923
v -0.153846 0.692308 -0.076923
v -0.153846 0.769231 0.000000
v -0.153846 0.692308 0.000000
v -0.153846 0.769231 0.076923
v -0.153846 0.692308 0.076923
v -0.153846 0.769231 0.153846
v -0.153846 0.692308 0.153846
v -0.153846 0.769231 0.230769
v -0.153846 0.692308 0.230769
v -0.230769 0.692308 0.307692
v -0.230769 0.769231 0.307692
v -0.153846 0.769231 0.307692
v -0.153846 0.692308 0.307692
v -0.153846 0.000000 -0.230769
v -0.153846 0.076923 -0.230769
v -0.076923 0.000000 -0.230769
v -0.076923 0.000000 -0.153846
v -0.076923 0.076923 -0.230769
v -0.076923 0.000000 -0.076923
v -0.076923 0.000000 0.000000
v -0.076923 0.000000 0.076923
v -0.076923 0.000000 0.153846
v -0.153846 0.000000 0.230769
v -0.153846 0.076923 0.230769
v -0.076923 0.000000 0.230769
v -0.076923 0.076923 0.230769
v -0.076923 0.076923 -0.307692
v -0.076923 0.076923 -0.230769
v -0.076923 0.153846 -0.307692
v -0.076923 0.076923 0.230769
v -0.076923 0.076923 0.307692
v -0.076923 0.153846 0.307692
v -0.076923 0.230769 -0.307692
v -0.076923 0.230769 0.307692
v -0.076923 0.307692 -0.230769
v -0.076923 0.307692 -0.307692
v -0.076923 0.307692 -0.153846
v -0.076923 0.307692 -0.076923
v -0.076923 0.307692 0.000000
v -0.076923 0.307692 0.076923
v -0.076923 0.307692 0.153846
v -0.076923 0.307692 0.230769
v -0.076923 0.307692 0.307692
v -0.076923 0.384615 -0.307692
v -0.076923 0.384615 -0.230769
v -0.076923 0.461538 -0.307692
v -0.076923 0.384615 -0.153846
v -0.076923 0.384615 -0.076923
v -0.076923 0.384615 0.000000
v -0.076923 0.384615 0.076923
v -0.076923 0.384615 0.153846
v -0.076923 0.384615 0.230769
v -0.076923 0.384615 0.307692
v -0.076923 0.461538 0.307692
v -0.076923 0.538462 -0.230769
v -0.076923 0.538462 -0.307692
v -0.076923 0.538462 -0.153846
v -0.076923 0.538462 -0.076923
v -0.076923 0.538462 0.000000
v -0.076923 0.538462 0.076923
v -0.076923 0.538462 0.153846
v -0.076923 0.538462 0.230769
v -0.076923 0.538462 0.307692
v -0.076923 0.769231 -0.230769
v -0.076923 0.769231 -0.307692
v -0.076923 0.692308 -0.307692
v -0.076923 0.692308 -0.230769
v -0.076923 0.769231 -0.153846
v -0.076923 0.692308 -0.153846
v -0.076923 0.769231 -0.076923
v -0.076923 0.692308 -0.076923
v -0.076923 0.769231 0.000000
v -0.076923 0.692308 0.000000
v -0.076923 0.769231 0.076923
v -0.076923 0.692308 0.076923
v -0.076923 0.769231 0.153846
v -0.076923 0.692308 0.153846
v -0.076923 0.769231 0.230769
v -0.076923 0.692308 0.230769
v -0.076923 0.769231 0.307692
v -0.076923 0.692308 0.307692
v 0.000000 0.000000 -0.230769
v 0.000000 0.000000 -0.153846
v 0.000000 0.076923 -0.230769
v 0.000000 0.000000 -0.076923
v 0.000000 0.000000 0.000000
v 0.000000 0.000000 0.076923
v 0.000000 0.000000 0.153846
v 0.000000 0.000000 0.230769
v 0.000000 0.076923 0.230769
v 0.000000 0.076923 -0.307692
v 0.000000 0.076923 -0.230769
v 0.000000 0.153846 -0.307692
v 0.000000 0.076923 0.230769
v 0.000000 0.076923 0.307692
v 0.000000 0.153846 0.307692
v 0.000000 0.230769 -0.307692
v 0.000000 0.230769 0.307692
v 0.000000 0.307692 -0.230769
v 0.000000 0.307692 -0.307692
v 0.000000 0.307692 -0.153846
v 0.000000 0.307692 -0.076923
v 0.000000 0.307692 0.153846
v 0.000000 0.307692 0.076923
v 0.000000 0.307692 0.230769
v 0.000000 0.307692 0.307692
v -0.076923 0.307692 -0.076923
v -0.076923 0.307692 0.000000
v -0.076923 0.384615 0.000000
v -0.076923 0.384615 -0.076923
v 0.000000 0.384615 -0.076923
v 0.000000 0.307692 -0.076923
v -0.076923 0.307692 0.076923
v -0.076923 0.384615 0.076923
v 0.000000 0.307692 0.076923
v 0.000000 0.384615 0.076923
v 0.000000 0.384615 -0.307692
v 0.000000 0.384615 -0.230769
v 0.000000 0.461538 -0.307692
v 0.000000 0.384615 -0.153846
v 0.000000 0.384615 -0.076923
v 0.000000 0.384615 0.076923
v 0.000000 0.384615 0.153846
v 0.000000 0.384615 0.230769
v 0.000000 0.384615 0.307692
v 0.000000 0.461538 0.307692
v 0.000000 0.538462 -0.230769
v 0.000000 0.538462 -0.307692
v 0.000000 0.538462 -0.153846
v 0.000000 0.538462 -0.076923
v 0.000000 0.538462 0.153846
v 0.000000 0.538462 0.076923
v 0.000000 0.538462 0.230769
v 0.000000 0.538462 0.307692
v -0.076923 0.538462 -0.076923
v -0.076923 0.538462 0.000000
v -0.076923 0.615385 0.000000
v -0.076923 0.615385 -0.076923
v 0.000000 0.615385 -0.076923
v 0.000000 0.538462 -0.076923
v -0.076923 0.538462 0.076923
v -0.076923 0.615385 0.076923
v 0.000000 0.538462 0.076923
v 0.000000 0.615385 0.076923
v -0.076923 0.692308 0.000000
v -0.076923 0.692308 -0.076923
v 0.000000 0.692308 -0.076923
v -0.076923 0.692308 0.076923
v 0.000000 0.692308 0.076923
v 0.000000 0.769231 -0.230769
v 0.000000 0.769231 -0.307692
v 0.000000 0.692308 -0.307692
v 0.000000 0.692308 -0.230769
v 0.000000 0.769231 -0.153846
v 0.000000 0.692308 -0.153846
v 0.000000 0.769231 -0.076923
v 0.000000 0.692308 -0.076923
v 0.000000 0.769231 0.153846
v 0.000000 0.769231 0.076923
v 0.000000 0.692308 0.076923
v 0.000000 0.692308 0.153846
v 0.000000 0.769231 0.230769
v 0.000000 0.692308 0.230769
v 0.000000 0.769231 0.307692
v 0.000000 0.692308 0.307692
v -0.076923 0.769231 -0.076923
v -0.076923 0.769231 0.000000
v -0.076923 0.846154 0.000000
v -0.076923 0.846154 -0.076923
v 0.000000 0.846154 -0.076923
v 0.000000 0.769231 -0.076923
v -0.076923 0.769231 0.076923
v -0.076923 0.846154 0.076923
v 0.000000 0.769231 0.076923
v 0.000000 0.846154 0.076923
v -0.076923 0.923077 0.000000
v -0.076923 0.923077 -0.076923
v 0.000000 0.923077 0.000000
v 0.000000 0.923077 -0.076923
v -0.076923 0.923077 0.076923
v 0.000000 0.923077 0.076923
v 0.076923 0.000000 -0.230769
v 0.076923 0.000000 -0.153846
v 0.076923 0.076923 -0.230769
v 0.076923 0.000000 -0.076923
v 0.076923 0.000000 0.000000
v 0.076923 0.000000 0.076923
v 0.076923 0.000000 0.153846
v 0.076923 0.000000 0.230769
v 0.076923 0.076923 0.230769
v 0.076923 0.076923 -0.307692
v 0.076923 0.076923 -0.230769
v 0.076923 0.153846 -0.307692
v 0.076923 0.076923 0.230769
v 0.076923 0.076923 0.307692
v 0.076923 0.153846 0.307692
v 0.076923 0.230769 -0.307692
v 0.076923 0.230769 0.307692
v 0.076923 0.307692 -0.230769
v 0.076923 0.307692 -0.307692
v 0.076923 0.307692 -0.153846
v 0.076923 0.307692 -0.076923
v 0.076923 0.307692 0.153846
v 0.076923 0.307692 0.076923
v 0.076923 0.307692 0.230769
v 0.076923 0.307692 0.307692
v 0.076923 0.307692 -0.076923
v 0.076923 0.384615 -0.076923
v 0.076923 0.384615 0.000000
v 0.076923 0.307692 0.000000
v 0.076923 0.384615 0.076923
v 0.076923 0.307692 0.076923
v 0.076923 0.384615 -0.307692
v 0.076923 0.384615 -0.230769
v 0.076923 0.461538 -0.307692
v 0.076923 0.384615 -0.153846
v 0.076923 0.384615 -0.076923
v 0.076923 0.384615 0.076923
v 0.076923 0.384615 0.153846
v 0.076923 0.384615 0.230769
v 0.076923 0.384615 0.307692
v 0.076923 0.461538 0.307692
v 0.076923 0.538462 -0.230769
v 0.076923 0.538462 -0.307692
v 0.076923 0.538462 -0.153846
v 0.076923 0.538462 -0.076923
v 0.076923 0.538462 0.153846
v 0.076923 0.538462 0.076923
v 0.076923 0.538462 0.230769
v 0.076923 0.538462 0.307692
v 0.076923 0.538462 -0.076923
v 0.076923 0.615385 -0.076923
v 0.076923 0.615385 0.000000
v 0.076923 0.538462 0.000000
v 0.076923 0.615385 0.076923
v 0.076923 0.538462 0.076923
v 0.076923 0.692308 -0.076923
v 0.076923 0.692308 0.000000
v 0.076923 0.692308 0.076923
v 0.076923 0.769231 -0.230769
v 0.076923 0.769231 -0.307692
v 0.076923 0.692308 -0.307692
v 0.076923 0.692308 -0.230769
v 0.076923 0.769231 -0.153846
v 0.076923 0.692308 -0.153846
v 0.076923 0.769231 -0.076923
v 0.076923 0.692308 -0.076923
v 0.076923 0.769231 0.153846
v 0.076923 0.769231 0.076923
v 0.076923 0.692308 0.076923
v 0.076923 0.692308 0.153846
v 0.076923 0.769231 0.230769
v 0.076923 0.692308 0.230769
v 0.076923 0.769231 0.307692
v 0.076923 0.692308 0.307692
v 0.076923 0.769231 -0.076923
v 0.076923 0.846154 -0.076923
v 0.076923 0.846154 0.000000
v 0.076923 0.769231 0.000000
v 0.076923 0.846154 0.076923
v 0.076923 0.769231 0.076923
v 0.076923 0.923077 -0.076923
v 0.076923 0.923077 0.000000
v 0.076923 0.923077 0.076923
v 0.153846 0.000000 -0.230769
v 0.153846 0.076923 -0.230769
v 0.153846 0.076923 -0.153846
v 0.153846 0.000000 -0.153846
v 0.153846 0.000000 -0.076923
v 0.153846 0.000000 0.000000
v 0.153846 0.000000 0.076923
v 0.153846 0.000000 0.153846
v 0.153846 0.076923 0.153846
v 0.153846 0.076923 0.230769
v 0.153846 0.000000 0.230769
v 0.153846 0.076923 -0.307692
v 0.153846 0.076923 -0.230769
v 0.153846 0.153846 -0.307692
v 0.153846 0.076923 0.230769
v 0.153846 0.076923 0.307692
v 0.153846 0.153846 0.307692
v 0.153846 0.230769 -0.307692
v 0.153846 0.230769 0.307692
v 0.153846 0.307692 -0.230769
v 0.153846 0.307692 -0.307692
v 0.153846 0.307692 -0.153846
v 0.153846 0.307692 -0.076923
v 0.076923 0.307692 0.000000
v 0.153846 0.307692 0.000000
v 0.153846 0.307692 0.076923
v 0.153846 0.307692 0.153846
v 0.153846 0.307692 0.230769
v 0.153846 0.307692 0.307692
v 0.153846 0.384615 -0.307692
v 0.153846 0.384615 -0.230769
v 0.153846 0.461538 -0.307692
v 0.153846 0.384615 -0.153846
v 0.153846 0.384615 -0.076923
v 0.153846 0.384615 0.000000
v 0.076923 0.384615 0.000000
v 0.153846 0.384615 0.076923
v 0.153846 0.384615 0.153846
v 0.153846 0.384615 0.230769
v 0.153846 0.384615 0.307692
v 0.153846 0.461538 0.307692
v 0.153846 0.538462 -0.230769
v 0.153846 0.538462 -0.307692
v 0.153846 0.538462 -0.153846
v 0.153846 0.538462 -0.076923
v 0.076923 0.538462 0.000000
v 0.153846 0.538462 0.000000
v 0.153846 0.538462 0.076923
v 0.153846 0.538462 0.153846
v 0.153846 0.538462 0.230769
v 0.153846 0.538462 0.307692
v 0.153846 0.769231 -0.230769
v 0.153846 0.769231 -0.307692
v 0.153846 0.692308 -0.307692
v 0.153846 0.692308 -0.230769
v 0.153846 0.769231 -0.153846
v 0.153846 0.692308 -0.153846
v 0.153846 0.769231 -0.076923
v 0.153846 0.692308 -0.076923
v 0.076923 0.769231 0.000000
v 0.153846 0.769231 0.000000
v 0.153846 0.692308 0.000000
v 0.076923 0.692308 0.000000
v 0.153846 0.769231 0.076923
v 0.153846 0.692308 0.076923
v 0.153846 0.769231 0.153846
v 0.153846 0.692308 0.153846
v 0.153846 0.769231 0.230769
v 0.153846 0.692308 0.230769
v 0.153846 0.769231 0.307692
v 0.153846 0.692308 0.307692
v 0.230769 0.000000 -0.153846
v 0.230769 0.076923 -0.153846
v 0.230769 0.076923 -0.076923
v 0.230769 0.000000 -0.076923
v 0.230769 0.076923 0.000000
v 0.230769 0.000000 0.000000
v 0.230769 0.076923 0.076923
v 0.230769 0.000000 0.076923
v 0.230769 0.076923 0.153846
v 0.230769 0.000000 0.153846
v 0.230769 0.076923 -0.307692
v 0.230769 0.153846 -0.307692
v 0.230769 0.153846 -0.230769
v 0.230769 0.076923 -0.230769
v 0.230769 0.076923 -0.153846
v 0.153846 0.076923 -0.153846
v 0.153846 0.076923 0.153846
v 0.230769 0.076923 0.153846
v 0.230769 0.076923 0.230769
v 0.230769 0.153846 0.230769
v 0.230769 0.153846 0.307692
v 0.230769 0.076923 0.307692
v 0.230769 0.230769 -0.307692
v 0.230769 0.230769 -0.230769
v 0.230769 0.230769 0.230769
v 0.230769 0.230769 0.307692
v 0.230769 0.307692 -0.307692
v 0.230769 0.307692 -0.230769
v 0.230769 0.307692 -0.153846
v 0.230769 0.307692 -0.076923
v 0.230769 0.307692 0.000000
v 0.230769 0.307692 0.076923
v 0.230769 0.307692 0.153846
v 0.230769 0.307692 0.230769
v 0.230769 0.307692 0.307692
v 0.230769 0.384615 -0.307692
v 0.230769 0.461538 -0.307692
v 0.230769 0.461538 -0.230769
v 0.230769 0.384615 -0.230769
v 0.230769 0.384615 -0.153846
v 0.230769 0.384615 -0.076923
v 0.230769 0.384615 0.000000
v 0.230769 0.384615 0.076923
v 0.230769 0.384615 0.153846
v 0.230769 0.384615 0.230769
v 0.230769 0.461538 0.230769
v 0.230769 0.461538 0.307692
v 0.230769 0.384615 0.307692
v 0.230769 0.538462 -0.307692
v 0.230769 0.538462 -0.230769
v 0.230769 0.538462 -0.153846
v 0.230769 0.538462 -0.076923
v 0.230769 0.538462 0.000000
v 0.230769 0.538462 0.076923
v 0.230769 0.538462 0.153846
v 0.230769 0.538462 0.230769
v 0.230769 0.538462 0.307692
v 0.230769 0.692308 -0.307692
v 0.230769 0.769231 -0.307692
v 0.230769 0.769231 -0.230769
v 0.230769 0.692308 -0.230769
v 0.230769 0.769231 -0.153846
v 0.230769 0.692308 -0.153846
v 0.230769 0.769231 -0.076923
v 0.230769 0.692308 -0.076923
v 0.230769 0.769231 0.000000
v 0.230769 0.692308 0.000000
v 0.230769 0.769231 0.076923
v 0.230769 0.692308 0.076923
v 0.230769 0.769231 0.153846
v 0.230769 0.692308 0.153846
v 0.230769 0.769231 0.230769
v 0.230769 0.692308 0.230769
v 0.230769 0.769231 0.307692
v 0.230769 0.692308 0.307692
v 0.307692 0.076923 -0.230769
v 0.307692 0.153846 -0.230769
v 0.307692 0.153846 -0.153846
v 0.307692 0.076923 -0.153846
v 0.307692 0.153846 -0.076923
v 0.307692 0.076923 -0.076923
v 0.230769 0.076923 -0.076923
v 0.307692 0.153846 0.000000
v 0.307692 0.076923 0.000000
v 0.230769 0.076923 0.000000
v 0.307692 0.153846 0.076923
v 0.307692 0.076923 0.076923
v 0.230769 0.076923 0.076923
v 0.307692 0.153846 0.153846
v 0.307692 0.076923 0.153846
v 0.307692 0.153846 0.230769
v 0.307692 0.076923 0.230769
v 0.307692 0.230769 -0.230769
v 0.307692 0.230769 -0.153846
v 0.307692 0.230769 -0.076923
v 0.307692 0.230769 0.000000
v 0.307692 0.230769 0.076923
v 0.307692 0.230769 0.153846
v 0.307692 0.230769 0.230769
v 0.307692 0.307692 -0.230769
v 0.307692 0.307692 -0.153846
v 0.307692 0.307692 -0.076923
v 0.307692 0.307692 0.000000
v 0.307692 0.307692 0.076923
v 0.307692 0.307692 0.153846
v 0.307692 0.307692 0.230769
v 0.307692 0.384615 -0.230769
v 0.307692 0.461538 -0.230769
v 0.307692 0.461538 -0.153846
v 0.307692 0.384615 -0.153846
v 0.307692 0.461538 -0.076923
v 0.307692 0.384615 -0.076923
v 0.307692 0.461538 0.000000
v 0.307692 0.384615 0.000000
v 0.307692 0.461538 0.076923
v 0.307692 0.384615 0.076923
v 0.307692 0.461538 0.153846
v 0.307692 0.384615 0.153846
v 0.307692 0.461538 0.230769
v 0.307692 0.384615 0.230769
v 0.307692 0.538462 -0.230769
v 0.307692 0.538462 -0.153846
v 0.307692 0.538462 -0.076923
v 0.307692 0.538462 0.000000
v 0.307692 0.538462 0.076923
v 0.307692 0.538462 0.153846
v 0.307692 0.538462 0.230769
v 0.307692 0.692308 -0.230769
v 0.307692 0.769231 -0.230769
v 0.307692 0.769231 -0.153846
v 0.307692 0.692308 -0.153846
v 0.307692 0.769231 -0.076923
v 0.307692 0.692308 -0.076923
v 0.307692 0.769231 0.000000
v 0.307692 0.692308 0.000000
v 0.307692 0.769231 0.076923
v 0.307692 0.692308 0.076923
v 0.307692 0.769231 0.153846
v 0.307692 0.692308 0.153846
v 0.307692 0.769231 0.230769
v 0.307692 0.692308 0.230769
vt 0.346154 0.076923
vt 0.346154 0.076923
vt 0.346154 0.153846
vt 0.346154 0.153846
vt 0.346154 0.076923
vt 0.346154 0.076923
vt 0.346154 0.153846
vt 0.346154 0.076923
vt 0.346154 0.153846
vt 0.346154 0.076923
vt 0.346154 0.076923
vt 0.346154 0.153846
vt 0.346154 0.076923
vt 0.346154 0.076923
vt 0.346154 0.153846
vt 0.346154 0.076923
vt 0.346154 0.076923
vt 0.346154 0.153846
vt 0.346154 0.076923
vt 0.346154 0.076923
vt 0.346154 0.153846
vt 0.346154 0.076923
vt 0.346154 0.153846
vt 0.346154 0.230769
vt 0.346154 0.230769
vt 0.346154 0.230769
vt 0.346154 0.230769
vt 0.346154 0.230769
vt 0.346154 0.230769
vt 0.346154 0.230769
vt 0.346154 0.230769
vt 0.346154 0.230769
vt 0.346154 0.307692
vt 0.346154 0.307692
vt 0.346154 0.307692
vt 0.346154 0.307692
vt 0.346154 0.307692
vt 0.346154 0.307692
vt 0.346154 0.307692
vt 0.346154 0.307692
vt 0.346154 0.307692
vt 0.346154 0.307692
vt 0.346154 0.307692
vt 0.346154 0.307692
vt 0.346154 0.307692
vt 0.346154 0.307692
vt 0.346154 0.384615
vt 0.346154 0.384615
vt 0.346154 0.461538
vt 0.346154 0.461538
vt 0.346154 0.384615
vt 0.346154 0.384615
vt 0.346154 0.461538
vt 0.346154 0.384615
vt 0.346154 0.461538
vt 0.346154 0.384615
vt 0.346154 0.384615
vt 0.346154 0.461538
vt 0.346154 0.384615
vt 0.346154 0.384615
vt 0.346154 0.461538
vt 0.346154 0.384615
vt 0.346154 0.384615
vt 0.346154 0.461538
vt 0.346154 0.384615
vt 0.346154 0.384615
vt 0.346154 0.461538
vt 0.346154 0.384615
vt 0.346154 0.461538
vt 0.346154 0.538462
vt 0.346154 0.538462
vt 0.346154 0.538462
vt 0.346154 0.538462
vt 0.346154 0.538462
vt 0.346154 0.538462
vt 0.346154 0.538462
vt 0.346154 0.538462
vt 0.346154 0.538462
vt 0.346154 0.538462
vt 0.346154 0.538462
vt 0.346154 0.538462
vt 0.346154 0.538462
vt 0.346154 0.538462
vt 0.346154 0.692308
vt 0.346154 0.692308
vt 0.346154 0.769231
vt 0.346154 0.769231
vt 0.346154 0.769231
vt 0.346154 0.769231
vt 0.346154 0.692308
vt 0.346154 0.692308
vt 0.346154 0.692308
vt 0.346154 0.769231
vt 0.346154 0.769231
vt 0.346154 0.692308
vt 0.346154 0.692308
vt 0.346154 0.769231
vt 0.346154 0.769231
vt 0.346154 0.692308
vt 0.346154 0.692308
vt 0.346154 0.769231
vt 0.346154 0.769231
vt 0.346154 0.692308
vt 0.346154 0.692308
vt 0.346154 0.769231
vt 0.346154 0.769231
vt 0.346154 0.692308
vt 0.346154 0.692308
vt 0.346154 0.769231
vt 0.346154 0.769231
vt 0.346154 0.692308
vt 0.269231 0.000000
vt 0.269231 0.000000
vt 0.269231 0.076923
vt 0.269231 0.076923
vt 0.269231 0.000000
vt 0.269231 0.000000
vt 0.269231 0.076923
vt 0.269231 0.000000
vt 0.269231 0.076923
vt 0.269231 0.000000
vt 0.269231 0.000000
vt 0.269231 0.076923
vt 0.269231 0.000000
vt 0.269231 0.000000
vt 0.269231 0.076923
vt 0.269231 0.000000
vt 0.269231 0.076923
vt 0.346154 0.076923
vt 0.346154 0.153846
vt 0.346154 0.076923
vt 0.346154 0.076923
vt 0.346154 0.153846
vt 0.346154 0.076923
vt 0.346154 0.076923
vt 0.346154 0.076923
vt 0.346154 0.076923
vt 0.346154 0.153846
vt 0.346154 0.076923
vt 0.346154 0.153846
vt 0.346154 0.230769
vt 0.346154 0.230769
vt 0.346154 0.230769
vt 0.346154 0.230769
vt 0.346154 0.307692
vt 0.346154 0.307692
vt 0.346154 0.307692
vt 0.346154 0.307692
vt 0.346154 0.307692
vt 0.346154 0.307692
vt 0.346154 0.307692
vt 0.346154 0.307692
vt 0.346154 0.307692
vt 0.346154 0.307692
vt 0.346154 0.307692
vt 0.346154 0.384615
vt 0.346154 0.461538
vt 0.346154 0.384615
vt 0.346154 0.384615
vt 0.346154 0.461538
vt 0.346154 0.384615
vt 0.346154 0.384615
vt 0.346154 0.384615
vt 0.346154 0.384615
vt 0.346154 0.384615
vt 0.346154 0.384615
vt 0.346154 0.384615
vt 0.346154 0.461538
vt 0.346154 0.384615
vt 0.346154 0.461538
vt 0.346154 0.538462
vt 0.346154 0.538462
vt 0.346154 0.538462
vt 0.346154 0.538462
vt 0.346154 0.538462
vt 0.346154 0.538462
vt 0.346154 0.538462
vt 0.346154 0.538462
vt 0.346154 0.538462
vt 0.346154 0.538462
vt 0.346154 0.538462
vt 0.346154 0.692308
vt 0.346154 0.769231
vt 0.346154 0.769231
vt 0.346154 0.769231
vt 0.346154 0.692308
vt 0.346154 0.692308
vt 0.346154 0.769231
vt 0.346154 0.692308
vt 0.346154 0.769231
vt 0.346154 0.692308
vt 0.346154 0.769231
vt 0.346154 0.692308
vt 0.346154 0.769231
vt 0.346154 0.692308
vt 0.346154 0.769231
vt 0.346154 0.692308
vt 0.346154 0.769231
vt 0.346154 0.692308
vt 0.346154 0.692308
vt 0.346154 0.769231
vt 0.346154 0.769231
vt 0.346154 0.692308
vt 0.269231 0.000000
vt 0.269231 0.076923
vt 0.269231 0.000000
vt 0.269231 0.000000
vt 0.269231 0.076923
vt 0.269231 0.000000
vt 0.269231 0.000000
vt 0.269231 0.000000
vt 0.269231 0.000000
vt 0.269231 0.000000
vt 0.269231 0.076923
vt 0.269231 0.000000
vt 0.269231 0.076923
vt 0.346154 0.076923
vt 0.346154 0.076923
vt 0.346154 0.153846
vt 0.346154 0.076923
vt 0.346154 0.076923
vt 0.346154 0.153846
vt 0.346154 0.230769
vt 0.346154 0.230769
vt 0.346154 0.307692
vt 0.346154 0.307692
vt 0.346154 0.307692
vt 0.346154 0.307692
vt 0.346154 0.307692
vt 0.346154 0.307692
vt 0.346154 0.307692
vt 0.346154 0.307692
vt 0.346154 0.307692
vt 0.346154 0.384615
vt 0.346154 0.384615
vt 0.346154 0.461538
vt 0.346154 0.384615
vt 0.346154 0.384615
vt 0.346154 0.384615
vt 0.346154 0.384615
vt 0.346154 0.384615
vt 0.346154 0.384615
vt 0.346154 0.384615
vt 0.346154 0.461538
vt 0.346154 0.538462
vt 0.346154 0.538462
vt 0.346154 0.538462
vt 0.346154 0.538462
vt 0.346154 0.538462
vt 0.346154 0.538462
vt 0.346154 0.538462
vt 0.346154 0.538462
vt 0.346154 0.538462
vt 0.346154 0.769231
vt 0.346154 0.769231
vt 0.346154 0.692308
vt 0.346154 0.692308
vt 0.346154 0.769231
vt 0.346154 0.692308
vt 0.346154 0.769231
vt 0.346154 0.692308
vt 0.346154 0.769231
vt 0.346154 0.692308
vt 0.346154 0.769231
vt 0.346154 0.692308
vt 0.346154 0.769231
vt 0.346154 0.692308
vt 0.346154 0.769231
vt 0.346154 0.692308
vt 0.346154 0.769231
vt 0.346154 0.692308
vt 0.269231 0.000000
vt 0.269231 0.000000
vt 0.269231 0.076923
vt 0.269231 0.000000
vt 0.269231 0.000000
vt 0.269231 0.000000
vt 0.269231 0.000000
vt 0.269231 0.000000
vt 0.269231 0.076923
vt 0.346154 0.076923
vt 0.346154 0.076923
vt 0.346154 0.153846
vt 0.346154 0.076923
vt 0.346154 0.076923
vt 0.346154 0.153846
vt 0.346154 0.230769
vt 0.346154 0.230769
vt 0.346154 0.307692
vt 0.346154 0.307692
vt 0.346154 0.307692
vt 0.346154 0.307692
vt 0.346154 0.307692
vt 0.346154 0.307692
vt 0.346154 0.307692
vt 0.346154 0.307692
vt 0.115385 0.307692
vt 0.115385 0.307692
vt 0.115385 0.384615
vt 0.115385 0.384615
vt 0.115385 0.384615
vt 0.115385 0.307692
vt 0.115385 0.307692
vt 0.115385 0.384615
vt 0.115385 0.307692
vt 0.115385 0.384615
vt 0.346154 0.384615
vt 0.346154 0.384615
vt 0.346154 0.461538
vt 0.346154 0.384615
vt 0.346154 0.384615
vt 0.346154 0.384615
vt 0.346154 0.384615
vt 0.346154 0.384615
vt 0.346154 0.384615
vt 0.346154 0.461538
vt 0.346154 0.538462
vt 0.346154 0.538462
vt 0.346154 0.538462
vt 0.346154 0.538462
vt 0.346154 0.538462
vt 0.346154 0.538462
vt 0.346154 0.538462
vt 0.346154 0.538462
vt 0.115385 0.538462
vt 0.115385 0.538462
vt 0.115385 0.615385
vt 0.115385 0.615385
vt 0.115385 0.615385
vt 0.115385 0.538462
vt 0.115385 0.538462
vt 0.115385 0.615385
vt 0.115385 0.538462
vt 0.115385 0.615385
vt 0.115385 0.692308
vt 0.115385 0.692308
vt 0.115385 0.692308
vt 0.115385 0.692308
vt 0.115385 0.692308
vt 0.346154 0.769231
vt 0.346154 0.769231
vt 0.346154 0.692308
vt 0.346154 0.692308
vt 0.346154 0.769231
vt 0.346154 0.692308
vt 0.346154 0.769231
vt 0.346154 0.692308
vt 0.346154 0.769231
vt 0.346154 0.769231
vt 0.346154 0.692308
vt 0.346154 0.692308
vt 0.346154 0.769231
vt 0.346154 0.692308
vt 0.346154 0.769231
vt 0.346154 0.692308
vt 0.115385 0.769231
vt 0.115385 0.769231
vt 0.115385 0.846154
vt 0.115385 0.846154
vt 0.115385 0.846154
vt 0.115385 0.769231
vt 0.115385 0.769231
vt 0.115385 0.846154
vt 0.115385 0.769231
vt 0.115385 0.846154
vt 0.115385 0.923077
vt 0.115385 0.923077
vt 0.115385 0.923077
vt 0.115385 0.923077
vt 0.115385 0.923077
vt 0.115385 0.923077
vt 0.269231 0.000000
vt 0.269231 0.000000
vt 0.269231 0.076923
vt 0.269231 0.000000
vt 0.269231 0.000000
vt 0.269231 0.000000
vt 0.269231 0.000000
vt 0.269231 0.000000
vt 0.269231 0.076923
vt 0.346154 0.076923
vt 0.346154 0.076923
vt 0.346154 0.153846
vt 0.346154 0.076923
vt 0.346154 0.076923
vt 0.346154 0.153846
vt 0.346154 0.230769
vt 0.346154 0.230769
vt 0.346154 0.307692
vt 0.346154 0.307692
vt 0.346154 0.307692
vt 0.346154 0.307692
vt 0.346154 0.307692
vt 0.346154 0.307692
vt 0.346154 0.307692
vt 0.346154 0.307692
vt 0.115385 0.307692
vt 0.115385 0.384615
vt 0.115385 0.384615
vt 0.115385 0.307692
vt 0.115385 0.384615
vt 0.115385 0.307692
vt 0.346154 0.384615
vt 0.346154 0.384615
vt 0.346154 0.461538
vt 0.346154 0.384615
vt 0.346154 0.384615
vt 0.346154 0.384615
vt 0.346154 0.384615
vt 0.346154 0.384615
vt 0.346154 0.384615
vt 0.346154 0.461538
vt 0.346154 0.538462
vt 0.346154 0.538462
vt 0.346154 0.538462
vt 0.346154 0.538462
vt 0.346154 0.538462
vt 0.346154 0.538462
vt 0.346154 0.538462
vt 0.346154 0.538462
vt 0.115385 0.538462
vt 0.115385 0.615385
vt 0.115385 0.615385
vt 0.115385 0.538462
vt 0.115385 0.615385
vt 0.115385 0.538462
vt 0.115385 0.692308
vt 0.115385 0.692308
vt 0.115385 0.692308
vt 0.346154 0.769231
vt 0.346154 0.769231
vt 0.346154 0.692308
vt 0.346154 0.692308
vt 0.346154 0.769231
vt 0.346154 0.692308
vt 0.346154 0.769231
vt 0.346154 0.692308
vt 0.346154 0.769231
vt 0.346154 0.769231
vt 0.346154 0.692308
vt 0.346154 0.692308
vt 0.346154 0.769231
vt 0.346154 0.692308
vt 0.346154 0.769231
vt 0.346154 0.692308
vt 0.115385 0.769231
vt 0.115385 0.846154
vt 0.115385 0.846154
vt 0.115385 0.769231
vt 0.115385 0.846154
vt 0.115385 0.769231
vt 0.115385 0.923077
vt 0.115385 0.923077
vt 0.115385 0.923077
vt 0.269231 0.000000
vt 0.269231 0.076923
vt 0.269231 0.076923
vt 0.269231 0.000000
vt 0.269231 0.000000
vt 0.269231 0.000000
vt 0.269231 0.000000
vt 0.269231 0.000000
vt 0.269231 0.076923
vt 0.269231 0.076923
vt 0.269231 0.000000
vt 0.346154 0.076923
vt 0.346154 0.076923
vt 0.346154 0.153846
vt 0.346154 0.076923
vt 0.346154 0.076923
vt 0.346154 0.153846
vt 0.346154 0.230769
vt 0.346154 0.230769
vt 0.346154 0.307692
vt 0.346154 0.307692
vt 0.346154 0.307692
vt 0.346154 0.307692
vt 0.346154 0.307692
vt 0.346154 0.307692
vt 0.346154 0.307692
vt 0.346154 0.307692
vt 0.346154 0.307692
vt 0.346154 0.307692
vt 0.346154 0.384615
vt 0.346154 0.384615
vt 0.346154 0.461538
vt 0.346154 0.384615
vt 0.346154 0.384615
vt 0.346154 0.384615
vt 0.346154 0.384615
vt 0.346154 0.384615
vt 0.346154 0.384615
vt 0.346154 0.384615
vt 0.346154 0.384615
vt 0.346154 0.461538
vt 0.346154 0.538462
vt 0.346154 0.538462
vt 0.346154 0.538462
vt 0.346154 0.538462
vt 0.346154 0.538462
vt 0.346154 0.538462
vt 0.346154 0.538462
vt 0.346154 0.538462
vt 0.346154 0.538462
vt 0.346154 0.538462
vt 0.346154 0.769231
vt 0.346154 0.769231
vt 0.346154 0.692308
vt 0.346154 0.692308
vt 0.346154 0.769231
vt 0.346154 0.692308
vt 0.346154 0.769231
vt 0.346154 0.692308
vt 0.346154 0.769231
vt 0.346154 0.769231
vt 0.346154 0.692308
vt 0.346154 0.692308
vt 0.346154 0.769231
vt 0.346154 0.692308
vt 0.346154 0.769231
vt 0.346154 0.692308
vt 0.346154 0.769231
vt 0.346154 0.692308
vt 0.346154 0.769231
vt 0.346154 0.692308
vt 0.269231 0.000000
vt 0.269231 0.076923
vt 0.269231 0.076923
vt 0.269231 0.000000
vt 0.269231 0.076923
vt 0.269231 0.000000
vt 0.269231 0.076923
vt 0.269231 0.000000
vt 0.269231 0.076923
vt 0.269231 0.000000
vt 0.346154 0.076923
vt 0.346154 0.153846
vt 0.346154 0.153846
vt 0.346154 0.076923
vt 0.346154 0.076923
vt 0.346154 0.076923
vt 0.346154 0.076923
vt 0.346154 0.076923
vt 0.346154 0.076923
vt 0.346154 0.153846
vt 0.346154 0.153846
vt 0.346154 0.076923
vt 0.346154 0.230769
vt 0.346154 0.230769
vt 0.346154 0.230769
vt 0.346154 0.230769
vt 0.346154 0.307692
vt 0.346154 0.307692
vt 0.346154 0.307692
vt 0.346154 0.307692
vt 0.346154 0.307692
vt 0.346154 0.307692
vt 0.346154 0.307692
vt 0.346154 0.307692
vt 0.346154 0.307692
vt 0.346154 0.384615
vt 0.346154 0.461538
vt 0.346154 0.461538
vt 0.346154 0.384615
vt 0.346154 0.384615
vt 0.346154 0.384615
vt 0.346154 0.384615
vt 0.346154 0.384615
vt 0.346154 0.384615
vt 0.346154 0.384615
vt 0.346154 0.461538
vt 0.346154 0.461538
vt 0.346154 0.384615
vt 0.346154 0.538462
vt 0.346154 0.538462
vt 0.346154 0.538462
vt 0.346154 0.538462
vt 0.346154 0.538462
vt 0.346154 0.538462
vt 0.346154 0.538462
vt 0.346154 0.538462
vt 0.346154 0.538462
vt 0.346154 0.692308
vt 0.346154 0.769231
vt 0.346154 0.769231
vt 0.346154 0.692308
vt 0.346154 0.769231
vt 0.346154 0.692308
vt 0.346154 0.769231
vt 0.346154 0.692308
vt 0.346154 0.769231
vt 0.346154 0.692308
vt 0.346154 0.769231
vt 0.346154 0.692308
vt 0.346154 0.769231
vt 0.346154 0.692308
vt 0.346154 0.769231
vt 0.346154 0.692308
vt 0.346154 0.769231
vt 0.346154 0.692308
vt 0.346154 0.076923
vt 0.346154 0.153846
vt 0.346154 0.153846
vt 0.346154 0.076923
vt 0.346154 0.153846
vt 0.346154 0.076923
vt 0.346154 0.076923
vt 0.346154 0.153846
vt 0.346154 0.076923
vt 0.346154 0.076923
vt 0.346154 0.153846
vt 0.346154 0.076923
vt 0.346154 0.076923
vt 0.346154 0.153846
vt 0.346154 0.076923
vt 0.346154 0.153846
vt 0.346154 0.076923
vt 0.346154 0.230769
vt 0.346154 0.230769
vt 0.346154 0.230769
vt 0.346154 0.230769
vt 0.346154 0.230769
vt 0.346154 0.230769
vt 0.346154 0.230769
vt 0.346154 0.307692
vt 0.346154 0.307692
vt 0.346154 0.307692
vt 0.346154 0.307692
vt 0.346154 0.307692
vt 0.346154 0.307692
vt 0.346154 0.307692
vt 0.346154 0.384615
vt 0.346154 0.461538
vt 0.346154 0.461538
vt 0.346154 0.384615
vt 0.346154 0.461538
vt 0.346154 0.384615
vt 0.346154 0.461538
vt 0.346154 0.384615
vt 0.346154 0.461538
vt 0.346154 0.384615
vt 0.346154 0.461538
vt 0.346154 0.384615
vt 0.346154 0.461538
vt 0.346154 0.384615
vt 0.346154 0.538462
vt 0.346154 0.538462
vt 0.346154 0.538462
vt 0.346154 0.538462
vt 0.346154 0.538462
vt 0.346154 0.538462
vt 0.346154 0.538462
vt 0.346154 0.692308
vt 0.346154 0.769231
vt 0.346154 0.769231
vt 0.346154 0.692308
vt 0.346154 0.769231
vt 0.346154 0.692308
vt 0.346154 0.769231
vt 0.346154 0.692308
vt 0.346154 0.769231
vt 0.346154 0.692308
vt 0.346154 0.769231
vt 0.346154 0.692308
vt 0.346154 0.769231
vt 0.346154 0.692308
usemtl torchpart
f 1/1 2/2 3/3
f 1/1 3/3 4/4
f 1/1 5/5 6/6
f 1/1 6/6 2/2
f 1/1 4/4 7/7
f 1/1 7/7 5/5
f 2/2 8/8 9/9
f 2/2 9/9 3/3
f 2/2 6/6 10/10
f 2/2 10/10 8/8
f 8/8 11/11 12/12
f 8/8 12/12 9/9
f 8/8 10/10 13/13
f 8/8 13/13 11/11
f 11/11 14/14 15/15
f 11/11 15/15 12/12
f 11/11 13/13 16/16
f 11/11 16/16 14/14
f 14/14 17/17 18/18
f 14/14 18/18 15/15
f 14/14 16/16 19/19
f 14/14 19/19 17/17
f 17/17 20/20 21/21
f 17/17 21/21 18/18
f 17/17 19/19 22/22
f 17/17 22/22 20/20
f 20/20 22/22 23/23
f 20/20 23/23 21/21
f 4/4 3/3 24/24
f 4/4 24/24 25/25
f 4/4 25/25 26/26
f 4/4 26/26 7/7
f 3/3 9/9 27/27
f 3/3 27/27 24/24
f 9/9 12/12 28/28
f 9/9 28/28 27/27
f 12/12 15/15 29/29
f 12/12 29/29 28/28
f 15/15 18/18 30/30
f 15/15 30/30 29/29
f 18/18 21/21 31/31
f 18/18 31/31 30/30
f 21/21 23/23 32/32
f 21/21 32/32 31/31
f 25/25 24/24 33/33
f 25/25 33/33 34/34
f 34/34 33/33 35/35
f 34/34 35/35 36/36
f 25/25 34/34 36/36
f 25/25 36/36 26/26
f 24/24 27/27 37/37
f 24/24 37/37 33/33
f 33/33 37/37 38/38
f 33/33 38/38 35/35
f 27/27 28/28 39/39
f 27/27 39/39 37/37
f 37/37 39/39 40/40
f 37/37 40/40 38/38
f 28/28 29/29 41/41
f 28/28 41/41 39/39
f 39/39 41/41 42/42
f 39/39 42/42 40/40
f 29/29 30/30 43/43
f 29/29 43/43 41/41
f 41/41 43/43 44/44
f 41/41 44/44 42/42
f 30/30 31/31 45/45
f 30/30 45/45 43/43
f 43/43 45/45 46/46
f 43/43 46/46 44/44
f 31/31 32/32 46/46
f 31/31 46/46 45/45
f 47/47 48/48 49/49
f 47/47 49/49 50/50
f 47/47 51/51 52/52
f 47/47 52/52 48/48
f 47/47 50/50 53/53
f 47/47 53/53 51/51
f 48/48 54/54 55/55
f 48/48 55/55 49/49
f 48/48 52/52 56/56
f 48/48 56/56 54/54
f 54/54 57/57 58/58
f 54/54 58/58 55/55
f 54/54 56/56 59/59
f 54/54 59/59 57/57
f 57/57 60/60 61/61
f 57/57 61/61 58/58
f 57/57 59/59 62/62
f 57/57 62/62 60/60
f 60/60 63/63 64/64
f 60/60 64/64 61/61
f 60/60 62/62 65/65
f 60/60 65/65 63/63
f 63/63 66/66 67/67
f 63/63 67/67 64/64
f 63/63 65/65 68/68
f 63/63 68/68 66/66
f 66/66 68/68 69/69
f 66/66 69/69 67/67
f 50/50 49/49 70/70
f 50/50 70/70 71/71
f 71/71 70/70 72/72
f 71/71 72/72 73/73
f 50/50 71/71 73/73
f 50/50 73/73 53/53
f 49/49 55/55 74/74
f 49/49 74/74 70/70
f 70/70 74/74 75/75
f 70/70 75/75 72/72
f 55/55 58/58 76/76
f 55/55 76/76 74/74
f 74/74 76/76 77/77
f 74/74 77/77 75/75
f 58/58 61/61 78/78
f 58/58 78/78 76/76
f 76/76 78/78 79/79
f 76/76 79/79 77/77
f 61/61 64/64 80/80
f 61/61 80/80 78/78
f 78/78 80/80 81/81
f 78/78 81/81 79/79
f 64/64 67/67 82/82
f 64/64 82/82 80/80
f 80/80 82/82 83/83
f 80/80 83/83 81/81
f 67/67 69/69 83/83
f 67/67 83/83 82/82
f 84/84 85/85 86/86
f 84/84 86/86 87/87
f 87/87 86/86 88/88
f 87/87 88/88 89/89
f 84/84 90/90 91/91
f 84/84 91/91 85/85
f 84/84 87/87 89/89
f 84/84 89/89 90/90
f 85/85 92/92 93/93
f 85/85 93/93 86/86
f 86/86 93/93 94/94
f 86/86 94/94 88/88
f 85/85 91/91 95/95
f 85/85 95/95 92/92
f 92/92 96/96 97/97
f 92/92 97/97 93/93
f 93/93 97/97 98/98
f 93/93 98/98 94/94
f 92/92 95/95 99/99
f 92/92 99/99 96/96
f 96/96 100/100 101/101
f 96/96 101/101 97/97
f 97/97 101/101 102/102
f 97/97 102/102 98/98
f 96/96 99/99 103/103
f 96/96 103/103 100/100
f 100/100 104/104 105/105
f 100/100 105/105 101/101
f 101/101 105/105 106/106
f 101/101 106/106 102/102
f 100/100 103/103 107/107
f 100/100 107/107 104/104
f 104/104 108/108 109/109
f 104/104 109/109 105/105
f 105/105 109/109 110/110
f 105/105 110/110 106/106
f 104/104 107/107 111/111
f 104/104 111/111 108/108
f 108/108 111/111 110/110
f 108/108 110/110 109/109
f 112/112 113/113 114/114
f 112/112 114/114 115/115
f 112/112 116/116 117/117
f 112/112 117/117 113/113
f 112/112 115/115 118/118
f 112/112 118/118 116/116
f 113/113 119/119 120/120
f 113/113 120/120 114/114
f 113/113 117/117 121/121
f 113/113 121/121 119/119
f 119/119 122/122 123/123
f 119/119 123/123 120/120
f 119/119 121/121 124/124
f 119/119 124/124 122/122
f 122/122 125/125 126/126
f 122/122 126/126 123/123
f 122/122 124/124 127/127
f 122/122 127/127 125/125
f 125/125 127/127 128/128
f 125/125 128/128 126/126
f 129/129 5/5 7/7
f 129/129 7/7 130/130
f 129/129 131/131 132/132
f 129/129 132/132 5/5
f 129/129 130/130 133/133
f 129/129 133/133 131/131
f 5/5 132/132 134/134
f 5/5 134/134 6/6
f 19/19 135/135 136/136
f 19/19 136/136 22/22
f 22/22 137/137 138/138
f 22/22 138/138 23/23
f 22/22 136/136 139/139
f 22/22 139/139 137/137
f 137/137 139/139 140/140
f 137/137 140/140 138/138
f 130/130 7/7 26/26
f 130/130 26/26 141/141
f 130/130 141/141 142/142
f 130/130 142/142 133/133
f 23/23 138/138 143/143
f 23/23 143/143 32/32
f 138/138 140/140 144/144
f 138/138 144/144 143/143
f 141/141 26/26 36/36
f 141/141 36/36 145/145
f 145/145 36/36 146/146
f 145/145 146/146 147/147
f 141/141 145/145 147/147
f 141/141 147/147 142/142
f 36/36 35/35 148/148
f 36/36 148/148 146/146
f 35/35 38/38 149/149
f 35/35 149/149 148/148
f 38/38 40/40 150/150
f 38/38 150/150 149/149
f 40/40 42/42 151/151
f 40/40 151/151 150/150
f 42/42 44/44 152/152
f 42/42 152/152 151/151
f 44/44 46/46 153/153
f 44/44 153/153 152/152
f 32/32 143/143 154/154
f 32/32 154/154 46/46
f 46/46 154/154 155/155
f 46/46 155/155 153/153
f 143/143 144/144 155/155
f 143/143 155/155 154/154
f 156/156 51/51 53/53
f 156/156 53/53 157/157
f 156/156 158/158 159/159
f 156/156 159/159 51/51
f 156/156 157/157 160/160
f 156/156 160/160 158/158
f 51/51 159/159 161/161
f 51/51 161/161 52/52
f 52/52 161/161 162/162
f 52/52 162/162 56/56
f 56/56 162/162 163/163
f 56/56 163/163 59/59
f 59/59 163/163 164/164
f 59/59 164/164 62/62
f 62/62 164/164 165/165
f 62/62 165/165 65/65
f 65/65 165/165 166/166
f 65/65 166/166 68/68
f 68/68 167/167 168/168
f 68/68 168/168 69/69
f 68/68 166/166 169/169
f 68/68 169/169 167/167
f 167/167 169/169 170/170
f 167/167 170/170 168/168
f 157/157 53/53 73/73
f 157/157 73/73 171/171
f 171/171 73/73 172/172
f 171/171 172/172 173/173
f 157/157 171/171 173/173
f 157/157 173/173 160/160
f 73/73 72/72 174/174
f 73/73 174/174 172/172
f 72/72 75/75 175/175
f 72/72 175/175 174/174
f 75/75 77/77 176/176
f 75/75 176/176 175/175
f 77/77 79/79 177/177
f 77/77 177/177 176/176
f 79/79 81/81 178/178
f 79/79 178/178 177/177
f 81/81 83/83 179/179
f 81/81 179/179 178/178
f 69/69 168/168 180/180
f 69/69 180/180 83/83
f 83/83 180/180 181/181
f 83/83 181/181 179/179
f 168/168 170/170 181/181
f 168/168 181/181 180/180
f 182/182 90/90 89/89
f 182/182 89/89 183/183
f 183/183 89/89 184/184
f 183/183 184/184 185/185
f 182/182 186/186 187/187
f 182/182 187/187 90/90
f 182/182 183/183 185/185
f 182/182 185/185 186/186
f 89/89 88/88 188/188
f 89/89 188/188 184/184
f 90/90 187/187 189/189
f 90/90 189/189 91/91
f 88/88 94/94 190/190
f 88/88 190/190 188/188
f 91/91 189/189 191/191
f 91/91 191/191 95/95
f 94/94 98/98 192/192
f 94/94 192/192 190/190
f 95/95 191/191 193/193
f 95/95 193/193 99/99
f 98/98 102/102 194/194
f 98/98 194/194 192/192
f 99/99 193/193 195/195
f 99/99 195/195 103/103
f 102/102 106/106 196/196
f 102/102 196/196 194/194
f 103/103 195/195 197/197
f 103/103 197/197 107/107
f 106/106 110/110 198/198
f 106/106 198/198 196/196
f 107/107 197/197 199/199
f 107/107 199/199 111/111
f 111/111 200/200 201/201
f 111/111 201/201 110/110
f 110/110 201/201 202/202
f 110/110 202/202 198/198
f 111/111 199/199 203/203
f 111/111 203/203 200/200
f 200/200 203/203 202/202
f 200/200 202/202 201/201
f 204/204 116/116 118/118
f 204/204 118/118 205/205
f 204/204 206/206 207/207
f 204/204 207/207 116/116
f 204/204 205/205 208/208
f 204/204 208/208 206/206
f 116/116 207/207 209/209
f 116/116 209/209 117/117
f 117/117 209/209 210/210
f 117/117 210/210 121/121
f 121/121 210/210 211/211
f 121/121 211/211 124/124
f 124/124 211/211 212/212
f 124/124 212/212 127/127
f 127/127 213/213 214/214
f 127/127 214/214 128/128
f 127/127 212/212 215/215
f 127/127 215/215 213/213
f 213/213 215/215 216/216
f 213/213 216/216 214/214
f 131/131 217/217 218/218
f 131/131 218/218 132/132
f 131/131 133/133 219/219
f 131/131 219/219 217/217
f 136/136 220/220 221/221
f 136/136 221/221 139/139
f 139/139 221/221 222/222
f 139/139 222/222 140/140
f 133/133 142/142 223/223
f 133/133 223/223 219/219
f 140/140 222/222 224/224
f 140/140 224/224 144/144
f 147/147 146/146 225/225
f 147/147 225/225 226/226
f 142/142 147/147 226/226
f 142/142 226/226 223/223
f 146/146 148/148 227/227
f 146/146 227/227 225/225
f 148/148 149/149 228/228
f 148/148 228/228 227/227
f 149/149 150/150 229/229
f 149/149 229/229 228/228
f 150/150 151/151 230/230
f 150/150 230/230 229/229
f 151/151 152/152 231/231
f 151/151 231/231 230/230
f 152/152 153/153 232/232
f 152/152 232/232 231/231
f 153/153 155/155 233/233
f 153/153 233/233 232/232
f 144/144 224/224 233/233
f 144/144 233/233 155/155
f 158/158 234/234 235/235
f 158/158 235/235 159/159
f 158/158 160/160 236/236
f 158/158 236/236 234/234
f 159/159 235/235 237/237
f 159/159 237/237 161/161
f 161/161 237/237 238/238
f 161/161 238/238 162/162
f 162/162 238/238 239/239
f 162/162 239/239 163/163
f 163/163 239/239 240/240
f 163/163 240/240 164/164
f 164/164 240/240 241/241
f 164/164 241/241 165/165
f 165/165 241/241 242/242
f 165/165 242/242 166/166
f 166/166 242/242 243/243
f 166/166 243/243 169/169
f 169/169 243/243 244/244
f 169/169 244/244 170/170
f 173/173 172/172 245/245
f 173/173 245/245 246/246
f 160/160 173/173 246/246
f 160/160 246/246 236/236
f 172/172 174/174 247/247
f 172/172 247/247 245/245
f 174/174 175/175 248/248
f 174/174 248/248 247/247
f 175/175 176/176 249/249
f 175/175 249/249 248/248
f 176/176 177/177 250/250
f 176/176 250/250 249/249
f 177/177 178/178 251/251
f 177/177 251/251 250/250
f 178/178 179/179 252/252
f 178/178 252/252 251/251
f 179/179 181/181 253/253
f 179/179 253/253 252/252
f 170/170 244/244 253/253
f 170/170 253/253 181/181
f 185/185 184/184 254/254
f 185/185 254/254 255/255
f 186/186 256/256 257/257
f 186/186 257/257 187/187
f 186/186 185/185 255/255
f 186/186 255/255 256/256
f 184/184 188/188 258/258
f 184/184 258/258 254/254
f 187/187 257/257 259/259
f 187/187 259/259 189/189
f 188/188 190/190 260/260
f 188/188 260/260 258/258
f 189/189 259/259 261/261
f 189/189 261/261 191/191
f 190/190 192/192 262/262
f 190/190 262/262 260/260
f 191/191 261/261 263/263
f 191/191 263/263 193/193
f 192/192 194/194 264/264
f 192/192 264/264 262/262
f 193/193 263/263 265/265
f 193/193 265/265 195/195
f 194/194 196/196 266/266
f 194/194 266/266 264/264
f 195/195 265/265 267/267
f 195/195 267/267 197/197
f 196/196 198/198 268/268
f 196/196 268/268 266/266
f 197/197 267/267 269/269
f 197/197 269/269 199/199
f 198/198 202/202 270/270
f 198/198 270/270 268/268
f 199/199 269/269 271/271
f 199/199 271/271 203/203
f 203/203 271/271 270/270
f 203/203 270/270 202/202
f 206/206 272/272 273/273
f 206/206 273/273 207/207
f 206/206 208/208 274/274
f 206/206 274/274 272/272
f 207/207 273/273 275/275
f 207/207 275/275 209/209
f 209/209 275/275 276/276
f 209/209 276/276 210/210
f 210/210 276/276 277/277
f 210/210 277/277 211/211
f 211/211 277/277 278/278
f 211/211 278/278 212/212
f 212/212 278/278 279/279
f 212/212 279/279 215/215
f 215/215 279/279 280/280
f 215/215 280/280 216/216
f 217/217 281/281 282/282
f 217/217 282/282 218/218
f 217/217 219/219 283/283
f 217/217 283/283 281/281
f 220/220 284/284 285/285
f 220/220 285/285 221/221
f 221/221 285/285 286/286
f 221/221 286/286 222/222
f 219/219 223/223 287/287
f 219/219 287/287 283/283
f 222/222 286/286 288/288
f 222/222 288/288 224/224
f 226/226 225/225 289/289
f 226/226 289/289 290/290
f 223/223 226/226 290/290
f 223/223 290/290 287/287
f 225/225 227/227 291/291
f 225/225 291/291 289/289
f 227/227 228/228 292/292
f 227/227 292/292 291/291
f 230/230 231/231 293/293
f 230/230 293/293 294/294
f 231/231 232/232 295/295
f 231/231 295/295 293/293
f 232/232 233/233 296/296
f 232/232 296/296 295/295
f 224/224 288/288 296/296
f 224/224 296/296 233/233
f 297/297 298/298 299/299
f 297/297 299/299 300/300
f 297/297 300/300 301/301
f 297/297 301/301 302/302
f 298/298 303/303 304/304
f 298/298 304/304 299/299
f 303/303 305/305 306/306
f 303/303 306/306 304/304
f 234/234 307/307 308/308
f 234/234 308/308 235/235
f 234/234 236/236 309/309
f 234/234 309/309 307/307
f 235/235 308/308 310/310
f 235/235 310/310 237/237
f 237/237 310/310 311/311
f 237/237 311/311 238/238
f 240/240 312/312 313/313
f 240/240 313/313 241/241
f 241/241 313/313 314/314
f 241/241 314/314 242/242
f 242/242 314/314 315/315
f 242/242 315/315 243/243
f 243/243 315/315 316/316
f 243/243 316/316 244/244
f 246/246 245/245 317/317
f 246/246 317/317 318/318
f 236/236 246/246 318/318
f 236/236 318/318 309/309
f 245/245 247/247 319/319
f 245/245 319/319 317/317
f 247/247 248/248 320/320
f 247/247 320/320 319/319
f 250/250 251/251 321/321
f 250/250 321/321 322/322
f 251/251 252/252 323/323
f 251/251 323/323 321/321
f 252/252 253/253 324/324
f 252/252 324/324 323/323
f 244/244 316/316 324/324
f 244/244 324/324 253/253
f 325/325 326/326 327/327
f 325/325 327/327 328/328
f 325/325 328/328 329/329
f 325/325 329/329 330/330
f 326/326 331/331 332/332
f 326/326 332/332 327/327
f 331/331 333/333 334/334
f 331/331 334/334 332/332
f 328/328 327/327 335/335
f 328/328 335/335 336/336
f 328/328 336/336 337/337
f 328/328 337/337 329/329
f 327/327 332/332 338/338
f 327/327 338/338 335/335
f 332/332 334/334 339/339
f 332/332 339/339 338/338
f 255/255 254/254 340/340
f 255/255 340/340 341/341
f 256/256 342/342 343/343
f 256/256 343/343 257/257
f 256/256 255/255 341/341
f 256/256 341/341 342/342
f 254/254 258/258 344/344
f 254/254 344/344 340/340
f 257/257 343/343 345/345
f 257/257 345/345 259/259
f 258/258 260/260 346/346
f 258/258 346/346 344/344
f 259/259 345/345 347/347
f 259/259 347/347 261/261
f 264/264 266/266 348/348
f 264/264 348/348 349/349
f 265/265 350/350 351/351
f 265/265 351/351 267/267
f 266/266 268/268 352/352
f 266/266 352/352 348/348
f 267/267 351/351 353/353
f 267/267 353/353 269/269
f 268/268 270/270 354/354
f 268/268 354/354 352/352
f 269/269 353/353 355/355
f 269/269 355/355 271/271
f 271/271 355/355 354/354
f 271/271 354/354 270/270
f 356/356 357/357 358/358
f 356/356 358/358 359/359
f 356/356 359/359 360/360
f 356/356 360/360 361/361
f 357/357 362/362 363/363
f 357/357 363/363 358/358
f 362/362 364/364 365/365
f 362/362 365/365 363/363
f 359/359 358/358 366/366
f 359/359 366/366 367/367
f 367/367 366/366 368/368
f 367/367 368/368 369/369
f 359/359 367/367 369/369
f 359/359 369/369 360/360
f 358/358 363/363 370/370
f 358/358 370/370 366/366
f 366/366 370/370 371/371
f 366/366 371/371 368/368
f 363/363 365/365 371/371
f 363/363 371/371 370/370
f 272/272 372/372 373/373
f 272/272 373/373 273/273
f 272/272 274/274 374/374
f 272/272 374/374 372/372
f 273/273 373/373 375/375
f 273/273 375/375 275/275
f 275/275 375/375 376/376
f 275/275 376/376 276/276
f 276/276 376/376 377/377
f 276/276 377/377 277/277
f 277/277 377/377 378/378
f 277/277 378/378 278/278
f 278/278 378/378 379/379
f 278/278 379/379 279/279
f 279/279 379/379 380/380
f 279/279 380/380 280/280
f 281/281 381/381 382/382
f 281/281 382/382 282/282
f 281/281 283/283 383/383
f 281/281 383/383 381/381
f 284/284 384/384 385/385
f 284/284 385/385 285/285
f 285/285 385/385 386/386
f 285/285 386/386 286/286
f 283/283 287/287 387/387
f 283/283 387/387 383/383
f 286/286 386/386 388/388
f 286/286 388/388 288/288
f 290/290 289/289 389/389
f 290/290 389/389 390/390
f 287/287 290/290 390/390
f 287/287 390/390 387/387
f 289/289 291/291 391/391
f 289/289 391/391 389/389
f 291/291 292/292 392/392
f 291/291 392/392 391/391
f 294/294 293/293 393/393
f 294/294 393/393 394/394
f 293/293 295/295 395/395
f 293/293 395/395 393/393
f 295/295 296/296 396/396
f 295/295 396/396 395/395
f 288/288 388/388 396/396
f 288/288 396/396 296/296
f 397/397 398/398 399/399
f 397/397 399/399 400/400
f 302/302 301/301 398/398
f 302/302 398/398 397/397
f 400/400 399/399 401/401
f 400/400 401/401 402/402
f 305/305 402/402 401/401
f 305/305 401/401 306/306
f 307/307 403/403 404/404
f 307/307 404/404 308/308
f 307/307 309/309 405/405
f 307/307 405/405 403/403
f 308/308 404/404 406/406
f 308/308 406/406 310/310
f 310/310 406/406 407/407
f 310/310 407/407 311/311
f 312/312 408/408 409/409
f 312/312 409/409 313/313
f 313/313 409/409 410/410
f 313/313 410/410 314/314
f 314/314 410/410 411/411
f 314/314 411/411 315/315
f 315/315 411/411 412/412
f 315/315 412/412 316/316
f 318/318 317/317 413/413
f 318/318 413/413 414/414
f 309/309 318/318 414/414
f 309/309 414/414 405/405
f 317/317 319/319 415/415
f 317/317 415/415 413/413
f 319/319 320/320 416/416
f 319/319 416/416 415/415
f 322/322 321/321 417/417
f 322/322 417/417 418/418
f 321/321 323/323 419/419
f 321/321 419/419 417/417
f 323/323 324/324 420/420
f 323/323 420/420 419/419
f 316/316 412/412 420/420
f 316/316 420/420 324/324
f 421/421 422/422 423/423
f 421/421 423/423 424/424
f 330/330 329/329 422/422
f 330/330 422/422 421/421
f 424/424 423/423 425/425
f 424/424 425/425 426/426
f 333/333 426/426 425/425
f 333/333 425/425 334/334
f 422/422 427/427 428/428
f 422/422 428/428 423/423
f 329/329 337/337 427/427
f 329/329 427/427 422/422
f 423/423 428/428 429/429
f 423/423 429/429 425/425
f 334/334 425/425 429/429
f 334/334 429/429 339/339
f 341/341 340/340 430/430
f 341/341 430/430 431/431
f 342/342 432/432 433/433
f 342/342 433/433 343/343
f 342/342 341/341 431/431
f 342/342 431/431 432/432
f 340/340 344/344 434/434
f 340/340 434/434 430/430
f 343/343 433/433 435/435
f 343/343 435/435 345/345
f 344/344 346/346 436/436
f 344/344 436/436 434/434
f 345/345 435/435 437/437
f 345/345 437/437 347/347
f 349/349 348/348 438/438
f 349/349 438/438 439/439
f 350/350 440/440 441/441
f 350/350 441/441 351/351
f 348/348 352/352 442/442
f 348/348 442/442 438/438
f 351/351 441/441 443/443
f 351/351 443/443 353/353
f 352/352 354/354 444/444
f 352/352 444/444 442/442
f 353/353 443/443 445/445
f 353/353 445/445 355/355
f 355/355 445/445 444/444
f 355/355 444/444 354/354
f 446/446 447/447 448/448
f 446/446 448/448 449/449
f 361/361 360/360 447/447
f 361/361 447/447 446/446
f 449/449 448/448 450/450
f 449/449 450/450 451/451
f 364/364 451/451 450/450
f 364/364 450/450 365/365
f 447/447 452/452 453/453
f 447/447 453/453 448/448
f 369/369 368/368 453/453
f 369/369 453/453 452/452
f 360/360 369/369 452/452
f 360/360 452/452 447/447
f 448/448 453/453 454/454
f 448/448 454/454 450/450
f 368/368 371/371 454/454
f 368/368 454/454 453/453
f 365/365 450/450 454/454
f 365/365 454/454 371/371
f 455/455 456/456 457/457
f 455/455 457/457 458/458
f 372/372 455/455 458/458
f 372/372 458/458 373/373
f 372/372 374/374 456/456
f 372/372 456/456 455/455
f 373/373 458/458 459/459
f 373/373 459/459 375/375
f 375/375 459/459 460/460
f 375/375 460/460 376/376
f 376/376 460/460 461/461
f 376/376 461/461 377/377
f 377/377 461/461 462/462
f 377/377 462/462 378/378
f 462/462 463/463 464/464
f 462/462 464/464 465/465
f 378/378 462/462 465/465
f 378/378 465/465 379/379
f 379/379 465/465 464/464
f 379/379 464/464 380/380
f 381/381 466/466 467/467
f 381/381 467/467 382/382
f 381/381 383/383 468/468
f 381/381 468/468 466/466
f 384/384 469/469 470/470
f 384/384 470/470 385/385
f 385/385 470/470 471/471
f 385/385 471/471 386/386
f 383/383 387/387 472/472
f 383/383 472/472 468/468
f 386/386 471/471 473/473
f 386/386 473/473 388/388
f 390/390 389/389 474/474
f 390/390 474/474 475/475
f 387/387 390/390 475/475
f 387/387 475/475 472/472
f 389/389 391/391 476/476
f 389/389 476/476 474/474
f 391/391 392/392 477/477
f 391/391 477/477 476/476
f 392/392 478/478 479/479
f 392/392 479/479 477/477
f 478/478 394/394 480/480
f 478/478 480/480 479/479
f 394/394 393/393 481/481
f 394/394 481/481 480/480
f 393/393 395/395 482/482
f 393/393 482/482 481/481
f 395/395 396/396 483/483
f 395/395 483/483 482/482
f 388/388 473/473 483/483
f 388/388 483/483 396/396
f 403/403 484/484 485/485
f 403/403 485/485 404/404
f 403/403 405/405 486/486
f 403/403 486/486 484/484
f 404/404 485/485 487/487
f 404/404 487/487 406/406
f 406/406 487/487 488/488
f 406/406 488/488 407/407
f 407/407 488/488 489/489
f 407/407 489/489 490/490
f 490/490 489/489 491/491
f 490/490 491/491 408/408
f 408/408 491/491 492/492
f 408/408 492/492 409/409
f 409/409 492/492 493/493
f 409/409 493/493 410/410
f 410/410 493/493 494/494
f 410/410 494/494 411/411
f 411/411 494/494 495/495
f 411/411 495/495 412/412
f 414/414 413/413 496/496
f 414/414 496/496 497/497
f 405/405 414/414 497/497
f 405/405 497/497 486/486
f 413/413 415/415 498/498
f 413/413 498/498 496/496
f 415/415 416/416 499/499
f 415/415 499/499 498/498
f 416/416 500/500 501/501
f 416/416 501/501 499/499
f 500/500 418/418 502/502
f 500/500 502/502 501/501
f 418/418 417/417 503/503
f 418/418 503/503 502/502
f 417/417 419/419 504/504
f 417/417 504/504 503/503
f 419/419 420/420 505/505
f 419/419 505/505 504/504
f 412/412 495/495 505/505
f 412/412 505/505 420/420
f 431/431 430/430 506/506
f 431/431 506/506 507/507
f 432/432 508/508 509/509
f 432/432 509/509 433/433
f 432/432 431/431 507/507
f 432/432 507/507 508/508
f 430/430 434/434 510/510
f 430/430 510/510 506/506
f 433/433 509/509 511/511
f 433/433 511/511 435/435
f 434/434 436/436 512/512
f 434/434 512/512 510/510
f 435/435 511/511 513/513
f 435/435 513/513 437/437
f 436/436 514/514 515/515
f 436/436 515/515 512/512
f 437/437 513/513 516/516
f 437/437 516/516 517/517
f 514/514 439/439 518/518
f 514/514 518/518 515/515
f 517/517 516/516 519/519
f 517/517 519/519 440/440
f 439/439 438/438 520/520
f 439/439 520/520 518/518
f 440/440 519/519 521/521
f 440/440 521/521 441/441
f 438/438 442/442 522/522
f 438/438 522/522 520/520
f 441/441 521/521 523/523
f 441/441 523/523 443/443
f 442/442 444/444 524/524
f 442/442 524/524 522/522
f 443/443 523/523 525/525
f 443/443 525/525 445/445
f 445/445 525/525 524/524
f 445/445 524/524 444/444
f 526/526 527/527 528/528
f 526/526 528/528 529/529
f 458/458 526/526 529/529
f 458/458 529/529 459/459
f 458/458 457/457 527/527
f 458/458 527/527 526/526
f 529/529 528/528 530/530
f 529/529 530/530 531/531
f 459/459 529/529 531/531
f 459/459 531/531 460/460
f 531/531 530/530 532/532
f 531/531 532/532 533/533
f 460/460 531/531 533/533
f 460/460 533/533 461/461
f 533/533 532/532 534/534
f 533/533 534/534 535/535
f 461/461 533/533 535/535
f 461/461 535/535 462/462
f 462/462 535/535 534/534
f 462/462 534/534 463/463
f 536/536 537/537 538/538
f 536/536 538/538 539/539
f 466/466 536/536 539/539
f 466/466 539/539 467/467
f 466/466 468/468 537/537
f 466/466 537/537 536/536
f 467/467 539/539 540/540
f 467/467 540/540 541/541
f 542/542 543/543 544/544
f 542/542 544/544 469/469
f 544/544 545/545 546/546
f 544/544 546/546 547/547
f 469/469 544/544 547/547
f 469/469 547/547 470/470
f 470/470 547/547 546/546
f 470/470 546/546 471/471
f 537/537 548/548 549/549
f 537/537 549/549 538/538
f 468/468 472/472 548/548
f 468/468 548/548 537/537
f 545/545 550/550 551/551
f 545/545 551/551 546/546
f 471/471 546/546 551/551
f 471/471 551/551 473/473
f 548/548 552/552 553/553
f 548/548 553/553 549/549
f 475/475 474/474 553/553
f 475/475 553/553 552/552
f 472/472 475/475 552/552
f 472/472 552/552 548/548
f 474/474 476/476 554/554
f 474/474 554/554 553/553
f 476/476 477/477 555/555
f 476/476 555/555 554/554
f 477/477 479/479 556/556
f 477/477 556/556 555/555
f 479/479 480/480 557/557
f 479/479 557/557 556/556
f 480/480 481/481 558/558
f 480/480 558/558 557/557
f 481/481 482/482 559/559
f 481/481 559/559 558/558
f 550/550 559/559 560/560
f 550/550 560/560 551/551
f 482/482 483/483 560/560
f 482/482 560/560 559/559
f 473/473 551/551 560/560
f 473/473 560/560 483/483
f 561/561 562/562 563/563
f 561/561 563/563 564/564
f 484/484 561/561 564/564
f 484/484 564/564 485/485
f 484/484 486/486 562/562
f 484/484 562/562 561/561
f 485/485 564/564 565/565
f 485/485 565/565 487/487
f 487/487 565/565 566/566
f 487/487 566/566 488/488
f 488/488 566/566 567/567
f 488/488 567/567 489/489
f 489/489 567/567 568/568
f 489/489 568/568 491/491
f 491/491 568/568 569/569
f 491/491 569/569 492/492
f 492/492 569/569 570/570
f 492/492 570/570 493/493
f 570/570 571/571 572/572
f 570/570 572/572 573/573
f 493/493 570/570 573/573
f 493/493 573/573 494/494
f 494/494 573/573 572/572
f 494/494 572/572 495/495
f 562/562 574/574 575/575
f 562/562 575/575 563/563
f 497/497 496/496 575/575
f 497/497 575/575 574/574
f 486/486 497/497 574/574
f 486/486 574/574 562/562
f 496/496 498/498 576/576
f 496/496 576/576 575/575
f 498/498 499/499 577/577
f 498/498 577/577 576/576
f 499/499 501/501 578/578
f 499/499 578/578 577/577
f 501/501 502/502 579/579
f 501/501 579/579 578/578
f 502/502 503/503 580/580
f 502/502 580/580 579/579
f 503/503 504/504 581/581
f 503/503 581/581 580/580
f 571/571 581/581 582/582
f 571/571 582/582 572/572
f 504/504 505/505 582/582
f 504/504 582/582 581/581
f 495/495 572/572 582/582
f 495/495 582/582 505/505
f 583/583 584/584 585/585
f 583/583 585/585 586/586
f 507/507 506/506 585/585
f 507/507 585/585 584/584
f 508/508 583/583 586/586
f 508/508 586/586 509/509
f 508/508 507/507 584/584
f 508/508 584/584 583/583
f 506/506 510/510 587/587
f 506/506 587/587 585/585
f 509/509 586/586 588/588
f 509/509 588/588 511/511
f 510/510 512/512 589/589
f 510/510 589/589 587/587
f 511/511 588/588 590/590
f 511/511 590/590 513/513
f 512/512 515/515 591/591
f 512/512 591/591 589/589
f 513/513 590/590 592/592
f 513/513 592/592 516/516
f 515/515 518/518 593/593
f 515/515 593/593 591/591
f 516/516 592/592 594/594
f 516/516 594/594 519/519
f 518/518 520/520 595/595
f 518/518 595/595 593/593
f 519/519 594/594 596/596
f 519/519 596/596 521/521
f 520/520 522/522 597/597
f 520/520 597/597 595/595
f 521/521 596/596 598/598
f 521/521 598/598 523/523
f 598/598 597/597 599/599
f 598/598 599/599 600/600
f 522/522 524/524 599/599
f 522/522 599/599 597/597
f 523/523 598/598 600/600
f 523/523 600/600 525/525
f 525/525 600/600 599/599
f 525/525 599/599 524/524
f 601/601 602/602 603/603
f 601/601 603/603 604/604
f 539/539 601/601 604/604
f 539/539 604/604 540/540
f 539/539 538/538 602/602
f 539/539 602/602 601/601
f 604/604 603/603 605/605
f 604/604 605/605 606/606
f 540/540 604/604 606/606
f 540/540 606/606 607/607
f 606/606 605/605 608/608
f 606/606 608/608 609/609
f 607/607 606/606 609/609
f 607/607 609/609 610/610
f 609/609 608/608 611/611
f 609/609 611/611 612/612
f 610/610 609/609 612/612
f 610/610 612/612 613/613
f 612/612 611/611 614/614
f 612/612 614/614 615/615
f 613/613 612/612 615/615
f 613/613 615/615 543/543
f 615/615 614/614 616/616
f 615/615 616/616 617/617
f 543/543 615/615 617/617
f 543/543 617/617 544/544
f 544/544 617/617 616/616
f 544/544 616/616 545/545
f 602/602 618/618 619/619
f 602/602 619/619 603/603
f 538/538 549/549 618/618
f 538/538 618/618 602/602
f 603/603 619/619 620/620
f 603/603 620/620 605/605
f 605/605 620/620 621/621
f 605/605 621/621 608/608
f 608/608 621/621 622/622
f 608/608 622/622 611/611
f 611/611 622/622 623/623
f 611/611 623/623 614/614
f 614/614 623/623 624/624
f 614/614 624/624 616/616
f 545/545 616/616 624/624
f 545/545 624/624 550/550
f 618/618 625/625 626/626
f 618/618 626/626 619/619
f 553/553 554/554 626/626
f 553/553 626/626 625/625
f 549/549 553/553 625/625
f 549/549 625/625 618/618
f 619/619 626/626 627/627
f 619/619 627/627 620/620
f 554/554 555/555 627/627
f 554/554 627/627 626/626
f 620/620 627/627 628/628
f 620/620 628/628 621/621
f 555/555 556/556 628/628
f 555/555 628/628 627/627
f 621/621 628/628 629/629
f 621/621 629/629 622/622
f 556/556 557/557 629/629
f 556/556 629/629 628/628
f 622/622 629/629 630/630
f 622/622 630/630 623/623
f 557/557 558/558 630/630
f 557/557 630/630 629/629
f 623/623 630/630 631/631
f 623/623 631/631 624/624
f 558/558 559/559 631/631
f 558/558 631/631 630/630
f 550/550 624/624 631/631
f 550/550 631/631 559/559
f 632/632 633/633 634/634
f 632/632 634/634 635/635
f 564/564 632/632 635/635
f 564/564 635/635 565/565
f 564/564 563/563 633/633
f 564/564 633/633 632/632
f 635/635 634/634 636/636
f 635/635 636/636 637/637
f 565/565 635/635 637/637
f 565/565 637/637 566/566
f 637/637 636/636 638/638
f 637/637 638/638 639/639
f 566/566 637/637 639/639
f 566/566 639/639 567/567
f 639/639 638/638 640/640
f 639/639 640/640 641/641
f 567/567 639/639 641/641
f 567/567 641/641 568/568
f 641/641 640/640 642/642
f 641/641 642/642 643/643
f 568/568 641/641 643/643
f 568/568 643/643 569/569
f 643/643 642/642 644/644
f 643/643 644/644 645/645
f 569/569 643/643 645/645
f 569/569 645/645 570/570
f 570/570 645/645 644/644
f 570/570 644/644 571/571
f 633/633 646/646 647/647
f 633/633 647/647 634/634
f 575/575 576/576 647/647
f 575/575 647/647 646/646
f 563/563 575/575 646/646
f 563/563 646/646 633/633
f 634/634 647/647 648/648
f 634/634 648/648 636/636
f 576/576 577/577 648/648
f 576/576 648/648 647/647
f 636/636 648/648 649/649
f 636/636 649/649 638/638
f 577/577 578/578 649/649
f 577/577 649/649 648/648
f 638/638 649/649 650/650
f 638/638 650/650 640/640
f 578/578 579/579 650/650
f 578/578 650/650 649/649
f 640/640 650/650 651/651
f 640/640 651/651 642/642
f 579/579 580/580 651/651
f 579/579 651/651 650/650
f 642/642 651/651 652/652
f 642/642 652/652 644/644
f 580/580 581/581 652/652
f 580/580 652/652 651/651
f 571/571 644/644 652/652
f 571/571 652/652 581/581
f 653/653 654/654 655/655
f 653/653 655/655 656/656
f 585/585 587/587 655/655
f 585/585 655/655 654/654
f 586/586 653/653 656/656
f 586/586 656/656 588/588
f 586/586 585/585 654/654
f 586/586 654/654 653/653
f 656/656 655/655 657/657
f 656/656 657/657 658/658
f 587/587 589/589 657/657
f 587/587 657/657 655/655
f 588/588 656/656 658/658
f 588/588 658/658 590/590
f 658/658 657/657 659/659
f 658/658 659/659 660/660
f 589/589 591/591 659/659
f 589/589 659/659 657/657
f 590/590 658/658 660/660
f 590/590 660/660 592/592
f 660/660 659/659 661/661
f 660/660 661/661 662/662
f 591/591 593/593 661/661
f 591/591 661/661 659/659
f 592/592 660/660 662/662
f 592/592 662/662 594/594
f 662/662 661/661 663/663
f 662/662 663/663 664/664
f 593/593 595/595 663/663
f 593/593 663/663 661/661
f 594/594 662/662 664/664
f 594/594 664/664 596/596
f 664/664 663/663 665/665
f 664/664 665/665 666/666
f 595/595 597/597 665/665
f 595/595 665/665 663/663
f 596/596 664/664 666/666
f 596/596 666/666 598/598
f 598/598 666/666 665/665
f 598/598 665/665 597/597
